<svg width="30" height="31" viewBox="0 0 30 31" fill="none" xmlns="http://www.w3.org/2000/svg">
<path d="M14.9995 4.20763e-07C16.9604 -0.000586769 18.8698 0.613423 20.4476 1.75191C22.0253 2.89039 23.1882 4.49339 23.7657 6.32563C24.3432 8.15786 24.3047 10.1228 23.656 11.9321C23.0073 13.7414 21.7825 15.2998 20.1614 16.3784C22.9752 17.3875 25.4157 19.1969 27.1688 21.5737C28.922 23.9505 29.9074 26.7859 29.9984 29.7149C30.0069 29.8775 29.9821 30.0401 29.9254 30.1932C29.8688 30.3463 29.7815 30.4868 29.6686 30.6064C29.5557 30.7261 29.4195 30.8225 29.2679 30.89C29.1164 30.9575 28.9527 30.9947 28.7862 30.9995C28.6198 31.0043 28.4541 30.9765 28.2988 30.9178C28.1435 30.8591 28.0017 30.7707 27.8818 30.6577C27.7619 30.5448 27.6663 30.4095 27.6006 30.2599C27.5349 30.1104 27.5004 29.9495 27.4991 29.7867C27.3998 26.6102 26.0395 23.5963 23.7063 21.3838C21.3732 19.1712 18.2506 17.9338 15.0003 17.9338C11.75 17.9338 8.62742 19.1712 6.29428 21.3838C3.96113 23.5963 2.60078 26.6102 2.50149 29.7867C2.49154 30.1109 2.35026 30.418 2.10871 30.6405C1.86717 30.8629 1.54516 30.9824 1.21351 30.9726C0.88187 30.9629 0.567762 30.8248 0.34029 30.5886C0.112817 30.3524 -0.00938608 30.0376 0.000563228 29.7133C0.091844 26.7845 1.07745 23.9495 2.83055 21.573C4.58364 19.1965 7.024 17.3874 9.83755 16.3784C8.21642 15.2998 6.99163 13.7414 6.34292 11.9321C5.69422 10.1228 5.65577 8.15786 6.23323 6.32563C6.81068 4.49339 7.97363 2.89039 9.55138 1.75191C11.1291 0.613423 13.0386 -0.000586769 14.9995 4.20763e-07ZM8.33032 8.966C8.33032 10.6954 9.03296 12.354 10.2837 13.5768C11.5344 14.7997 13.2307 15.4867 14.9995 15.4867C16.7682 15.4867 18.4646 14.7997 19.7153 13.5768C20.966 12.354 21.6686 10.6954 21.6686 8.966C21.6686 7.23659 20.966 5.57802 19.7153 4.35515C18.4646 3.13227 16.7682 2.44527 14.9995 2.44527C13.2307 2.44527 11.5344 3.13227 10.2837 4.35515C9.03296 5.57802 8.33032 7.23659 8.33032 8.966Z" fill="#43446F"/>
</svg>
