<svg width="54" height="83" viewBox="0 0 54 83" fill="none" xmlns="http://www.w3.org/2000/svg">
<path fill-rule="evenodd" clip-rule="evenodd" d="M24.0585 8.75459C24.0585 5.17229 26.9266 2.2832 30.4463 2.2832C33.966 2.2832 36.8341 5.17229 36.8341 8.75459C36.8341 12.3369 33.966 15.226 30.4463 15.226C26.9266 15.226 24.0585 12.3369 24.0585 8.75459ZM30.4463 0.783203C26.0818 0.783203 22.5585 4.36037 22.5585 8.75459C22.5585 13.1488 26.0818 16.726 30.4463 16.726C34.8108 16.726 38.3341 13.1488 38.3341 8.75459C38.3341 4.36037 34.8108 0.783203 30.4463 0.783203ZM24.0049 20.642C22.5203 20.642 21.0771 21.1315 19.8988 22.0346L6.79211 32.0802C6.69036 32.1582 6.61029 32.2609 6.55956 32.3787L0.989281 45.3072C-0.176353 48.0126 1.80753 51.0276 4.75337 51.0276C6.29258 51.0276 7.70203 50.1652 8.4027 48.7947L14.0795 37.691L18.4102 34.5614L14.5582 47.8115C14.5488 47.8438 14.5416 47.8766 14.5366 47.9098L12.3358 62.6053L3.34437 73.9073C0.690063 77.2437 3.06591 82.1698 7.32934 82.1698C8.91791 82.1698 10.4155 81.4285 11.3787 80.1652L22.1204 66.0778C22.1989 65.9748 22.2494 65.8533 22.267 65.725L23.1798 59.0755L28.4327 64.2066L32.0879 78.6289C32.6157 80.7114 34.4899 82.1698 36.6383 82.1698C39.658 82.1698 41.8923 79.3597 41.2117 76.4176L37.4225 60.0379C37.3975 59.9299 37.3489 59.8288 37.2801 59.7418L28.6039 48.7695C28.8794 47.9134 29.2859 46.7814 29.7523 45.4826C29.9674 44.8838 30.1951 44.2496 30.4286 43.5907C31.0888 41.7275 31.788 39.6853 32.3447 37.7602L37.042 42.6719C37.138 42.7723 37.2601 42.8441 37.3945 42.8792L48.1588 45.6896C50.2689 46.2405 52.4493 45.083 53.1753 43.0265C53.9603 40.8028 52.759 38.369 50.5163 37.6397L41.6071 34.7425L34.165 24.9988L34.1579 25.0043C33.6881 23.5363 32.8255 22.4673 31.8894 21.7444C30.5519 20.7114 28.828 20.642 27.4374 20.642H24.0049ZM29.6319 63.2812L23.2001 56.9983L16.1053 47.863L20.4597 32.8848C20.5491 32.5773 20.4334 32.2469 20.1716 32.0624C19.9098 31.8779 19.5598 31.88 19.3002 32.0676L13.0546 36.5809C12.9585 36.6504 12.8802 36.7417 12.8261 36.8474L7.06712 48.1119C6.62288 48.9808 5.72927 49.5276 4.75337 49.5276C2.88565 49.5276 1.62782 47.616 2.36686 45.9007L7.85978 33.1518L20.8113 23.2251C21.7277 22.5227 22.8502 22.142 24.0049 22.142H27.4374C28.8581 22.142 30.0852 22.2462 30.9726 22.9316C32.253 23.9204 33.5246 25.8734 32.8332 29.3706C32.4582 31.2677 31.8854 33.6416 31.2468 36.0974C30.6722 38.3071 29.823 40.8089 29.0147 43.0897C28.7905 43.7225 28.5685 44.3406 28.3565 44.9309L28.3563 44.9315L28.3563 44.9316C27.8117 46.4482 27.3332 47.7807 27.052 48.7053C26.9804 48.9406 27.0287 49.1959 27.1812 49.3888L35.999 60.5401L39.7502 76.7557C40.2134 78.7577 38.6931 80.6698 36.6383 80.6698C35.1764 80.6698 33.9011 79.6774 33.542 78.2604L29.8349 63.6334C29.801 63.4996 29.7307 63.3777 29.6319 63.2812ZM21.8533 57.7097L15.7606 49.8646L13.7895 63.0261C13.7701 63.1562 13.7167 63.2789 13.6347 63.3819L4.51821 74.8412C2.64578 77.1948 4.32177 80.6698 7.32934 80.6698C8.44997 80.6698 9.5064 80.1468 10.1859 79.2557L20.8078 65.3253L21.8533 57.7097ZM37.9791 41.4815L32.8035 36.0697C33.4031 33.7458 33.9423 31.4951 34.3047 29.6615C34.4255 29.0509 34.4943 28.475 34.5182 27.9325L40.5569 35.8387C40.6492 35.9596 40.7762 36.0496 40.921 36.0967L50.0524 39.0662C51.4933 39.5348 52.2652 41.0984 51.7608 42.5272C51.2944 43.8485 49.8935 44.5922 48.5377 44.2382L37.9791 41.4815Z" fill="url(#paint0_linear_2599_7021)"/>
<defs>
<linearGradient id="paint0_linear_2599_7021" x1="46.6369" y1="0.783201" x2="11.5943" y2="3.53373" gradientUnits="userSpaceOnUse">
<stop stop-color="#FFD159"/>
<stop offset="1" stop-color="#FF7285"/>
</linearGradient>
</defs>
</svg>
