<svg width="16" height="12" viewBox="0 0 16 12" fill="none" xmlns="http://www.w3.org/2000/svg">
<path fill-rule="evenodd" clip-rule="evenodd" d="M1.81155 1.55666C1.83495 0.828322 2.43215 0.25 3.16086 0.25H12.8386C13.5674 0.25 14.1646 0.828323 14.1879 1.55666L14.3371 6.1993L15.3907 10.2217C15.5534 10.8428 15.0848 11.45 14.4427 11.45C14.0208 11.45 13.6463 11.1801 13.513 10.7799L12.7956 8.62785C12.7071 8.36243 12.4587 8.1834 12.179 8.1834H3.82068C3.5409 8.1834 3.29251 8.36243 3.20404 8.62785L2.48669 10.7799C2.3533 11.1801 1.9788 11.45 1.55697 11.45C0.914884 11.45 0.446262 10.8428 0.608942 10.2217L1.66243 6.19931L1.81155 1.55666ZM2.28112 6.5999L1.2861 10.399C1.23962 10.5765 1.37352 10.75 1.55697 10.75C1.6775 10.75 1.7845 10.6729 1.82261 10.5585L2.53996 8.40649C2.72372 7.85523 3.2396 7.4834 3.82068 7.4834H12.179C12.76 7.4834 13.2759 7.85523 13.4597 8.40649L14.177 10.5585C14.2151 10.6729 14.3221 10.75 14.4427 10.75C14.6261 10.75 14.76 10.5765 14.7135 10.3991L13.7184 6.5999H11.8H4.09992H2.28112ZM4.09992 5.8999H11.8C12.159 5.8999 12.45 5.60888 12.45 5.2499V2.5C12.45 2.14102 12.159 1.85 11.8 1.85H4.09992C3.74094 1.85 3.44992 2.14101 3.44992 2.5V5.2499C3.44992 5.60888 3.74094 5.8999 4.09992 5.8999ZM12.9835 5.8999C13.0896 5.70708 13.15 5.48554 13.15 5.2499V2.5C13.15 1.75442 12.5456 1.15 11.8 1.15H4.09992C3.35434 1.15 2.74992 1.75442 2.74992 2.5V5.2499C2.74992 5.48554 2.8103 5.70708 2.91642 5.8999H2.37241L2.51119 1.57913C2.52246 1.22845 2.81 0.95 3.16086 0.95H12.8386C13.1895 0.95 13.477 1.22845 13.4883 1.57913L13.6271 5.8999H12.9835Z" fill="#A8A9BC"/>
</svg>
