<svg width="14" height="10" viewBox="0 0 14 10" fill="none" xmlns="http://www.w3.org/2000/svg">
<path fill-rule="evenodd" clip-rule="evenodd" d="M0.350027 1.50002C0.35003 0.754437 0.954446 0.150024 1.70003 0.150024H5.98157C6.46773 0.150024 6.89386 0.407002 7.13155 0.792531C7.36924 0.407002 7.79538 0.150024 8.28154 0.150024H12.5631C13.3087 0.150024 13.9131 0.754443 13.9131 1.50003L13.9131 1.70003L13.9131 8.37405C13.913 9.11964 13.3086 9.72405 12.5631 9.72405H8.28151C7.79535 9.72405 7.36922 9.46707 7.13153 9.08154C6.89384 9.46707 6.4677 9.72405 5.98154 9.72405H1.70001C0.954417 9.72405 0.349999 9.11963 0.350006 8.37404L0.350007 8.30002L0.350027 1.50002ZM6.63156 5.55002L6.63157 1.50003C6.63157 1.14104 6.34056 0.850024 5.98157 0.850024H1.70003C1.34104 0.850024 1.05003 1.14104 1.05003 1.50002L1.05001 7.95002H1.3C1.35523 7.95002 1.4 7.90525 1.4 7.85002C1.4 7.4082 1.75817 7.05002 2.2 7.05002H3.4C3.45523 7.05002 3.5 7.00525 3.5 6.95002C3.5 6.5082 3.85817 6.15002 4.3 6.15002H5.30189C5.32742 5.8144 5.60784 5.55002 5.95 5.55002H6.63156ZM1.11133 8.65003C1.21512 8.87103 1.43969 9.02405 1.70001 9.02405H5.98154C6.34053 9.02405 6.63154 8.73304 6.63155 8.37405L6.63156 6.25002H5.9981C5.97257 6.58565 5.69216 6.85002 5.35 6.85002H4.3C4.24477 6.85002 4.2 6.8948 4.2 6.95002C4.2 7.39185 3.84182 7.75002 3.4 7.75002H2.2C2.14477 7.75002 2.1 7.7948 2.1 7.85002C2.1 8.29185 1.74182 8.65003 1.3 8.65003H1.11133ZM7.63153 4.15002L7.63151 8.37405C7.63151 8.73303 7.92252 9.02405 8.28151 9.02405H12.5631C12.922 9.02405 13.2131 8.73304 13.2131 8.37405L13.2131 2.05002H12.4C12.3448 2.05002 12.3 2.0948 12.3 2.15002C12.3 2.59185 11.9418 2.95002 11.5 2.95002H9.55C9.41193 2.95002 9.3 3.06195 9.3 3.20002C9.3 3.7247 8.87467 4.15002 8.35 4.15002H7.63153ZM13.1957 1.35002C13.128 1.06335 12.8704 0.850024 12.5631 0.850024H8.28154C7.92255 0.850024 7.63154 1.14104 7.63154 1.50002L7.63153 3.45002H8.35C8.48807 3.45002 8.6 3.3381 8.6 3.20002C8.6 2.67535 9.02533 2.25002 9.55 2.25002H11.5C11.5552 2.25002 11.6 2.20525 11.6 2.15002C11.6 1.7082 11.9582 1.35002 12.4 1.35002H13.1957Z" fill="#A8A9BC"/>
</svg>
