<svg width="24" height="24" viewBox="0 0 24 24" fill="none" xmlns="http://www.w3.org/2000/svg">
<circle cx="12" cy="12" r="12" fill="#31315C"/>
<path d="M8.64001 12.4138H15.36M8.64001 14.3173H15.36M8.64001 16.2207H15.36M8.64001 4.80005H8.20001C7.64773 4.80005 7.20001 5.24776 7.20001 5.80005V18.12C7.20001 18.3851 7.41492 18.6 7.68001 18.6V18.6H15.8C16.3523 18.6 16.8 18.1523 16.8 17.6V5.80005C16.8 5.24776 16.3523 4.80005 15.8 4.80005H10.56M8.64001 4.80005V8.60695L8.74274 8.47116C9.08134 8.02358 9.7219 7.94224 10.1616 8.29099L10.56 8.60695V4.80005M8.64001 4.80005H10.56" stroke="#A8A9BC" stroke-width="0.7" stroke-linecap="round" stroke-linejoin="round"/>
</svg>
