<svg width="16" height="12" viewBox="0 0 16 12" fill="none" xmlns="http://www.w3.org/2000/svg">
<path fill-rule="evenodd" clip-rule="evenodd" d="M0.900012 5.28419C0.900012 7.5843 2.75009 9.4404 5.02183 9.4404H5.03286H5.0439H5.05495H5.06601H5.07707H5.08815H5.09922H5.11031H5.1214H5.1325H5.1436H5.15471H5.16583H5.17696H5.18809H5.19923H5.21037H5.22152H5.23268H5.24384H5.25502H5.26619H5.27738H5.28857H5.29976H5.31097H5.32218H5.33339H5.34461H5.35584H5.36708H5.37832H5.38956H5.40082H5.41208H5.42334H5.43461H5.44589H5.45717H5.46846H5.47976H5.49106H5.50236H5.51368H5.525H5.53632H5.54765H5.55899H5.57033H5.58168H5.59303H5.60439H5.61575H5.62712H5.6385H5.64988H5.66126H5.67266H5.68405H5.69546H5.70686H5.71828H5.7297H5.74112H5.75255H5.76399H5.77543H5.78687H5.79832H5.80978H5.82124H5.8327H5.84417H5.85565H5.86713H5.87862H5.89011H5.9016H5.9131H5.92461H5.93612H5.94763H5.95915H5.97068H5.98221H5.99374H6.00528H6.01683H6.02837H6.03993H6.05148H6.06305H6.07461H6.08618H6.09776H6.10934H6.12092H6.13251H6.1441H6.1557H6.1673H6.17891H6.19052H6.20213H6.21375H6.22537H6.237H6.24863H6.26026H6.2719H6.28355H6.29519H6.30684H6.3185H6.33016H6.34182H6.35349H6.36516H6.37683H6.38851H6.40019H6.41187H6.42356H6.43526H6.44695H6.45865H6.47035H6.48206H6.49377H6.50549H6.5172H6.52892H6.54065H6.55238H6.56411H6.57584H6.58758H6.59932H6.61106H6.62281H6.63456H6.64632H6.65807H6.66983H6.6816H6.69336H6.70513H6.7169H6.72868H6.74046H6.75224H6.76402H6.77581H6.7876H6.79939H6.81118H6.82298H6.83478H6.84659H6.85839H6.8702H6.88201H6.89383H6.90564H6.91746H6.92928H6.94111H6.95293H6.96476H6.97659H6.98843H7.00026H7.0121H7.02394H7.03578H7.04763H7.05948H7.07133H7.08318H7.09503H7.10689H7.11874H7.1306H7.14247H7.15433H7.1662H7.17806H7.18993H7.2018H7.21368H7.22555H7.23743H7.24931H7.26119H7.27307H7.28496H7.29684H7.30873H7.32062H7.33251H7.3444H7.35629H7.36819H7.38008H7.39198H7.40388H7.41578H7.42768H7.43958H7.45149H7.46339H7.4753H7.48721H7.49912H7.51103H7.52294H7.53485H7.54677H7.55868H7.5706H7.58251H7.59443H7.60635H7.61827H7.63019H7.64211H7.65403H7.66596H7.67788H7.68981H7.70173H7.71366H7.72558H7.73751H7.74944H7.76137H7.7733H7.78523H7.79715H7.80909H7.82102H7.83295H7.84488H7.85681H7.86874H7.88068H7.89261H7.90454H7.91648H7.92841H7.94034H7.95228H7.96421H7.97614H7.98808H8.00001H8.01195H8.02388H8.03582H8.04775H8.05968H8.07162H8.08355H8.09548H8.10742H8.11935H8.13128H8.14322H8.15515H8.16708H8.17901H8.19094H8.20287H8.2148H8.22673H8.23866H8.25059H8.26252H8.27444H8.28637H8.2983H8.31022H8.32214H8.33407H8.34599H8.35791H8.36983H8.38176H8.39367H8.40559H8.41751H8.42943H8.44134H8.45326H8.46517H8.47709H8.489H8.50091H8.51282H8.52472H8.53663H8.54854H8.56044H8.57234H8.58425H8.59615H8.60805H8.61994H8.63184H8.64373H8.65563H8.66752H8.67941H8.6913H8.70319H8.71507H8.72696H8.73884H8.75072H8.7626H8.77447H8.78635H8.79822H8.81009H8.82196H8.83383H8.8457H8.85756H8.86942H8.88128H8.89314H8.90499H8.91685H8.9287H8.94055H8.9524H8.96424H8.97608H8.98792H8.99976H9.0116H9.02343H9.03526H9.04709H9.05892H9.07074H9.08256H9.09438H9.1062H9.11801H9.12982H9.14163H9.15344H9.16524H9.17704H9.18884H9.20064H9.21243H9.22422H9.236H9.24779H9.25957H9.27135H9.28312H9.2949H9.30666H9.31843H9.33019H9.34195H9.35371H9.36546H9.37721H9.38896H9.40071H9.41245H9.42418H9.43592H9.44765H9.45938H9.4711H9.48282H9.49454H9.50625H9.51797H9.52967H9.54138H9.55307H9.56477H9.57646H9.58815H9.59984H9.61152H9.6232H9.63487H9.64654H9.65821H9.66987H9.68153H9.69318H9.70483H9.71648H9.72812H9.73976H9.7514H9.76303H9.77465H9.78628H9.7979H9.80951H9.82112H9.83273H9.84433H9.85592H9.86752H9.87911H9.89069H9.90227H9.91384H9.92542H9.93698H9.94854H9.9601H9.97165H9.9832H9.99474H10.0063H10.0178H10.0293H10.0409H10.0524H10.0639H10.0754H10.0869H10.0984H10.1099H10.1214H10.1329H10.1444H10.1559H10.1673H10.1788H10.1902H10.2017H10.2132H10.2246H10.236H10.2475H10.2589H10.2703H10.2817H10.2932H10.3046H10.316H10.3274H10.3388H10.3501H10.3615H10.3729H10.3843H10.3956H10.407H10.4184H10.4297H10.441H10.4524H10.4637H10.475H10.4863H10.4977H10.509H10.5203H10.5316H10.5429H10.5541H10.5654H10.5767H10.588H10.5992H10.6105H10.6217H10.6329H10.6442H10.6554H10.6666H10.6778H10.6891H10.7003H10.7115H10.7226H10.7338H10.745H10.7562H10.7673H10.7785H10.7897H10.8008H10.8119H10.8231H10.8342H10.8453H10.8564H10.8675H10.8786H10.8897H10.9008H10.9119H10.923H10.934H10.9451H10.9561H10.9672H10.9782C13.2499 9.4404 15.1 7.5843 15.1 5.28419C15.1 2.98408 13.2499 1.12798 10.9782 1.12798H10.9672H10.9561H10.9451H10.934H10.923H10.9119H10.9008H10.8897H10.8786H10.8675H10.8564H10.8453H10.8342H10.8231H10.8119H10.8008H10.7897H10.7785H10.7673H10.7562H10.745H10.7338H10.7226H10.7115H10.7003H10.6891H10.6778H10.6666H10.6554H10.6442H10.6329H10.6217H10.6105H10.5992H10.588H10.5767H10.5654H10.5541H10.5429H10.5316H10.5203H10.509H10.4977H10.4863H10.475H10.4637H10.4524H10.441H10.4297H10.4184H10.407H10.3956H10.3843H10.3729H10.3615H10.3501H10.3388H10.3274H10.316H10.3046H10.2932H10.2817H10.2703H10.2589H10.2475H10.236H10.2246H10.2132H10.2017H10.1902H10.1788H10.1673H10.1559H10.1444H10.1329H10.1214H10.1099H10.0984H10.0869H10.0754H10.0639H10.0524H10.0409H10.0293H10.0178H10.0063H9.99474H9.9832H9.97165H9.9601H9.94854H9.93698H9.92542H9.91384H9.90227H9.89069H9.87911H9.86752H9.85592H9.84433H9.83273H9.82112H9.80951H9.7979H9.78628H9.77466H9.76303H9.7514H9.73976H9.72812H9.71648H9.70483H9.69318H9.68153H9.66987H9.65821H9.64654H9.63487H9.6232H9.61152H9.59984H9.58815H9.57646H9.56477H9.55307H9.54138H9.52967H9.51797H9.50625H9.49454H9.48282H9.4711H9.45938H9.44765H9.43592H9.42418H9.41245H9.40071H9.38896H9.37722H9.36546H9.35371H9.34195H9.33019H9.31843H9.30666H9.2949H9.28312H9.27135H9.25957H9.24779H9.236H9.22422H9.21243H9.20064H9.18884H9.17704H9.16524H9.15344H9.14163H9.12982H9.11801H9.1062H9.09438H9.08256H9.07074H9.05892H9.04709H9.03526H9.02343H9.0116H8.99976H8.98792H8.97608H8.96424H8.9524H8.94055H8.9287H8.91685H8.90499H8.89314H8.88128H8.86942H8.85756H8.8457H8.83383H8.82196H8.81009H8.79822H8.78635H8.77447H8.7626H8.75072H8.73884H8.72696H8.71507H8.70319H8.6913H8.67941H8.66752H8.65563H8.64373H8.63184H8.61994H8.60805H8.59615H8.58425H8.57234H8.56044H8.54854H8.53663H8.52472H8.51282H8.50091H8.489H8.47709H8.46517H8.45326H8.44134H8.42943H8.41751H8.40559H8.39367H8.38176H8.36983H8.35791H8.34599H8.33407H8.32214H8.31022H8.2983H8.28637H8.27444H8.26252H8.25059H8.23866H8.22673H8.2148H8.20287H8.19094H8.17901H8.16708H8.15515H8.14322H8.13128H8.11935H8.10742H8.09548H8.08355H8.07162H8.05968H8.04775H8.03582H8.02388H8.01195H8.00001H7.98808H7.97614H7.96421H7.95228H7.94034H7.92841H7.91648H7.90454H7.89261H7.88068H7.86874H7.85681H7.84488H7.83295H7.82102H7.80909H7.79715H7.78523H7.7733H7.76137H7.74944H7.73751H7.72558H7.71366H7.70173H7.68981H7.67788H7.66596H7.65403H7.64211H7.63019H7.61827H7.60635H7.59443H7.58251H7.5706H7.55868H7.54677H7.53485H7.52294H7.51103H7.49912H7.48721H7.4753H7.46339H7.45149H7.43958H7.42768H7.41578H7.40388H7.39198H7.38008H7.36819H7.35629H7.3444H7.33251H7.32062H7.30873H7.29684H7.28496H7.27307H7.26119H7.24931H7.23743H7.22555H7.21368H7.2018H7.18993H7.17806H7.1662H7.15433H7.14247H7.1306H7.11874H7.10689H7.09503H7.08318H7.07133H7.05948H7.04763H7.03578H7.02394H7.0121H7.00026H6.98843H6.97659H6.96476H6.95293H6.94111H6.92928H6.91746H6.90564H6.89383H6.88201H6.8702H6.85839H6.84659H6.83478H6.82298H6.81118H6.79939H6.7876H6.77581H6.76402H6.75224H6.74046H6.72868H6.7169H6.70513H6.69336H6.6816H6.66983H6.65807H6.64632H6.63456H6.62281H6.61106H6.59932H6.58758H6.57584H6.56411H6.55238H6.54065H6.52892H6.5172H6.50549H6.49377H6.48206H6.47035H6.45865H6.44695H6.43526H6.42356H6.41187H6.40019H6.38851H6.37683H6.36515H6.35348H6.34182H6.33016H6.3185H6.30684H6.29519H6.28355H6.2719H6.26026H6.24863H6.237H6.22537H6.21375H6.20213H6.19052H6.17891H6.1673H6.1557H6.1441H6.13251H6.12092H6.10934H6.09776H6.08618H6.07461H6.06305H6.05148H6.03993H6.02837H6.01683H6.00528H5.99374H5.98221H5.97068H5.95915H5.94763H5.93612H5.92461H5.9131H5.9016H5.89011H5.87862H5.86713H5.85565H5.84417H5.8327H5.82124H5.80978H5.79832H5.78687H5.77543H5.76399H5.75255H5.74112H5.7297H5.71828H5.70686H5.69546H5.68405H5.67266H5.66126H5.64988H5.6385H5.62712H5.61575H5.60439H5.59303H5.58168H5.57033H5.55899H5.54765H5.53632H5.525H5.51368H5.50236H5.49106H5.47976H5.46846H5.45717H5.44589H5.43461H5.42334H5.41208H5.40082H5.38956H5.37832H5.36708H5.35584H5.34461H5.33339H5.32218H5.31097H5.29976H5.28857H5.27738H5.26619H5.25502H5.24384H5.23268H5.22152H5.21037H5.19923H5.18809H5.17696H5.16583H5.15471H5.1436H5.1325H5.1214H5.11031H5.09922H5.08815H5.07707H5.06601H5.05495H5.0439H5.03286H5.02183C2.75009 1.12798 0.900012 2.98408 0.900012 5.28419ZM10.9214 10.1404H10.9782C11.2062 10.1404 11.4305 10.1245 11.65 10.0936L11.65 10.65H10.9214L10.9214 10.1404ZM10.2214 10.1404H5.77857L5.77857 11C5.77857 11.0928 5.7417 11.1818 5.67606 11.2475C5.61042 11.3131 5.5214 11.35 5.42857 11.35H4C3.8067 11.35 3.65 11.1933 3.65 11L3.65 10C3.65 9.9804 3.65161 9.96117 3.65471 9.94244C1.65755 9.34885 0.200012 7.48795 0.200012 5.28419C0.200012 2.60218 2.35881 0.427979 5.02183 0.427979H10.9782C13.6412 0.427979 15.8 2.60218 15.8 5.28419C15.8 7.48796 14.3425 9.34887 12.3453 9.94245C12.3484 9.96118 12.35 9.9804 12.35 10L12.35 11C12.35 11.0928 12.3131 11.1818 12.2475 11.2475C12.1818 11.3131 12.0928 11.35 12 11.35H10.5714C10.3781 11.35 10.2214 11.1933 10.2214 11L10.2214 10.1404ZM4.35 10.0936L4.35 10.65H5.07857L5.07857 10.1404H5.02183C4.79384 10.1404 4.56955 10.1245 4.35 10.0936ZM11.1026 8.46923C12.8417 8.46923 14.26 7.04797 14.26 5.28426C14.26 3.52055 12.8417 2.09929 11.1026 2.09929C10.8414 2.09929 10.5887 2.13111 10.3474 2.19079C8.96964 2.5316 7.15469 2.5316 5.77694 2.1908C5.53567 2.13112 5.28289 2.0993 5.02178 2.0993C3.28265 2.0993 1.86433 3.52056 1.86433 5.28427C1.86433 7.04798 3.28265 8.46924 5.02178 8.46924C5.28289 8.46924 5.53568 8.43742 5.77695 8.37774C7.1547 8.03693 8.96965 8.03693 10.3474 8.37773C10.5887 8.43741 10.8415 8.46923 11.1026 8.46923ZM14.96 5.28426C14.96 7.42987 13.233 9.16923 11.1026 9.16923C10.7843 9.16923 10.4751 9.13042 10.1793 9.05725C8.91196 8.74375 7.21239 8.74376 5.94504 9.05726C5.64923 9.13043 5.34001 9.16924 5.02178 9.16924C2.89137 9.16924 1.16433 7.42988 1.16433 5.28427C1.16433 3.13866 2.89137 1.3993 5.02178 1.3993C5.34 1.3993 5.64922 1.43811 5.94502 1.51128C7.21238 1.82478 8.91195 1.82477 10.1793 1.51127C10.4751 1.4381 10.7843 1.39929 11.1026 1.39929C13.233 1.39929 14.96 3.13865 14.96 5.28426Z" fill="#A8A9BC"/>
</svg>
