<svg width="24" height="24" viewBox="0 0 24 24" fill="none" xmlns="http://www.w3.org/2000/svg">
<circle cx="12" cy="12" r="12" fill="#31315C"/>
<path d="M10.3333 8.18644V8.18644C10.1492 8.18644 10 8.0372 10 7.85311L10 3.33333C10 3.14924 10.1492 3 10.3333 3V3H13V3C13.1841 3 13.3333 3.14924 13.3333 3.33333V7.85311C13.3333 8.0372 13.1841 8.18644 13 8.18644V8.18644M10.3333 8.18644V19.7797V20C10.3333 20.5523 10.781 21 11.3333 21H12C12.5523 21 13 20.5523 13 20V19.7797V8.18644M10.3333 8.18644H13" stroke="#A8A9BC" stroke-width="0.7"/>
</svg>
