<svg width="26" height="20" viewBox="0 0 26 20" fill="none" xmlns="http://www.w3.org/2000/svg">
<path fill-rule="evenodd" clip-rule="evenodd" d="M1.00006 8.80706C1.00006 12.7315 4.15703 15.9007 8.03642 15.9007H8.05481H8.07321H8.09163H8.11006H8.1285H8.14695H8.16541H8.18389H8.20237H8.22087H8.23938H8.2579H8.27643H8.29497H8.31352H8.33208H8.35066H8.36924H8.38784H8.40645H8.42507H8.4437H8.46234H8.48099H8.49965H8.51832H8.537H8.55569H8.5744H8.59311H8.61183H8.63057H8.64931H8.66807H8.68683H8.70561H8.72439H8.74319H8.762H8.78081H8.79963H8.81847H8.83732H8.85617H8.87503H8.89391H8.91279H8.93169H8.95059H8.9695H8.98842H9.00735H9.02629H9.04524H9.0642H9.08317H9.10215H9.12113H9.14013H9.15913H9.17815H9.19717H9.2162H9.23524H9.25429H9.27335H9.29242H9.31149H9.33058H9.34967H9.36877H9.38788H9.407H9.42612H9.44526H9.4644H9.48355H9.50271H9.52188H9.54106H9.56024H9.57943H9.59863H9.61784H9.63706H9.65628H9.67551H9.69475H9.714H9.73325H9.75251H9.77178H9.79106H9.81034H9.82964H9.84894H9.86824H9.88756H9.90688H9.92621H9.94554H9.96488H9.98423H10.0036H10.023H10.0423H10.0617H10.0811H10.1005H10.1199H10.1393H10.1587H10.1781H10.1975H10.217H10.2364H10.2558H10.2753H10.2948H10.3142H10.3337H10.3532H10.3726H10.3921H10.4116H10.4311H10.4506H10.4701H10.4897H10.5092H10.5287H10.5482H10.5678H10.5873H10.6069H10.6264H10.646H10.6656H10.6851H10.7047H10.7243H10.7439H10.7635H10.7831H10.8027H10.8223H10.8419H10.8615H10.8812H10.9008H10.9204H10.9401H10.9597H10.9794H10.999H11.0187H11.0383H11.058H11.0777H11.0974H11.117H11.1367H11.1564H11.1761H11.1958H11.2155H11.2352H11.2549H11.2746H11.2944H11.3141H11.3338H11.3535H11.3733H11.393H11.4128H11.4325H11.4523H11.472H11.4918H11.5115H11.5313H11.551H11.5708H11.5906H11.6104H11.6301H11.6499H11.6697H11.6895H11.7093H11.7291H11.7489H11.7687H11.7885H11.8083H11.8281H11.8479H11.8677H11.8876H11.9074H11.9272H11.947H11.9668H11.9867H12.0065H12.0263H12.0462H12.066H12.0859H12.1057H12.1255H12.1454H12.1652H12.1851H12.2049H12.2248H12.2447H12.2645H12.2844H12.3042H12.3241H12.344H12.3638H12.3837H12.4036H12.4234H12.4433H12.4632H12.4831H12.5029H12.5228H12.5427H12.5626H12.5824H12.6023H12.6222H12.6421H12.662H12.6818H12.7017H12.7216H12.7415H12.7614H12.7813H12.8012H12.8211H12.8409H12.8608H12.8807H12.9006H12.9205H12.9404H12.9603H12.9802H13.0001H13.02H13.0398H13.0597H13.0796H13.0995H13.1194H13.1393H13.1592H13.1791H13.199H13.2188H13.2387H13.2586H13.2785H13.2984H13.3183H13.3382H13.358H13.3779H13.3978H13.4177H13.4376H13.4574H13.4773H13.4972H13.5171H13.5369H13.5568H13.5767H13.5966H13.6164H13.6363H13.6562H13.676H13.6959H13.7158H13.7356H13.7555H13.7753H13.7952H13.815H13.8349H13.8547H13.8746H13.8944H13.9143H13.9341H13.9539H13.9738H13.9936H14.0135H14.0333H14.0531H14.0729H14.0928H14.1126H14.1324H14.1522H14.172H14.1918H14.2116H14.2314H14.2512H14.271H14.2908H14.3106H14.3304H14.3502H14.37H14.3898H14.4095H14.4293H14.4491H14.4688H14.4886H14.5084H14.5281H14.5479H14.5676H14.5874H14.6071H14.6268H14.6466H14.6663H14.686H14.7058H14.7255H14.7452H14.7649H14.7846H14.8043H14.824H14.8437H14.8634H14.8831H14.9028H14.9224H14.9421H14.9618H14.9814H15.0011H15.0208H15.0404H15.06H15.0797H15.0993H15.119H15.1386H15.1582H15.1778H15.1974H15.217H15.2366H15.2562H15.2758H15.2954H15.315H15.3346H15.3541H15.3737H15.3932H15.4128H15.4323H15.4519H15.4714H15.4909H15.5105H15.53H15.5495H15.569H15.5885H15.608H15.6275H15.647H15.6664H15.6859H15.7054H15.7248H15.7443H15.7637H15.7832H15.8026H15.822H15.8414H15.8608H15.8802H15.8996H15.919H15.9384H15.9578H15.9772H15.9965H16.0159H16.0352H16.0546H16.0739H16.0932H16.1126H16.1319H16.1512H16.1705H16.1898H16.2091H16.2283H16.2476H16.2669H16.2861H16.3054H16.3246H16.3438H16.3631H16.3823H16.4015H16.4207H16.4399H16.4591H16.4782H16.4974H16.5166H16.5357H16.5549H16.574H16.5931H16.6122H16.6314H16.6505H16.6695H16.6886H16.7077H16.7268H16.7458H16.7649H16.7839H16.803H16.822H16.841H16.86H16.879H16.898H16.917H16.9359H16.9549H16.9738H16.9928H17.0117H17.0306H17.0495H17.0684H17.0873H17.1062H17.1251H17.144H17.1628H17.1817H17.2005H17.2193H17.2381H17.2569H17.2757H17.2945H17.3133H17.3321H17.3508H17.3696H17.3883H17.407H17.4257H17.4444H17.4631H17.4818H17.5005H17.5191H17.5378H17.5564H17.5751H17.5937H17.6123H17.6309H17.6495H17.668H17.6866H17.7052H17.7237H17.7422H17.7607H17.7793H17.7978H17.8162H17.8347H17.8532H17.8716H17.8901H17.9085H17.9269H17.9453H17.9637C21.8431 15.9007 25.0001 12.7315 25.0001 8.80706C25.0001 4.88262 21.8431 1.71338 17.9637 1.71338H17.9453H17.9269H17.9085H17.8901H17.8716H17.8532H17.8347H17.8162H17.7978H17.7793H17.7607H17.7422H17.7237H17.7052H17.6866H17.668H17.6495H17.6309H17.6123H17.5937H17.5751H17.5564H17.5378H17.5191H17.5005H17.4818H17.4631H17.4444H17.4257H17.407H17.3883H17.3696H17.3508H17.3321H17.3133H17.2945H17.2757H17.2569H17.2381H17.2193H17.2005H17.1817H17.1628H17.144H17.1251H17.1062H17.0873H17.0684H17.0495H17.0306H17.0117H16.9928H16.9738H16.9549H16.9359H16.917H16.898H16.879H16.86H16.841H16.822H16.803H16.7839H16.7649H16.7458H16.7268H16.7077H16.6886H16.6695H16.6505H16.6314H16.6122H16.5931H16.574H16.5549H16.5357H16.5166H16.4974H16.4782H16.4591H16.4399H16.4207H16.4015H16.3823H16.3631H16.3438H16.3246H16.3054H16.2861H16.2669H16.2476H16.2283H16.2091H16.1898H16.1705H16.1512H16.1319H16.1126H16.0932H16.0739H16.0546H16.0352H16.0159H15.9965H15.9772H15.9578H15.9384H15.919H15.8996H15.8802H15.8608H15.8414H15.822H15.8026H15.7832H15.7637H15.7443H15.7248H15.7054H15.6859H15.6664H15.647H15.6275H15.608H15.5885H15.569H15.5495H15.53H15.5105H15.4909H15.4714H15.4519H15.4323H15.4128H15.3932H15.3737H15.3541H15.3346H15.315H15.2954H15.2758H15.2562H15.2366H15.217H15.1974H15.1778H15.1582H15.1386H15.119H15.0993H15.0797H15.06H15.0404H15.0208H15.0011H14.9814H14.9618H14.9421H14.9224H14.9028H14.8831H14.8634H14.8437H14.824H14.8043H14.7846H14.7649H14.7452H14.7255H14.7058H14.686H14.6663H14.6466H14.6268H14.6071H14.5874H14.5676H14.5479H14.5281H14.5084H14.4886H14.4688H14.4491H14.4293H14.4095H14.3898H14.37H14.3502H14.3304H14.3106H14.2908H14.271H14.2512H14.2314H14.2116H14.1918H14.172H14.1522H14.1324H14.1126H14.0928H14.0729H14.0531H14.0333H14.0135H13.9936H13.9738H13.9539H13.9341H13.9143H13.8944H13.8746H13.8547H13.8349H13.815H13.7952H13.7753H13.7555H13.7356H13.7158H13.6959H13.676H13.6562H13.6363H13.6164H13.5966H13.5767H13.5568H13.5369H13.5171H13.4972H13.4773H13.4574H13.4376H13.4177H13.3978H13.3779H13.358H13.3382H13.3183H13.2984H13.2785H13.2586H13.2387H13.2188H13.199H13.1791H13.1592H13.1393H13.1194H13.0995H13.0796H13.0597H13.0398H13.02H13.0001H12.9802H12.9603H12.9404H12.9205H12.9006H12.8807H12.8608H12.8409H12.8211H12.8012H12.7813H12.7614H12.7415H12.7216H12.7017H12.6818H12.662H12.6421H12.6222H12.6023H12.5824H12.5626H12.5427H12.5228H12.5029H12.4831H12.4632H12.4433H12.4234H12.4036H12.3837H12.3638H12.344H12.3241H12.3042H12.2844H12.2645H12.2447H12.2248H12.2049H12.1851H12.1652H12.1454H12.1255H12.1057H12.0859H12.066H12.0462H12.0263H12.0065H11.9867H11.9668H11.947H11.9272H11.9074H11.8876H11.8677H11.8479H11.8281H11.8083H11.7885H11.7687H11.7489H11.7291H11.7093H11.6895H11.6697H11.6499H11.6301H11.6104H11.5906H11.5708H11.551H11.5313H11.5115H11.4918H11.472H11.4523H11.4325H11.4128H11.393H11.3733H11.3535H11.3338H11.3141H11.2944H11.2746H11.2549H11.2352H11.2155H11.1958H11.1761H11.1564H11.1367H11.117H11.0974H11.0777H11.058H11.0383H11.0187H10.999H10.9794H10.9597H10.9401H10.9204H10.9008H10.8812H10.8615H10.8419H10.8223H10.8027H10.7831H10.7635H10.7439H10.7243H10.7047H10.6851H10.6656H10.646H10.6264H10.6069H10.5873H10.5678H10.5482H10.5287H10.5092H10.4897H10.4701H10.4506H10.4311H10.4116H10.3921H10.3726H10.3532H10.3337H10.3142H10.2948H10.2753H10.2558H10.2364H10.217H10.1975H10.1781H10.1587H10.1393H10.1199H10.1005H10.0811H10.0617H10.0423H10.023H10.0036H9.98423H9.96488H9.94554H9.92621H9.90688H9.88756H9.86824H9.84894H9.82964H9.81034H9.79106H9.77178H9.75251H9.73325H9.714H9.69475H9.67551H9.65628H9.63706H9.61784H9.59863H9.57943H9.56024H9.54106H9.52188H9.50271H9.48355H9.4644H9.44526H9.42612H9.407H9.38788H9.36877H9.34967H9.33058H9.31149H9.29242H9.27335H9.25429H9.23524H9.2162H9.19717H9.17815H9.15913H9.14013H9.12113H9.10215H9.08317H9.0642H9.04524H9.02629H9.00735H8.98842H8.9695H8.95059H8.93169H8.91279H8.89391H8.87503H8.85617H8.83732H8.81847H8.79963H8.78081H8.76199H8.74319H8.72439H8.70561H8.68683H8.66807H8.64931H8.63057H8.61183H8.59311H8.5744H8.55569H8.537H8.51832H8.49965H8.48099H8.46234H8.4437H8.42507H8.40645H8.38784H8.36924H8.35066H8.33208H8.31352H8.29497H8.27643H8.2579H8.23938H8.22087H8.20237H8.18389H8.16541H8.14695H8.1285H8.11006H8.09163H8.07321H8.05481H8.03642C4.15703 1.71338 1.00006 4.88262 1.00006 8.80706ZM17.5238 16.9007H17.9637C18.2322 16.9007 18.4976 16.8875 18.7593 16.8616V18.2961H17.5238V16.9007ZM16.5238 16.9007H9.47624V18.7961C9.47624 19.0722 9.25238 19.2961 8.97624 19.2961H6.7408C6.46465 19.2961 6.2408 19.0722 6.2408 18.7961V16.698C2.66686 15.8765 6.10352e-05 12.6554 6.10352e-05 8.80706C6.10352e-05 4.33704 3.59806 0.713379 8.03642 0.713379H17.9637C22.4021 0.713379 26.0001 4.33704 26.0001 8.80706C26.0001 12.6554 23.3332 15.8765 19.7593 16.698V18.7961C19.7593 19.0722 19.5354 19.2961 19.2593 19.2961H17.0238C16.7477 19.2961 16.5238 19.0722 16.5238 18.7961V16.9007ZM7.2408 16.8616V18.2961H8.47624V16.9007H8.03642C7.76793 16.9007 7.50252 16.8875 7.2408 16.8616ZM18.171 14.2821C21.1627 14.2821 23.6001 11.8376 23.6001 8.8072C23.6001 5.77676 21.1627 3.33225 18.171 3.33225C17.2111 3.33225 16.3119 3.58261 15.5311 4.02174C14.0888 4.83294 12.1185 4.83294 10.6762 4.02175C9.89543 3.58263 8.99625 3.33228 8.03634 3.33228C5.04463 3.33228 2.60726 5.77678 2.60726 8.80722C2.60726 11.8377 5.04463 14.2822 8.03634 14.2822C8.99626 14.2822 9.89545 14.0318 10.6762 13.5927C12.1185 12.7815 14.0888 12.7815 15.5311 13.5927C16.3119 14.0318 17.2111 14.2821 18.171 14.2821ZM24.6001 8.8072C24.6001 12.3832 21.7217 15.2821 18.171 15.2821C17.0347 15.2821 15.9672 14.9853 15.0409 14.4643C13.903 13.8243 12.3043 13.8243 11.1664 14.4643C10.2401 14.9853 9.17266 15.2822 8.03634 15.2822C4.48566 15.2822 1.60726 12.3832 1.60726 8.80722C1.60726 5.23121 4.48566 2.33228 8.03634 2.33228C9.17265 2.33228 10.2401 2.62917 11.1664 3.15014C12.3043 3.79014 13.903 3.79014 15.0409 3.15014C15.9672 2.62915 17.0346 2.33225 18.171 2.33225C21.7217 2.33225 24.6001 5.23118 24.6001 8.8072Z" fill="url(#paint0_linear_2594_5357)"/>
<defs>
<linearGradient id="paint0_linear_2594_5357" x1="3.25006" y1="19.2961" x2="23.111" y2="8.76396" gradientUnits="userSpaceOnUse">
<stop stop-color="#3AED97"/>
<stop offset="1" stop-color="#00FFE0"/>
</linearGradient>
</defs>
</svg>
