<svg width="16" height="19" viewBox="0 0 16 19" fill="none" xmlns="http://www.w3.org/2000/svg">
<path fill-rule="evenodd" clip-rule="evenodd" d="M8 1.64995C6.20507 1.64995 4.75 3.10503 4.75 4.89995H4.05C4.05 2.71843 5.81848 0.949951 8 0.949951C10.1815 0.949951 11.95 2.71843 11.95 4.89995H11.25C11.25 3.10503 9.79493 1.64995 8 1.64995ZM6.55 4.89995C6.55 4.09914 7.19919 3.44995 8 3.44995C8.80081 3.44995 9.45 4.09914 9.45 4.89995H10.15C10.15 3.71254 9.18741 2.74995 8 2.74995C6.81259 2.74995 5.85 3.71254 5.85 4.89995H6.55ZM3.61421 7.34995C3.44182 7.34995 3.27649 7.41843 3.15459 7.54033L2.84497 7.84995H13.155L12.8454 7.54033C12.7235 7.41843 12.5582 7.34995 12.3858 7.34995H3.61421ZM14.1544 7.85939L13.3404 7.04536C13.0872 6.79218 12.7438 6.64995 12.3858 6.64995H3.61421C3.25617 6.64995 2.91279 6.79218 2.65962 7.04536L1.84558 7.85939C1.22808 7.93547 0.75 8.46188 0.75 9.09995V13.2C0.75 13.9455 1.35441 14.55 2.1 14.55H5.85V16.1857C5.85 16.3581 5.78152 16.5235 5.65962 16.6454L4.87678 17.4282C4.73157 17.5734 4.65 17.7703 4.65 17.9757C4.65 18.4033 4.99665 18.75 5.42426 18.75H10.5757C11.0034 18.75 11.35 18.4033 11.35 17.9757C11.35 17.7703 11.2684 17.5734 11.1232 17.4282L10.3404 16.6454C10.2185 16.5235 10.15 16.3581 10.15 16.1857V14.55H13.9C14.6456 14.55 15.25 13.9455 15.25 13.2V9.09995C15.25 8.46188 14.7719 7.93547 14.1544 7.85939ZM6.55 14.55V16.1857C6.55 16.5438 6.40777 16.8872 6.15459 17.1403L5.37175 17.9232C5.35782 17.9371 5.35 17.956 5.35 17.9757C5.35 18.0167 5.38325 18.0499 5.42426 18.0499H10.5757C10.6168 18.0499 10.65 18.0167 10.65 17.9757C10.65 17.956 10.6422 17.9371 10.6282 17.9232L9.84541 17.1403C9.59223 16.8872 9.45 16.5438 9.45 16.1857V14.55H6.55ZM13.855 8.54995H2C1.69624 8.54995 1.45 8.79619 1.45 9.09995V13.2C1.45 13.5589 1.74101 13.85 2.1 13.85H6.2H9.8H13.9C14.259 13.85 14.55 13.5589 14.55 13.2V9.09995C14.55 8.79619 14.3038 8.54995 14 8.54995H13.855ZM5 9.74995C4.36487 9.74995 3.85 10.2648 3.85 10.9C3.85 11.5351 4.36487 12.05 5 12.05C5.63513 12.05 6.15 11.5351 6.15 10.9C6.15 10.2648 5.63513 9.74995 5 9.74995ZM3.15 10.9C3.15 9.87823 3.97827 9.04995 5 9.04995C6.02173 9.04995 6.85 9.87823 6.85 10.9C6.85 11.9217 6.02173 12.75 5 12.75C3.97827 12.75 3.15 11.9217 3.15 10.9ZM9.85 10.9C9.85 10.2648 10.3649 9.74995 11 9.74995C11.6351 9.74995 12.15 10.2648 12.15 10.9C12.15 11.5351 11.6351 12.05 11 12.05C10.3649 12.05 9.85 11.5351 9.85 10.9ZM11 9.04995C9.97827 9.04995 9.15 9.87823 9.15 10.9C9.15 11.9217 9.97827 12.75 11 12.75C12.0217 12.75 12.85 11.9217 12.85 10.9C12.85 9.87823 12.0217 9.04995 11 9.04995Z" fill="#A8A9BC"/>
</svg>
