<svg width="1311" height="758" viewBox="0 0 1311 758" fill="none" xmlns="http://www.w3.org/2000/svg">
<g opacity="0.51">
<g opacity="0.51">
<path opacity="0.51" d="M1104.47 426.182L1095.19 422.584C1094.21 422.204 1093.72 421.097 1094.1 420.117L1097.69 410.827C1098.07 409.847 1099.18 409.358 1100.16 409.737L1109.44 413.335C1110.41 413.715 1110.9 414.821 1110.52 415.802L1106.93 425.091C1106.55 426.073 1105.45 426.562 1104.47 426.182ZM1099.92 410.36C1099.28 410.114 1098.56 410.431 1098.31 411.069L1094.72 420.358C1094.47 420.996 1094.79 421.715 1095.43 421.963L1104.71 425.561C1105.34 425.809 1106.06 425.49 1106.31 424.852L1109.9 415.563C1110.15 414.925 1109.83 414.205 1109.19 413.958L1099.92 410.36Z" fill="white"/>
<path opacity="0.51" d="M426.494 457.573L417.216 453.975C416.237 453.596 415.75 452.489 416.128 451.509L419.721 442.219C420.1 441.239 421.205 440.75 422.184 441.129L431.462 444.727C432.441 445.107 432.929 446.213 432.549 447.193L428.957 456.483C428.578 457.465 427.473 457.954 426.494 457.573ZM421.943 441.752C421.306 441.505 420.588 441.823 420.34 442.46L416.748 451.75C416.501 452.388 416.819 453.107 417.456 453.355L426.734 456.953C427.37 457.2 428.089 456.882 428.336 456.244L431.928 446.954C432.175 446.317 431.857 445.597 431.22 445.35L421.943 441.752Z" fill="white"/>
</g>
<g opacity="0.51">
<path opacity="0.51" d="M922.911 695.715L907.988 698.394C906.413 698.676 904.903 697.623 904.62 696.047L901.944 681.105C901.662 679.528 902.714 678.015 904.287 677.733L919.21 675.054C920.785 674.771 922.296 675.824 922.578 677.401L925.254 692.342C925.538 693.919 924.487 695.432 922.911 695.715ZM904.468 678.731C903.444 678.915 902.761 679.899 902.944 680.925L905.62 695.867C905.803 696.893 906.787 697.578 907.809 697.394L922.733 694.715C923.757 694.531 924.441 693.546 924.258 692.521L921.582 677.579C921.399 676.553 920.415 675.869 919.391 676.052L904.468 678.731Z" fill="white"/>
</g>
<g opacity="0.51">
<path opacity="0.51" d="M1307.47 414.958H1289.45C1287.55 414.958 1286 413.409 1286 411.504V393.454C1286 391.549 1287.55 390 1289.45 390H1307.47C1309.38 390 1310.92 391.549 1310.92 393.454V411.503C1310.93 413.409 1309.38 414.958 1307.47 414.958ZM1289.45 391.207C1288.21 391.207 1287.21 392.216 1287.21 393.454V411.503C1287.21 412.741 1288.21 413.75 1289.45 413.75H1307.47C1308.71 413.75 1309.72 412.741 1309.72 411.503V393.454C1309.72 392.216 1308.71 391.207 1307.47 391.207H1289.45Z" fill="white"/>
<path opacity="0.51" d="M607.182 646.833L594.435 634.087C593.091 632.742 593.092 630.553 594.44 629.205L607.202 616.442C608.55 615.095 610.739 615.094 612.084 616.438L624.83 629.185C626.175 630.53 626.174 632.719 624.826 634.067L612.064 646.829C610.717 648.178 608.528 648.179 607.182 646.833ZM611.23 617.292C610.356 616.418 608.931 616.419 608.055 617.295L595.293 630.057C594.417 630.933 594.416 632.358 595.29 633.232L608.036 645.978C608.911 646.853 610.336 646.852 611.212 645.976L623.974 633.214C624.85 632.338 624.851 630.913 623.976 630.038L611.23 617.292Z" fill="white"/>
<path opacity="0.51" d="M971.185 159.833L958.438 147.087C957.094 145.742 957.095 143.553 958.442 142.205L971.205 129.443C972.553 128.095 974.742 128.094 976.086 129.439L988.833 142.185C990.178 143.53 990.177 145.719 988.829 147.067L976.067 159.829C974.72 161.178 972.531 161.179 971.185 159.833ZM975.233 130.292C974.359 129.418 972.934 129.419 972.058 130.295L959.296 143.057C958.42 143.933 958.419 145.358 959.293 146.232L972.039 158.978C972.914 159.853 974.339 159.852 975.215 158.976L987.977 146.214C988.853 145.338 988.854 143.913 987.979 143.038L975.233 130.292Z" fill="white"/>
</g>
<g opacity="0.51">
<path opacity="0.51" d="M319.989 463.798L307.407 450.889C306.08 449.527 306.11 447.338 307.474 446.009L320.4 433.411C321.765 432.081 323.954 432.108 325.281 433.47L337.862 446.379C339.19 447.741 339.161 449.93 337.796 451.26L324.871 463.857C323.507 465.189 321.317 465.162 319.989 463.798ZM324.416 434.312C323.554 433.427 322.129 433.41 321.242 434.274L308.317 446.871C307.43 447.736 307.41 449.161 308.273 450.046L320.854 462.955C321.718 463.841 323.142 463.858 324.029 462.993L336.955 450.397C337.842 449.532 337.861 448.107 336.997 447.221L324.416 434.312Z" fill="white"/>
<path opacity="0.51" d="M136.357 181.643L115.433 176.582C113.226 176.049 111.865 173.816 112.4 171.605L117.467 150.654C118.002 148.443 120.232 147.079 122.439 147.613L143.363 152.673C145.571 153.207 146.932 155.439 146.397 157.651L141.331 178.6C140.797 180.813 138.567 182.177 136.357 181.643ZM122.101 149.014C120.666 148.667 119.214 149.555 118.866 150.993L113.8 171.942C113.452 173.38 114.338 174.833 115.773 175.18L136.696 180.24C138.132 180.587 139.584 179.699 139.931 178.261L144.998 157.312C145.345 155.874 144.46 154.421 143.024 154.074L122.101 149.014Z" fill="white"/>
<path opacity="0.51" d="M82.1861 673.86L79.512 659.458C79.2299 657.939 80.238 656.473 81.7603 656.19L96.1814 653.512C97.7037 653.23 99.1709 654.236 99.453 655.755L102.127 670.158C102.409 671.678 101.401 673.144 99.879 673.426L85.4588 676.104C83.9357 676.388 82.4685 675.381 82.1861 673.86ZM98.4883 655.934C98.305 654.947 97.3501 654.292 96.3603 654.476L81.9402 657.153C80.9504 657.337 80.2942 658.291 80.4776 659.279L83.1517 673.681C83.3353 674.669 84.2902 675.324 85.2799 675.14L99.7001 672.463C100.69 672.279 101.346 671.325 101.162 670.337L98.4883 655.934Z" fill="white"/>
<path opacity="0.51" d="M609.915 233.121L602.432 215.695C601.642 213.857 602.497 211.718 604.339 210.927L621.788 203.434C623.629 202.643 625.769 203.496 626.559 205.334L634.042 222.759C634.832 224.599 633.976 226.737 632.135 227.528L614.687 235.021C612.845 235.814 610.705 234.961 609.915 233.121ZM625.391 205.835C624.878 204.64 623.486 204.086 622.288 204.6L604.841 212.092C603.643 212.607 603.087 213.998 603.6 215.193L611.083 232.619C611.597 233.815 612.989 234.37 614.187 233.855L631.634 226.363C632.832 225.848 633.388 224.457 632.875 223.261L625.391 205.835Z" fill="white"/>
</g>
<g opacity="0.51">
<path opacity="0.51" d="M1142.84 724.897H1120.65C1119.87 724.897 1119.17 724.493 1118.78 723.817C1118.39 723.138 1118.39 722.332 1118.78 721.654L1129.88 702.413C1130.27 701.736 1130.96 701.33 1131.75 701.33C1132.53 701.33 1133.23 701.736 1133.62 702.413L1144.71 721.654C1145.1 722.332 1145.1 723.138 1144.71 723.817C1144.32 724.493 1143.62 724.897 1142.84 724.897ZM1131.75 702.536C1131.4 702.536 1131.09 702.715 1130.92 703.016L1119.83 722.257C1119.65 722.556 1119.65 722.912 1119.83 723.212C1120 723.511 1120.31 723.689 1120.65 723.689H1142.84C1143.19 723.689 1143.49 723.511 1143.67 723.212C1143.84 722.912 1143.84 722.556 1143.67 722.257L1132.57 703.016C1132.4 702.716 1132.09 702.536 1131.75 702.536Z" fill="white"/>
</g>
<g opacity="0.51">
<path opacity="0.51" d="M1043.24 372.509L1021.61 367.551C1020.84 367.377 1020.25 366.827 1020.02 366.079C1019.79 365.331 1019.97 364.544 1020.5 363.971L1035.61 347.693C1036.14 347.121 1036.91 346.882 1037.67 347.056C1038.43 347.231 1039.02 347.781 1039.25 348.529L1045.78 369.763C1046.01 370.511 1045.83 371.298 1045.3 371.871C1044.77 372.445 1044 372.683 1043.24 372.509ZM1037.4 348.233C1037.07 348.155 1036.73 348.262 1036.49 348.515L1021.39 364.793C1021.15 365.047 1021.08 365.395 1021.18 365.724C1021.28 366.055 1021.54 366.298 1021.87 366.374L1043.5 371.332C1043.84 371.409 1044.18 371.304 1044.42 371.05C1044.65 370.797 1044.73 370.449 1044.63 370.119L1038.1 348.885C1038 348.554 1037.74 348.31 1037.4 348.233Z" fill="white"/>
<path opacity="0.51" d="M503.311 163.509L481.681 158.551C480.92 158.377 480.328 157.827 480.098 157.079C479.868 156.331 480.048 155.544 480.58 154.971L495.682 138.693C496.212 138.121 496.985 137.882 497.746 138.056C498.508 138.231 499.1 138.781 499.329 139.529L505.856 160.763C506.087 161.511 505.907 162.298 505.375 162.871C504.845 163.445 504.072 163.683 503.311 163.509ZM497.478 139.233C497.142 139.155 496.802 139.262 496.565 139.515L481.464 155.793C481.23 156.047 481.15 156.395 481.25 156.724C481.353 157.055 481.613 157.298 481.95 157.374L503.58 162.332C503.916 162.409 504.256 162.304 504.493 162.05C504.726 161.797 504.806 161.449 504.705 161.119L498.178 139.885C498.076 139.554 497.816 139.31 497.478 139.233Z" fill="white"/>
<path opacity="0.51" d="M248.777 354.272L226.314 374.078C225.524 374.775 224.447 374.988 223.434 374.646C222.42 374.303 221.683 373.48 221.462 372.441L215.143 342.92C214.92 341.883 215.259 340.844 216.048 340.147C216.84 339.45 217.918 339.237 218.93 339.58L247.709 349.295C248.723 349.636 249.46 350.459 249.683 351.499C249.906 352.537 249.566 353.575 248.777 354.272ZM217.151 341.377C216.801 341.685 216.654 342.143 216.751 342.604L223.07 372.124C223.17 372.583 223.495 372.946 223.941 373.099C224.39 373.249 224.864 373.156 225.212 372.847L247.675 353.041C248.025 352.733 248.174 352.276 248.076 351.815C247.977 351.357 247.652 350.993 247.205 350.842L218.425 341.127C217.977 340.976 217.501 341.068 217.151 341.377Z" fill="white"/>
<path opacity="0.51" d="M445.303 371.876L436.841 348.344C436.543 347.516 436.71 346.615 437.286 345.933C437.865 345.252 438.731 344.933 439.605 345.081L464.466 349.26C465.34 349.407 466.042 349.99 466.34 350.817C466.638 351.646 466.471 352.548 465.894 353.228L449.495 372.58C448.918 373.261 448.053 373.58 447.177 373.433C446.302 373.287 445.601 372.704 445.303 371.876ZM465.046 351.294C464.915 350.928 464.605 350.673 464.217 350.607L439.356 346.427C438.97 346.363 438.587 346.504 438.332 346.803C438.077 347.105 438.003 347.502 438.136 347.867L446.598 371.4C446.729 371.766 447.038 372.022 447.426 372.089C447.812 372.153 448.195 372.012 448.449 371.712L464.848 352.36C465.104 352.059 465.178 351.662 465.046 351.294Z" fill="white"/>
<path opacity="0.51" d="M313.764 623.065L309.861 603.199C309.723 602.5 309.966 601.799 310.511 601.324C311.057 600.849 311.789 600.7 312.471 600.925L331.859 607.301C332.54 607.525 333.031 608.077 333.169 608.776C333.306 609.476 333.062 610.177 332.517 610.651L317.033 624.139C316.488 624.615 315.757 624.764 315.074 624.54C314.391 624.316 313.901 623.764 313.764 623.065ZM332.075 609C332.014 608.691 331.797 608.449 331.495 608.348L312.107 601.972C311.806 601.873 311.483 601.939 311.242 602.148C311.001 602.358 310.893 602.667 310.955 602.976L314.858 622.842C314.918 623.151 315.134 623.394 315.437 623.494C315.738 623.592 316.061 623.526 316.302 623.317L331.786 609.829C332.027 609.619 332.136 609.31 332.075 609Z" fill="white"/>
<path opacity="0.51" d="M711.311 697.509L689.681 692.551C688.92 692.377 688.328 691.827 688.098 691.079C687.868 690.331 688.048 689.544 688.58 688.971L703.682 672.693C704.212 672.121 704.985 671.882 705.746 672.056C706.508 672.231 707.1 672.781 707.329 673.529L713.856 694.763C714.087 695.511 713.907 696.298 713.375 696.871C712.845 697.445 712.072 697.683 711.311 697.509ZM705.478 673.233C705.142 673.155 704.802 673.262 704.565 673.515L689.464 689.793C689.23 690.047 689.15 690.395 689.25 690.724C689.353 691.055 689.613 691.298 689.95 691.374L711.58 696.332C711.916 696.409 712.256 696.304 712.493 696.05C712.726 695.797 712.806 695.449 712.705 695.119L706.178 673.885C706.076 673.554 705.816 673.31 705.478 673.233Z" fill="white"/>
</g>
<g opacity="0.51">
<path opacity="0.51" d="M1277.21 658.547C1272.37 658.547 1268.42 654.599 1268.42 649.746C1268.42 644.894 1272.37 640.947 1277.21 640.947C1282.06 640.947 1286 644.895 1286 649.746C1286 654.599 1282.06 658.547 1277.21 658.547ZM1277.21 641.788C1272.83 641.788 1269.26 645.359 1269.26 649.746C1269.26 654.135 1272.83 657.704 1277.21 657.704C1281.59 657.704 1285.16 654.134 1285.16 649.746C1285.16 645.359 1281.59 641.788 1277.21 641.788Z" fill="white"/>
</g>
<g opacity="0.51">
<path opacity="0.51" d="M913.6 383.384C906.652 383.384 901 377.724 901 370.765C901 363.809 906.652 358.149 913.6 358.149C920.549 358.149 926.2 363.809 926.2 370.765C926.2 377.724 920.549 383.384 913.6 383.384ZM913.6 359.357C907.317 359.357 902.206 364.476 902.206 370.765C902.206 377.057 907.317 382.175 913.6 382.175C919.883 382.175 924.995 377.057 924.995 370.765C924.995 364.476 919.883 359.357 913.6 359.357Z" fill="white"/>
<path opacity="0.51" d="M364.6 300.235C357.652 300.235 352 294.574 352 287.616C352 280.66 357.652 275 364.6 275C371.549 275 377.2 280.66 377.2 287.616C377.2 294.574 371.549 300.235 364.6 300.235ZM364.6 276.207C358.317 276.207 353.206 281.327 353.206 287.616C353.206 293.908 358.317 299.026 364.6 299.026C370.883 299.026 375.995 293.908 375.995 287.616C375.995 281.327 370.883 276.207 364.6 276.207Z" fill="white"/>
<path opacity="0.51" d="M709.999 154C700.074 154 692 145.925 692 135.998C692 126.075 700.074 118 709.999 118C719.926 118 728 126.075 728 135.998C728 145.925 719.926 154 709.999 154ZM709.999 119.722C701.025 119.722 693.723 127.026 693.723 135.998C693.723 144.974 701.025 152.276 709.999 152.276C718.975 152.276 726.277 144.974 726.277 135.998C726.277 127.026 718.975 119.722 709.999 119.722Z" fill="white"/>
<path opacity="0.51" d="M215.999 712C204.971 712 196 703.028 196 691.998C196 680.972 204.971 672 215.999 672C227.029 672 236 680.972 236 691.998C236 703.028 227.029 712 215.999 712ZM215.999 673.914C206.027 673.914 197.914 682.029 197.914 691.998C197.914 701.971 206.027 710.084 215.999 710.084C225.973 710.084 234.086 701.971 234.086 691.998C234.086 682.029 225.973 673.914 215.999 673.914Z" fill="white"/>
<path opacity="0.51" d="M575.999 752C564.971 752 556 743.028 556 731.998C556 720.972 564.971 712 575.999 712C587.029 712 596 720.972 596 731.998C596 743.028 587.029 752 575.999 752ZM575.999 713.914C566.027 713.914 557.914 722.028 557.914 731.998C557.914 741.971 566.027 750.084 575.999 750.084C585.973 750.084 594.086 741.971 594.086 731.998C594.086 722.028 585.973 713.914 575.999 713.914Z" fill="white"/>
<path opacity="0.51" d="M90.9994 388C83.831 388 78 382.168 78 374.999C78 367.832 83.831 362 90.9994 362C98.169 362 104 367.832 104 374.999C104 382.168 98.169 388 90.9994 388ZM90.9994 363.244C84.5177 363.244 79.2441 368.519 79.2441 374.999C79.2441 381.481 84.5177 386.755 90.9994 386.755C97.4823 386.755 102.756 381.481 102.756 374.999C102.756 368.519 97.4823 363.244 90.9994 363.244Z" fill="white"/>
<path opacity="0.51" d="M447.999 586C440.831 586 435 580.168 435 572.999C435 565.832 440.831 560 447.999 560C455.169 560 461 565.832 461 572.999C461 580.168 455.169 586 447.999 586ZM447.999 561.244C441.518 561.244 436.244 566.519 436.244 572.999C436.244 579.481 441.518 584.755 447.999 584.755C454.482 584.755 459.756 579.481 459.756 572.999C459.756 566.519 454.482 561.244 447.999 561.244Z" fill="white"/>
<path opacity="0.51" d="M1198.5 194C1188.3 194 1180 185.701 1180 175.498C1180 165.299 1188.3 157 1198.5 157C1208.7 157 1217 165.299 1217 175.498C1217 185.701 1208.7 194 1198.5 194ZM1198.5 158.77C1189.28 158.77 1181.77 166.277 1181.77 175.498C1181.77 184.723 1189.28 192.228 1198.5 192.228C1207.72 192.228 1215.23 184.723 1215.23 175.498C1215.23 166.277 1207.72 158.77 1198.5 158.77Z" fill="white"/>
<path opacity="0.51" d="M1174.6 366.235C1167.65 366.235 1162 360.574 1162 353.616C1162 346.66 1167.65 341 1174.6 341C1181.55 341 1187.2 346.66 1187.2 353.616C1187.2 360.574 1181.55 366.235 1174.6 366.235ZM1174.6 342.207C1168.32 342.207 1163.21 347.327 1163.21 353.616C1163.21 359.908 1168.32 365.026 1174.6 365.026C1180.88 365.026 1185.99 359.908 1185.99 353.616C1185.99 347.327 1180.88 342.207 1174.6 342.207Z" fill="white"/>
<path opacity="0.51" d="M827.6 656.235C820.652 656.235 815 650.574 815 643.616C815 636.66 820.652 631 827.6 631C834.549 631 840.2 636.66 840.2 643.616C840.2 650.574 834.549 656.235 827.6 656.235ZM827.6 632.207C821.317 632.207 816.206 637.327 816.206 643.616C816.206 649.908 821.317 655.026 827.6 655.026C833.883 655.026 838.995 649.908 838.995 643.616C838.995 637.327 833.883 632.207 827.6 632.207Z" fill="white"/>
</g>
<g opacity="0.51">
<path opacity="0.51" d="M1208.38 451.935L1194.22 442.67L1198.32 462.227L1187.2 454.954L1186.29 456.347L1198.8 464.531L1198.83 464.671L1190.66 477.196L1192.05 478.107L1199.31 466.976L1199.33 467.093L1203.43 486.65L1212.48 471.493L1201.14 464.073L1208.38 451.935ZM1196.67 446.262L1206.14 452.453L1200.09 462.582L1196.67 446.262ZM1204.18 482.139L1200.77 465.819L1210.23 472.011L1204.18 482.139Z" fill="white"/>
<path opacity="0.51" d="M936.299 537.28L925.911 530.484L928.915 544.829L920.761 539.493L920.094 540.516L929.269 546.519L929.291 546.622L923.296 555.809L924.317 556.477L929.646 548.312L929.664 548.398L932.667 562.743L939.305 551.625L930.986 546.182L936.299 537.28ZM927.709 533.118L934.651 537.659L930.216 545.09L927.709 533.118ZM933.218 559.435L930.711 547.463L937.653 552.004L933.218 559.435Z" fill="white"/>
<path opacity="0.51" d="M1129.3 244.534L1113.08 234L1117.77 256.234L1105.04 247.964L1104 249.549L1118.33 258.854L1118.36 259.013L1109 273.253L1110.59 274.287L1118.91 261.633L1118.94 261.766L1123.63 284L1134 266.768L1121.01 258.332L1129.3 244.534ZM1115.89 238.083L1126.73 245.122L1119.8 256.638L1115.89 238.083ZM1124.49 278.872L1120.58 260.317L1131.42 267.356L1124.49 278.872Z" fill="white"/>
<path opacity="0.51" d="M841.305 180.534L825.083 170L829.773 192.234L817.04 183.964L815.999 185.549L830.327 194.854L830.361 195.013L820.998 209.253L822.593 210.287L830.914 197.633L830.943 197.766L835.633 220L845.999 202.768L833.008 194.332L841.305 180.534ZM827.89 174.083L838.731 181.122L831.805 192.638L827.89 174.083ZM836.494 214.872L832.579 196.317L843.419 203.356L836.494 214.872Z" fill="white"/>
<path opacity="0.51" d="M1304.26 509.77L1292.43 506.015L1299.17 519.026L1289.88 516.078L1289.51 517.243L1299.96 520.56L1300.01 520.653L1296.7 531.115L1297.86 531.485L1300.8 522.188L1300.84 522.265L1307.58 535.276L1311 522.782L1301.53 519.775L1304.26 509.77ZM1294.87 508.07L1302.77 510.579L1300.49 518.928L1294.87 508.07ZM1307.23 531.94L1301.61 521.082L1309.51 523.591L1307.23 531.94Z" fill="white"/>
<path opacity="0.51" d="M795.744 691.755L783.915 688L790.654 701.011L781.369 698.063L780.999 699.229L791.447 702.545L791.496 702.638L788.183 713.1L789.346 713.47L792.289 704.173L792.329 704.25L799.068 717.261L802.482 704.767L793.01 701.761L795.744 691.755ZM786.353 690.055L794.257 692.564L791.977 700.913L786.353 690.055ZM798.716 713.925L793.092 703.067L800.996 705.576L798.716 713.925Z" fill="white"/>
<path opacity="0.51" d="M175.595 509.855L156.56 505.06L168.407 524.853L153.466 521.09L152.989 522.953L169.802 527.188L169.887 527.329L165.619 544.055L167.489 544.527L171.282 529.664L171.352 529.781L183.2 549.574L187.441 529.649L172.199 525.811L175.595 509.855ZM160.601 508.059L173.321 511.262L170.488 524.577L160.601 508.059ZM182.336 544.371L172.449 527.853L185.169 531.057L182.336 544.371Z" fill="white"/>
<path opacity="0.51" d="M452.401 682.201L440.676 678.707L447.524 691.347L438.322 688.605L437.975 689.752L448.331 692.838L448.38 692.929L445.275 703.229L446.427 703.573L449.186 694.42L449.226 694.495L456.074 707.135L459.248 694.843L449.86 692.045L452.401 682.201ZM443.113 680.682L450.947 683.016L448.827 691.231L443.113 680.682ZM455.675 703.873L449.961 693.324L457.795 695.658L455.675 703.873Z" fill="white"/>
<path opacity="0.51" d="M286.56 159.311L268.899 160.154L284.286 174.117L270.423 174.78L270.499 176.51L286.098 175.765L286.208 175.865L286.902 191.398L288.638 191.315L288.021 177.512L288.112 177.596L303.499 191.559L301.945 173.276L287.804 173.952L286.56 159.311ZM273.167 161.682L284.968 161.119L286.007 173.335L273.167 161.682ZM301.394 187.3L288.554 175.647L300.355 175.083L301.394 187.3Z" fill="white"/>
<path opacity="0.51" d="M1010.79 735.357L1015.72 724.117L1001.37 717.116L1007.93 733.962L1007.97 734.062L996.969 729.228L996.365 730.608L1008.75 736.049L1008.79 736.169L1003.36 748.567L1004.74 749.172L1009.57 738.153L1016.13 754.999L1022.28 740.961L1010.79 735.357ZM1010.73 737.005L1020.32 741.683L1016.21 751.063L1010.73 737.005ZM1013.76 724.838L1009.65 734.217L1004.17 720.159L1013.76 724.838Z" fill="white"/>
</g>
<g opacity="0.51">
<path opacity="0.51" d="M1299.95 461.918L1292.22 469.879C1291.94 470.159 1291.55 470.269 1291.18 470.173C1290.8 470.077 1290.51 469.795 1290.4 469.419L1287.39 458.728C1287.28 458.353 1287.38 457.96 1287.65 457.68C1287.93 457.4 1288.31 457.29 1288.69 457.387L1299.45 460.117C1299.83 460.212 1300.11 460.495 1300.22 460.87C1300.32 461.247 1300.22 461.638 1299.95 461.918ZM1288.08 458.102C1287.96 458.226 1287.92 458.399 1287.97 458.565L1290.98 469.256C1291.03 469.422 1291.16 469.545 1291.32 469.589C1291.49 469.631 1291.66 469.583 1291.78 469.458L1299.52 461.498C1299.64 461.374 1299.68 461.201 1299.64 461.034C1299.59 460.868 1299.46 460.745 1299.29 460.701L1288.54 457.971C1288.38 457.929 1288.2 457.977 1288.08 458.102Z" fill="white"/>
</g>
<g opacity="0.51">
<path opacity="0.51" d="M1035.13 480.963L1020.74 495.773C1020.23 496.295 1019.51 496.499 1018.8 496.32C1018.1 496.14 1017.56 495.616 1017.36 494.916L1011.75 475.028C1011.55 474.329 1011.74 473.598 1012.24 473.078C1012.75 472.556 1013.47 472.352 1014.18 472.531L1034.18 477.61C1034.89 477.789 1035.43 478.313 1035.63 479.012C1035.82 479.713 1035.64 480.442 1035.13 480.963ZM1013.05 473.86C1012.82 474.091 1012.74 474.413 1012.83 474.722L1018.44 494.611C1018.53 494.92 1018.76 495.15 1019.08 495.23C1019.39 495.309 1019.71 495.218 1019.93 494.989L1034.33 480.179C1034.55 479.948 1034.63 479.627 1034.54 479.317C1034.46 479.007 1034.22 478.777 1033.91 478.697L1013.9 473.618C1013.59 473.54 1013.27 473.63 1013.05 473.86Z" fill="white"/>
<path opacity="0.51" d="M1027.46 254.496L1013.06 269.306C1012.56 269.827 1011.83 270.032 1011.13 269.853C1010.42 269.673 1009.89 269.149 1009.69 268.449L1004.08 248.56C1003.88 247.861 1004.06 247.131 1004.57 246.61C1005.08 246.089 1005.8 245.885 1006.51 246.063L1026.51 251.143C1027.22 251.322 1027.75 251.846 1027.95 252.545C1028.15 253.245 1027.97 253.974 1027.46 254.496ZM1005.37 247.393C1005.15 247.623 1005.07 247.946 1005.16 248.255L1010.77 268.143C1010.86 268.452 1011.09 268.683 1011.4 268.763C1011.71 268.841 1012.03 268.75 1012.26 268.521L1026.65 253.711C1026.88 253.48 1026.96 253.159 1026.87 252.849C1026.78 252.54 1026.55 252.309 1026.24 252.23L1006.23 247.15C1005.92 247.073 1005.6 247.162 1005.37 247.393Z" fill="white"/>
<path opacity="0.51" d="M898.459 430.496L884.062 445.306C883.556 445.827 882.832 446.031 882.128 445.853C881.424 445.673 880.886 445.149 880.69 444.449L875.078 424.56C874.88 423.861 875.065 423.131 875.571 422.61C876.079 422.089 876.802 421.885 877.505 422.063L897.512 427.143C898.216 427.322 898.754 427.846 898.953 428.545C899.15 429.245 898.965 429.974 898.459 430.496ZM876.374 423.393C876.15 423.623 876.069 423.946 876.156 424.255L881.768 444.143C881.856 444.452 882.092 444.683 882.403 444.762C882.714 444.841 883.034 444.75 883.257 444.521L897.653 429.711C897.877 429.48 897.958 429.159 897.871 428.849C897.783 428.54 897.547 428.309 897.236 428.229L877.229 423.15C876.918 423.073 876.598 423.162 876.374 423.393Z" fill="white"/>
<path opacity="0.51" d="M1304.07 262.854L1280.71 287.005C1279.89 287.855 1278.71 288.188 1277.57 287.897C1276.43 287.603 1275.55 286.749 1275.23 285.607L1266.13 253.175C1265.81 252.035 1266.1 250.844 1266.93 249.995C1267.75 249.145 1268.92 248.812 1270.07 249.103L1302.54 257.387C1303.68 257.678 1304.55 258.532 1304.87 259.672C1305.19 260.814 1304.89 262.004 1304.07 262.854ZM1268.23 251.271C1267.87 251.647 1267.73 252.173 1267.88 252.677L1276.98 285.109C1277.13 285.613 1277.51 285.989 1278.02 286.119C1278.52 286.247 1279.04 286.099 1279.4 285.725L1302.77 261.574C1303.13 261.198 1303.26 260.675 1303.12 260.169C1302.98 259.665 1302.59 259.289 1302.09 259.159L1269.62 250.875C1269.11 250.749 1268.59 250.895 1268.23 251.271Z" fill="white"/>
</g>
</g>
</svg>
