<svg width="280" height="230" viewBox="0 0 280 230" fill="none" xmlns="http://www.w3.org/2000/svg">
<path d="M4.6638 89.3155L59.0006 82.7343C61.6047 82.4185 63.7134 80.4681 64.2325 77.8933L79.1899 3.7975C79.6356 1.58833 81.5735 0 83.8244 0L95.2247 0.650526L77.5862 135.328L17.292 146.793C15.0601 147.27 11.2825 147.533 9.24026 146.51L6.37775 145.077C4.59623 144.185 3.41685 142.418 3.27343 140.428L0.0138424 94.9649C-0.188845 92.1408 1.85699 89.655 4.6638 89.3155Z" fill="url(#paint0_linear_784_77)"/>
<path d="M6.17139 108.174L74.4948 135.916L15.9454 147.016C10.1588 148.164 9.13465 146.174 9.04338 143.753L6.17139 108.174Z" fill="url(#paint1_linear_784_77)"/>
<path d="M65.437 84.5802C65.437 84.5802 69.0901 84.7321 70.1782 79.6834C70.5836 77.8007 71.7725 72.9693 71.7725 72.9693L85.2802 4.19753C85.7152 1.98361 87.6876 0.410713 89.9396 0.481939L258.246 5.83572L228.219 127.315L65.437 84.5802Z" fill="#9595C1"/>
<path d="M256.49 12.9405L258.247 5.83572L89.9393 0.48194C87.6872 0.410715 85.7149 1.98242 85.2799 4.19753L85.1851 4.67949L256.49 12.9405Z" fill="white"/>
<path d="M10.1719 91.1092L65.4367 84.5802L228.218 127.315L158.631 142.451L10.1719 91.1092Z" fill="#9595C1"/>
<path d="M6.17168 108.174L5.57547 95.7864C5.4285 92.7344 7.94846 90.7626 10.1709 91.1092L158.632 142.451L153.446 167.973L6.17168 108.174Z" fill="url(#paint2_linear_784_77)"/>
<path d="M114.672 91.5935L116.708 81.8357L105.232 79.2905L103.24 88.6555L114.672 91.5935Z" fill="#1EEFDE"/>
<path d="M77.7734 99.0627L90.3175 103.08L101.129 99.7239L89.2555 96.2291L77.7734 99.0627Z" fill="#00DBEA"/>
<path d="M90.3979 95.9466L102.15 99.4058L110.74 96.7395L99.3008 93.7493L90.3979 95.9466Z" fill="#04E5EB"/>
<path d="M99.814 93.2709L111.687 96.374L114.425 92.1432L103.004 89.2075L99.814 93.2709Z" fill="#10ECEA"/>
<path d="M114.865 111.565L103.117 107.802L92.7534 111.157L104.499 114.969L114.865 111.565Z" fill="#00DAE2"/>
<path d="M102.148 107.492L90.314 103.703L79.8193 106.96L91.7921 110.845L102.148 107.492Z" fill="#00D3E9"/>
<path d="M65.4058 95.1026L76.6958 98.7185L88.1257 95.8956L77.5729 92.7889L65.4058 95.1026Z" fill="#01E0EA"/>
<path d="M51.4526 97.7557L64.043 101.842L75.5961 98.9891L64.184 95.3352L51.4526 97.7557Z" fill="#01D6E8"/>
<path d="M89.3291 103.387L76.6736 99.3346L65.1133 102.188L78.8403 106.642L89.3291 103.387Z" fill="#00D4E9"/>
<path d="M138.474 46.4888L151.745 48.3597L153.96 36.4591L140.815 35.0322L138.474 46.4888Z" fill="#F5E268"/>
<path d="M152.333 48.4428L165.922 50.3599L168.423 38.0284L154.55 36.5232L152.333 48.4428Z" fill="#F5E268"/>
<path d="M125.083 44.6002L137.893 46.4057L140.228 34.9693L127.384 33.5745L125.083 44.6002Z" fill="#E8E19F"/>
<path d="M96.3755 64.0294L107.394 66.2777L109.829 54.8377L98.6418 52.9348L96.3755 64.0294Z" fill="#40F5E1"/>
<path d="M93.897 76.1673L104.777 78.5806L107.271 66.8581L96.2569 64.611L93.897 76.1673Z" fill="#41F5E2"/>
<path d="M112.977 42.892L124.496 44.5171L126.792 33.5104L115.24 32.2568L112.977 42.892Z" fill="#E4DEAD"/>
<path d="M98.7603 52.352L109.952 54.2572L112.264 43.3906L100.916 41.7904L98.7603 52.352Z" fill="#BFEAC2"/>
<path d="M110.538 54.3557L122.034 56.312L124.374 45.0988L112.852 43.4736L110.538 54.3557Z" fill="#C5EDB4"/>
<path d="M217.27 27.5049L201.847 26.3641L198.877 40.7374L214.212 42.4017L217.27 27.5049Z" fill="#FBC334"/>
<path d="M214.092 42.9857L198.756 41.3214L196.012 54.6038L211.266 56.7548L214.092 42.9857Z" fill="#FCD23E"/>
<path d="M211.146 57.3377L195.891 55.1866L193.159 68.4144L208.343 70.9975L211.146 57.3377Z" fill="#F5D542"/>
<path d="M208.224 71.5792L193.039 68.9961L190.113 83.1569L205.215 86.2386L208.224 71.5792Z" fill="#D7CE4A"/>
<path d="M169.134 37.5085L182.943 39.0078L185.97 25.1901L171.846 24.1466L169.134 37.5085Z" fill="#F7D074"/>
<path d="M154.659 35.938L168.541 37.4444L171.25 24.1015L157.057 23.0521L154.659 35.938Z" fill="#F7D074"/>
<path d="M183.536 39.0719L198.284 40.6733L201.25 26.3202L186.568 25.234L183.536 39.0719Z" fill="#FFCE3F"/>
<path d="M192.454 68.8964L177.559 66.3619L174.575 79.9862L189.533 83.0382L192.454 68.8964Z" fill="#C6E162"/>
<path d="M180.449 123.074L167.512 119.266L153.973 123.465L165.789 127.249L180.449 123.074Z" fill="#00B1AE"/>
<path d="M151.998 123.456L139.013 119.298L128.136 122.638L141.086 126.841L151.998 123.456Z" fill="#01C0BC"/>
<path d="M164.759 127.542L152.983 123.772L142.065 127.158L153.304 130.804L164.759 127.542Z" fill="#00B2B8"/>
<path d="M138.023 118.981L127.347 115.562L116.542 118.876L127.152 122.319L138.023 118.981Z" fill="#00C6D1"/>
<path d="M126.357 115.245L115.829 111.874L105.456 115.278L115.558 118.557L126.357 115.245Z" fill="#00CDDE"/>
<path d="M189.413 83.6198L174.448 80.5667L171.634 93.4122L186.699 96.7538L189.413 83.6198Z" fill="#93C463"/>
<path d="M186.579 97.3355L171.507 93.9915L168.976 105.549L184.08 109.431L186.579 97.3355Z" fill="#36CE96"/>
<path d="M183.826 109.979L168.849 106.13L168.776 106.457L166.148 110.613L180.818 114.447L183.826 109.979Z" fill="#0CC1A5"/>
<path d="M165.69 111.106L154.043 114.682L167.507 118.646L179.867 114.812L165.69 111.106Z" fill="#03C1AF"/>
<path d="M179.895 52.9301L166.392 51.0248L163.874 63.4311L177.101 65.6818L179.895 52.9301Z" fill="#D9EC7A"/>
<path d="M165.804 50.9428L152.224 49.0269L149.982 61.0675L163.29 63.3313L165.804 50.9428Z" fill="#D9EC7A"/>
<path d="M163.171 63.9142L149.873 61.6516L147.49 74.4591L160.494 77.1123L163.171 63.9142Z" fill="#B5EB7E"/>
<path d="M160.375 77.6952L147.382 75.0432L145.06 87.5172L157.808 90.3448L160.375 77.6952Z" fill="#7AE993"/>
<path d="M157.69 90.9265L144.951 88.1012L142.949 98.861L155.429 102.069L157.69 90.9265Z" fill="#32E9BA"/>
<path d="M120.022 68.8548L132.779 71.4569L135.287 59.1693L122.497 56.9934L120.022 68.8548Z" fill="#8BF3B3"/>
<path d="M135.982 58.6862L149.398 60.9678L151.636 48.9438L138.355 47.0706L135.982 58.6862Z" fill="#D8EB90"/>
<path d="M155.201 102.622L142.748 99.4213L140.149 103.816L152.573 107.064L155.201 102.622Z" fill="#0BDFC4"/>
<path d="M122.62 56.4118L135.407 58.5877L137.774 46.9886L124.962 45.1819L122.62 56.4118Z" fill="#C5EDB4"/>
<path d="M117.409 81.3834L130.174 84.2146L132.66 72.0386L119.901 69.4353L117.409 81.3834Z" fill="#5CF2BE"/>
<path d="M107.975 66.3964L119.442 68.7361L121.913 56.8937L110.413 54.9374L107.975 66.3964Z" fill="#40F5E1"/>
<path d="M130.741 84.3405L144.48 87.389L146.8 74.9245L133.23 72.155L130.741 84.3405Z" fill="#5CF2BE"/>
<path d="M149.289 61.5519L135.864 59.2679L133.349 71.5733L146.909 74.3404L149.289 61.5519Z" fill="#8BF3B3"/>
<path d="M76.7289 87.2358L79.9482 83.2828L70.141 80.7626C69.1844 83.5879 67.3247 84.331 66.3433 84.5209L76.7289 87.2358Z" fill="#18EBE6"/>
<path d="M151.737 107.458L139.234 104.189L129.384 107.423L140.849 110.798L151.737 107.458Z" fill="#01D9CC"/>
<path d="M142.372 98.7125L144.372 87.9729L130.621 84.9221L128.53 95.1548L142.372 98.7125Z" fill="#29ECC9"/>
<path d="M116.239 103.554L128.38 107.128L138.174 103.912L125.426 100.58L116.239 103.554Z" fill="#02DFDA"/>
<path d="M125.866 100.081L139.212 103.571L139.699 103.411L142.149 99.2681L128.344 95.7198L125.866 100.081Z" fill="#0BE4D1"/>
<path d="M140.935 34.4482L154.069 35.8739L156.464 23.0082L143.468 22.0479L140.935 34.4482Z" fill="#F4CC84"/>
<path d="M152.829 107.744L141.882 111.102L153.011 114.379L164.597 110.82L152.829 107.744Z" fill="#01D0BE"/>
<path d="M176.974 66.2623L163.757 64.0139L161.074 77.231L173.994 79.8675L176.974 66.2623Z" fill="#B6EA7B"/>
<path d="M173.866 80.448L160.956 77.8126L158.387 90.4729L171.055 93.284L173.866 80.448Z" fill="#7AE993"/>
<path d="M168.219 106.228L168.274 105.982L155.798 102.776L153.169 107.219L165.548 110.455L168.219 106.228Z" fill="#09CFB4"/>
<path d="M170.928 93.8633L158.269 91.0558L156.005 102.216L168.401 105.402L170.928 93.8633Z" fill="#32DDA8"/>
<path d="M166.51 50.4431L180.022 52.3483L182.816 39.5907L169.016 38.0938L166.51 50.4431Z" fill="#F5E359"/>
<path d="M105.355 78.7088L116.829 81.2551L119.321 69.3166L107.852 66.9768L105.355 78.7088Z" fill="#44F5E0"/>
<path d="M195.304 55.1036L180.483 53.0132L177.687 65.7815L192.575 68.3148L195.304 55.1036Z" fill="#EBE558"/>
<path d="M198.165 41.2574L183.409 39.6548L180.61 52.4314L195.424 54.5207L198.165 41.2574Z" fill="#FAE04B"/>
<path d="M103.178 99.7086L115.23 103.257L124.361 100.301L111.827 97.0245L103.178 99.7086Z" fill="#04E5E6"/>
<path d="M166.484 118.963L153.016 114.998L140.007 118.993L152.987 123.149L166.484 118.963Z" fill="#01C0BC"/>
<path d="M112.291 96.5331L125.272 99.9258L127.749 95.5668L115.031 92.2987L112.291 96.5331Z" fill="#1EEFDE"/>
<path d="M127.971 95.0112L130.056 84.7963L117.286 81.9639L115.247 91.7407L127.971 95.0112Z" fill="#1EEFDE"/>
<path d="M91.3027 103.396L103.117 107.179L114.23 103.581L102.157 100.027L91.3027 103.396Z" fill="#00DBEA"/>
<path d="M151.982 114.694L140.853 111.418L128.341 115.257L139.017 118.676L151.982 114.694Z" fill="#00CCC6"/>
<path d="M127.387 107.453L115.239 103.878L104.085 107.489L115.827 111.249L127.387 107.453Z" fill="#00DAE2"/>
<path d="M139.821 111.114L128.391 107.749L116.79 111.558L127.351 114.94L139.821 111.114Z" fill="#00D4D7"/>
<path d="M233.526 28.7062L217.866 27.5488L214.804 42.4658L230.142 44.1301L233.526 28.7062Z" fill="#FCBE33"/>
<path d="M66.3803 88.8763L75.3767 87.4945L64.7066 84.7048L55.7896 85.759L66.3803 88.8763Z" fill="#0EE6E6"/>
<path d="M88.8455 39.4886L90.8119 29.6061L80.77 28.5151L78.8901 38.0843L88.8455 39.4886Z" fill="#DBD3AA"/>
<path d="M84.4492 61.5957L86.5792 50.8822L76.7056 49.2025L74.6646 59.5991L84.4492 61.5957Z" fill="#89F0CF"/>
<path d="M80.8838 27.931L90.9281 29.0208L93.0557 18.3203L82.919 17.5713L80.8838 27.931Z" fill="#E5BB95"/>
<path d="M77.3584 87.3996L87.923 90.162L91.0795 86.1425L80.5812 83.4442L77.3584 87.3996Z" fill="#10EBE7"/>
<path d="M91.5195 29.0849L102.659 30.2945L104.925 19.1988L93.6519 18.3643L91.5195 29.0849Z" fill="#E9C297"/>
<path d="M91.3663 85.6035L93.2 76.6208L82.5346 74.2549L80.8159 82.8922L91.3663 85.6035Z" fill="#4FF4DD"/>
<path d="M82.0712 73.5439L84.3328 62.1775L74.5493 60.182L72.3481 71.387L82.0712 73.5439Z" fill="#55F1DA"/>
<path d="M86.6951 50.2994L88.7291 40.0714L78.7749 38.6671L76.8203 48.6197L86.6951 50.2994Z" fill="#C3E3BB"/>
<path d="M171.965 23.559L186.098 24.6037L189.363 9.70329L174.917 9.00647L171.965 23.559Z" fill="#FBB838"/>
<path d="M143.589 21.4614L156.573 22.4218L159.211 8.24912L146.413 7.63184L143.589 21.4614Z" fill="#F9B858"/>
<path d="M157.167 22.4657L171.369 23.5151L174.319 8.97797L159.807 8.27759L157.167 22.4657Z" fill="#FCBA43"/>
<path d="M186.696 24.6488L201.371 25.7338L204.532 10.4346L189.962 9.73181L186.696 24.6488Z" fill="#FBB837"/>
<path d="M93.7681 17.7779L105.045 18.6113L107.668 5.76337L96.2679 5.21375L93.7681 17.7779Z" fill="#ECA984"/>
<path d="M201.967 25.7777L217.389 26.9173L220.613 11.2109L205.131 10.4642L201.967 25.7777Z" fill="#FBB634"/>
<path d="M117.94 19.5644L129.524 20.4215L132.334 6.9528L120.743 6.39368L117.94 19.5644Z" fill="#F2B27F"/>
<path d="M130.12 20.4655L142.994 21.4175L145.815 7.60336L132.933 6.98132L130.12 20.4655Z" fill="#F5B270"/>
<path d="M105.641 18.6552L117.344 19.5206L120.143 6.36523L108.268 5.79187L105.641 18.6552Z" fill="#EFAD80"/>
<path d="M224.125 74.2858L220.804 89.4188L236.956 92.7153L240.775 77.1182L224.125 74.2858Z" fill="#BD964E"/>
<path d="M220.676 89.9993L217.686 103.628L233.429 107.121L236.815 93.2922L220.676 89.9993Z" fill="#908866"/>
<path d="M233.288 107.697L217.558 104.208L214.685 117.296L229.975 121.227L233.288 107.697Z" fill="#5B7A7C"/>
<path d="M52.58 90.9953L64.9996 89.0876L54.2904 85.9359L41.4985 87.4471L52.58 90.9953Z" fill="#06DFE6"/>
<path d="M80.2422 82.7449L81.9562 74.1267L72.2343 71.9697L72.0364 72.9764C72.0364 72.9764 70.8475 77.8066 70.4421 79.6906C70.4042 79.8686 70.3556 80.0265 70.3105 80.1927L80.2422 82.7449Z" fill="#2CEEE2"/>
<path d="M93.1728 17.734L95.669 5.18405L85.4493 4.69141L83.0337 16.9837L93.1728 17.734Z" fill="#E8A685"/>
<path d="M214.496 117.862L211.948 122.586L226.744 126.455L226.594 127.028L211.074 122.971L196.059 127.051L209.72 131.073L209.616 131.426L228.483 127.323L229.834 121.803L214.496 117.862Z" fill="#1F748D"/>
<path d="M216.989 104.082L202.804 100.935L200.209 113.577L214.121 117.152L216.989 104.082Z" fill="#479682"/>
<path d="M211.453 122.253L213.904 117.71L199.99 114.133L196.905 118.653L211.07 122.357L211.453 122.253Z" fill="#228B8F"/>
<path d="M165.447 135.369L150.734 139.367L159.377 142.353L175.899 138.76L165.447 135.369Z" fill="#008FAA"/>
<path d="M37.6711 93.2851L51.2642 91.197L40.0761 87.6144L25.5039 89.3369L37.6711 93.2851Z" fill="#02D7E7"/>
<path d="M23.6203 95.4421L36.3659 93.4845L24.0933 89.5031L10.9316 91.0581L23.6203 95.4421Z" fill="#00CCE4"/>
<path d="M196.426 119.141L182.582 123.084L194.973 126.73L209.921 122.669L196.426 119.141Z" fill="#119096"/>
<path d="M178.296 131.877L166.494 135.084L177.05 138.51L190.125 135.665L178.296 131.877Z" fill="#018BA2"/>
<path d="M194.967 127.348L179.349 131.591L191.285 135.414L209.16 131.526L194.967 127.348Z" fill="#038699"/>
<path d="M82.6509 73.6732L93.3186 76.0391L95.6762 64.4923L84.9136 62.2961L82.6509 73.6732Z" fill="#4FF4DD"/>
<path d="M53.8467 91.4013L64.2228 94.7239L76.326 92.4222L66.3398 89.4829L53.8467 91.4013Z" fill="#02DFE8"/>
<path d="M67.7197 89.2704L77.6028 92.1799L86.6894 90.4515L76.8229 87.8732L67.7197 89.2704Z" fill="#08E6E8"/>
<path d="M78.8486 92.5468L89.2687 95.6142L98.098 93.4347L88.0264 90.8018L78.8486 92.5468Z" fill="#06E6EB"/>
<path d="M38.9272 93.6923L50.2777 97.3746L63.0008 94.9565L52.531 91.603L38.9272 93.6923Z" fill="#00D8E7"/>
<path d="M88.5488 90.3258L99.1893 93.1072L102.375 89.0461L91.7065 86.304L88.5488 90.3258Z" fill="#0CEAEA"/>
<path d="M24.8232 95.8576L36.6893 99.959L49.0651 97.6062L37.6222 93.8929L24.8232 95.8576Z" fill="#00CCE4"/>
<path d="M77.8578 106.949L64.0205 102.458L52.2979 105.352L66.8273 110.372L77.8578 106.949Z" fill="#00C9E3"/>
<path d="M62.9511 102.111L50.2399 97.9861L37.8179 100.348L51.2652 104.996L62.9511 102.111Z" fill="#00CCE5"/>
<path d="M115.364 31.6728L126.914 32.9263L129.401 21.008L117.815 20.1509L115.364 31.6728Z" fill="#F3CD87"/>
<path d="M89.4331 39.5717L100.448 41.1244L102.54 30.8786L91.4031 29.6702L89.4331 39.5717Z" fill="#DDD8AD"/>
<path d="M103.251 30.3587L114.771 31.6087L117.219 20.107L105.521 19.2428L103.251 30.3587Z" fill="#EFCB97"/>
<path d="M101.036 41.2075L112.388 42.8089L114.647 32.1928L103.132 30.9427L101.036 41.2075Z" fill="#DFDCAF"/>
<path d="M90.8293 111.157L78.8364 107.266L67.7739 110.7L79.6092 114.789L90.8293 111.157Z" fill="#01C6E1"/>
<path d="M102.665 88.5072L104.654 79.1612L93.7788 76.749L91.9404 85.7507L102.665 88.5072Z" fill="#1FF1E8"/>
<path d="M237.189 12.0098L221.213 11.2394L217.987 26.9624L233.654 28.1198L237.189 12.0098Z" fill="#FBB432"/>
<path d="M87.2798 50.3991L98.1763 52.2534L100.329 41.7073L89.3173 40.1545L87.2798 50.3991Z" fill="#BCE8C0"/>
<path d="M85.0288 61.7134L95.7961 63.9107L98.0565 52.8351L87.1635 50.9821L85.0288 61.7134Z" fill="#89F0CF"/>
<path d="M127.506 32.9905L140.347 34.3853L142.874 22.0039L129.997 21.0519L127.506 32.9905Z" fill="#F4CF88"/>
<path d="M220.104 89.883L205.676 86.939L202.924 100.353L217.117 103.501L220.104 89.883Z" fill="#92A963"/>
<path d="M205.095 86.8202L189.993 83.7385L187.278 96.882L202.344 100.225L205.095 86.8202Z" fill="#93C463"/>
<path d="M202.226 100.807L187.157 97.4637L184.655 109.579L199.635 113.429L202.226 100.807Z" fill="#3BB688"/>
<path d="M103.542 115.282L91.791 111.469L80.54 115.111L92.0008 119.071L103.542 115.282Z" fill="#00C4E2"/>
<path d="M230.014 44.7129L214.685 43.0498L211.854 56.8379L226.888 58.958L230.014 44.7129Z" fill="#FBC334"/>
<path d="M180.954 115.097L168.535 118.948L181.517 122.77L195.296 118.846L180.954 115.097Z" fill="#07AAA0"/>
<path d="M226.761 59.5397L211.735 57.4208L208.927 71.0973L223.675 73.6068L226.761 59.5397Z" fill="#F3C139"/>
<path d="M223.548 74.1873L208.809 71.679L205.796 86.3573L220.232 89.3025L223.548 74.1873Z" fill="#CFB849"/>
<path d="M199.378 113.976L184.436 110.136L181.426 114.607L196.295 118.494L199.378 113.976Z" fill="#19A094"/>
<path d="M140.104 127.145L127.149 122.941L114.468 126.835L127.067 131.189L140.104 127.145Z" fill="#00B3C7"/>
<path d="M126.165 122.622L115.555 119.179L103.243 122.957L113.516 126.506L126.165 122.622Z" fill="#01BDD3"/>
<path d="M193.88 127.027L181.515 123.387L166.809 127.576L178.31 131.258L193.88 127.027Z" fill="#019CA3"/>
<path d="M114.571 118.86L104.5 115.593L92.9277 119.392L102.292 122.628L114.571 118.86Z" fill="#00C1DE"/>
<path d="M152.28 131.096L141.083 127.463L128.014 131.515L138.312 135.074L152.28 131.096Z" fill="#00AABB"/>
<path d="M177.257 131.545L165.779 127.869L154.317 131.133L165.462 134.749L177.257 131.545Z" fill="#009FAE"/>
<path d="M164.416 135.034L153.293 131.424L139.29 135.413L149.737 139.023L164.416 135.034Z" fill="#009FB2"/>
<path d="M253.476 12.7957L237.788 12.0383L234.249 28.1638L250.005 29.3295L253.476 12.7957Z" fill="#EC9F29"/>
<path d="M249.883 29.916L234.121 28.7502L230.731 44.1943L246.526 45.9084L249.883 29.916Z" fill="#F1AC2D"/>
<path d="M241.587 69.4353L243.179 61.8557L227.345 59.6228L224.253 73.7053L240.918 76.54L242.719 69.1801L241.587 69.4353Z" fill="#E2A83A"/>
<path d="M246.403 46.4924L230.603 44.7771L227.472 59.0412L243.301 61.2741L246.403 46.4924Z" fill="#F3B22F"/>
<path d="M270.791 6.52899L258.247 5.83691C255.831 5.83691 252.746 8.21584 252.234 10.5793L228.052 122.226C227.731 123.711 226.606 124.891 225.14 125.283L157.048 142.866C153.712 143.727 151.392 146.752 151.418 150.201V219.999C151.418 221.823 152.449 223.491 154.08 224.304L167.477 229.842L242.346 148.981L270.791 6.52899Z" fill="url(#paint3_linear_784_77)"/>
<path d="M164.52 225.788L163.494 154.489C163.451 151.54 165.414 148.94 168.259 148.176L237.267 129.652C238.989 129.19 240.309 127.803 240.687 126.058L265.99 9.41487C266.491 7.1036 268.913 5.76575 271.133 6.57416L276.314 8.46045C278.953 9.42199 280.473 12.195 279.865 14.942L248.831 155.178C247.371 161.778 247.908 168.663 250.373 174.956L256.498 190.586C257.985 194.384 256.052 198.662 252.222 200.05L170.235 229.742C167.479 230.74 164.563 228.722 164.52 225.788Z" fill="url(#paint4_linear_784_77)"/>
<defs>
<linearGradient id="paint0_linear_784_77" x1="17.3533" y1="151.435" x2="102.206" y2="4.68728" gradientUnits="userSpaceOnUse">
<stop stop-color="#6ACBFF"/>
<stop offset="0.0427" stop-color="#84D4FF"/>
<stop offset="0.1092" stop-color="#A4DFFF"/>
<stop offset="0.1836" stop-color="#C1E9FF"/>
<stop offset="0.2666" stop-color="#D8F1FF"/>
<stop offset="0.3617" stop-color="#E9F7FF"/>
<stop offset="0.4767" stop-color="#F6FCFF"/>
<stop offset="0.6317" stop-color="#FDFEFF"/>
<stop offset="1" stop-color="white"/>
</linearGradient>
<linearGradient id="paint1_linear_784_77" x1="40.3327" y1="108.174" x2="40.3327" y2="147.351" gradientUnits="userSpaceOnUse">
<stop stop-color="#55DBFF"/>
<stop offset="1" stop-color="#E6E6E5"/>
</linearGradient>
<linearGradient id="paint2_linear_784_77" x1="5.56979" y1="129.522" x2="158.631" y2="129.522" gradientUnits="userSpaceOnUse">
<stop stop-color="#AAFDFF"/>
<stop offset="0.0705" stop-color="#C4FEFF"/>
<stop offset="0.1522" stop-color="#DAFEFF"/>
<stop offset="0.2487" stop-color="#EBFFFF"/>
<stop offset="0.368" stop-color="#F6FFFF"/>
<stop offset="0.5353" stop-color="#FDFFFF"/>
<stop offset="1" stop-color="white"/>
</linearGradient>
<linearGradient id="paint3_linear_784_77" x1="211.103" y1="229.841" x2="211.103" y2="5.83655" gradientUnits="userSpaceOnUse">
<stop stop-color="#6ACBFF"/>
<stop offset="0.0457" stop-color="#89D6FF"/>
<stop offset="0.1034" stop-color="#A8E1FF"/>
<stop offset="0.1687" stop-color="#C4EAFF"/>
<stop offset="0.2426" stop-color="#DAF2FF"/>
<stop offset="0.3288" stop-color="#EBF8FF"/>
<stop offset="0.4354" stop-color="#F6FCFF"/>
<stop offset="0.5849" stop-color="#FDFEFF"/>
<stop offset="1" stop-color="white"/>
</linearGradient>
<linearGradient id="paint4_linear_784_77" x1="184.934" y1="54.8053" x2="264.791" y2="192.913" gradientUnits="userSpaceOnUse">
<stop stop-color="#6AF0FF"/>
<stop offset="1" stop-color="#E6E6E5"/>
</linearGradient>
</defs>
</svg>
