<svg width="48" height="72" viewBox="0 0 48 72" fill="none" xmlns="http://www.w3.org/2000/svg">
<path d="M22.4087 49.4071C13.4627 63.3181 3.81671 73.055 0.864711 71.1561C-2.08829 69.2571 2.77071 56.441 11.7157 42.531C20.6607 28.621 30.3067 18.8831 33.2587 20.7821C36.2117 22.6821 31.3537 35.4971 22.4087 49.4071Z" fill="url(#paint0_linear_784_470)"/>
<path d="M22.4087 49.4071C13.4627 63.3181 3.81671 73.055 0.864711 71.1561C-2.08829 69.2571 2.77071 56.441 11.7157 42.531C20.6607 28.621 30.3067 18.8831 33.2587 20.7821C36.2117 22.6821 31.3537 35.4971 22.4087 49.4071Z" fill="url(#paint1_linear_784_470)"/>
<path opacity="0.2" d="M1.6446 71.387C1.3466 71.376 1.0866 71.3 0.864598 71.157C-2.0894 69.257 2.7706 56.442 11.7166 42.531C20.6626 28.62 30.3056 18.883 33.2596 20.783C33.5606 20.976 33.7816 21.286 33.9206 21.698C30.2976 21.529 21.4306 30.82 13.1596 43.679C5.1306 56.165 0.396598 67.771 1.6446 71.387Z" fill="#FAF3F3"/>
<path d="M23.6845 47.393L13.0195 40.534C17.5895 33.686 22.2465 28.003 26.0235 24.473C27.6355 22.962 29.0895 21.843 30.3085 21.197C31.5755 20.516 32.5885 20.351 33.2565 20.781C33.9255 21.211 34.1925 22.199 34.1025 23.628C33.9985 25.387 33.3555 27.817 32.2505 30.703C30.4745 35.365 27.5075 41.22 23.6845 47.393Z" fill="url(#paint2_linear_784_470)"/>
<path opacity="0.7" d="M22.4097 49.409L22.3107 49.564L11.6157 42.686L11.7147 42.531C12.1487 41.856 12.5847 41.192 13.0207 40.535L23.6847 47.393C23.2667 48.061 22.8437 48.734 22.4097 49.409Z" fill="#F89D35"/>
<path d="M11.8545 39.7861C20.3575 26.5651 30.1585 17.7161 33.7465 20.0241C37.3345 22.3321 33.3505 34.92 24.8475 48.142L11.8545 39.7861Z" fill="url(#paint3_linear_784_470)"/>
<path opacity="0.4" d="M34.2645 20.4991C34.1135 20.3131 33.9435 20.1501 33.7475 20.0241C30.1595 17.7161 20.3585 26.5651 11.8555 39.7861L13.0205 40.5351C21.0565 28.0371 30.2505 19.4531 34.2645 20.4991Z" fill="#F6ECEC"/>
<path d="M41.2855 22.993C41.1515 23.1 41.0145 23.201 40.8725 23.294C40.4575 23.586 40.0255 23.836 39.5835 24.042C39.4705 24.098 39.3565 24.149 39.2355 24.196C38.8815 24.347 38.5235 24.468 38.1625 24.563C38.0485 24.593 37.9345 24.623 37.8215 24.645C37.5005 24.717 37.1805 24.766 36.8605 24.797C36.7455 24.809 36.6275 24.819 36.5135 24.822C36.2115 24.838 35.9095 24.838 35.6155 24.816C35.4945 24.811 35.3765 24.799 35.2585 24.789C34.9665 24.756 34.6755 24.706 34.3895 24.638C34.2605 24.61 34.1385 24.58 34.0155 24.543C33.7215 24.461 33.4325 24.361 33.1495 24.24C33.0175 24.185 32.8845 24.126 32.7545 24.059C32.5095 23.94 32.2705 23.803 32.0395 23.655C31.9765 23.615 31.9155 23.575 31.8555 23.528C31.7095 23.434 31.5675 23.334 31.4325 23.23C31.0885 22.97 30.7685 22.687 30.4695 22.383C30.3135 22.231 30.1685 22.069 30.0305 21.903C29.6155 21.421 29.2545 20.892 28.9635 20.323C28.8085 20.03 28.6725 19.727 28.5575 19.412C27.5665 16.773 27.8655 13.46 30.1415 9.922C34.0255 3.883 39.6585 1.517 43.3855 0.592C43.8945 0.468 44.3675 0.368 44.7915 0.289C44.7965 0.288 44.7965 0.288 44.7965 0.288C46.2985 0.014 47.2525 0 47.2525 0C47.2525 0 47.1475 0.117 46.9765 0.329C46.8465 0.491 46.6745 0.706 46.4775 0.97C46.1415 1.42 45.7325 2.003 45.3225 2.672C45.2025 2.866 45.0845 3.069 44.9675 3.278C44.6895 3.769 44.4255 4.295 44.1955 4.839C44.9445 4.209 45.7975 3.683 46.7005 3.494C47.0005 3.429 47.3065 3.402 47.6105 3.423C47.6625 3.422 47.7105 3.427 47.7585 3.432C47.7585 3.432 46.9385 4.301 46.0265 5.485C45.8375 5.732 45.6415 5.997 45.4495 6.269C44.9415 6.987 44.4555 7.761 44.1115 8.503C44.0085 8.724 43.9195 8.942 43.8485 9.153C43.7815 9.337 43.7325 9.521 43.6915 9.697C43.6125 10.067 43.6115 10.415 43.6735 10.755C43.6905 10.887 43.7225 11.019 43.7585 11.15C43.8655 11.532 44.0315 11.909 44.2095 12.299C44.2645 12.408 44.3155 12.522 44.3715 12.635C44.5445 13 44.7185 13.378 44.8635 13.789C44.9075 13.908 44.9475 14.032 44.9855 14.16C45.1195 14.607 45.2095 15.095 45.2185 15.637C45.2235 15.808 45.2155 15.988 45.2015 16.171C45.1565 16.761 45.0145 17.408 44.7345 18.139C43.9135 20.283 42.6945 21.892 41.2855 22.993Z" fill="url(#paint4_linear_784_470)"/>
<path d="M41.2855 22.993C41.1515 23.1 41.0145 23.201 40.8725 23.294C40.4575 23.586 40.0255 23.836 39.5835 24.042C39.4705 24.098 39.3565 24.149 39.2355 24.196C38.8815 24.347 38.5235 24.468 38.1625 24.563C38.0485 24.593 37.9345 24.623 37.8215 24.645C37.5005 24.717 37.1805 24.766 36.8605 24.797C36.7455 24.809 36.6275 24.819 36.5135 24.822C36.2115 24.838 35.9095 24.838 35.6155 24.816C35.4945 24.811 35.3765 24.799 35.2585 24.789C34.9665 24.756 34.6755 24.706 34.3895 24.638C34.2605 24.61 34.1385 24.58 34.0155 24.543C33.7215 24.461 33.4325 24.361 33.1495 24.24C33.0175 24.185 32.8845 24.126 32.7545 24.059C32.5095 23.94 32.2705 23.803 32.0395 23.655C31.9765 23.615 31.9155 23.575 31.8555 23.528C31.7095 23.434 31.5675 23.334 31.4325 23.23C31.0885 22.97 30.7685 22.687 30.4695 22.383C30.3135 22.231 30.1685 22.069 30.0305 21.903C29.6155 21.421 29.2545 20.892 28.9635 20.323C28.8085 20.03 28.6725 19.727 28.5575 19.412C27.5665 16.773 27.8655 13.46 30.1415 9.922C34.0255 3.883 39.6585 1.517 43.3855 0.592C43.8945 0.468 44.3675 0.368 44.7915 0.289C44.7965 0.288 44.7965 0.288 44.7965 0.288C46.2985 0.014 47.2525 0 47.2525 0C47.2525 0 47.1475 0.117 46.9765 0.329C46.8465 0.491 46.6745 0.706 46.4775 0.97C46.1415 1.42 45.7325 2.003 45.3225 2.672C45.2025 2.866 45.0845 3.069 44.9675 3.278C44.6895 3.769 44.4255 4.295 44.1955 4.839C44.9445 4.209 45.7975 3.683 46.7005 3.494C47.0005 3.429 47.3065 3.402 47.6105 3.423C47.6625 3.422 47.7105 3.427 47.7585 3.432C47.7585 3.432 46.9385 4.301 46.0265 5.485C45.8375 5.732 45.6415 5.997 45.4495 6.269C44.9415 6.987 44.4555 7.761 44.1115 8.503C44.0085 8.724 43.9195 8.942 43.8485 9.153C43.7815 9.337 43.7325 9.521 43.6915 9.697C43.6125 10.067 43.6115 10.415 43.6735 10.755C43.6905 10.887 43.7225 11.019 43.7585 11.15C43.8655 11.532 44.0315 11.909 44.2095 12.299C44.2645 12.408 44.3155 12.522 44.3715 12.635C44.5445 13 44.7185 13.378 44.8635 13.789C44.9075 13.908 44.9475 14.032 44.9855 14.16C45.1195 14.607 45.2095 15.095 45.2185 15.637C45.2235 15.808 45.2155 15.988 45.2015 16.171C45.1565 16.761 45.0145 17.408 44.7345 18.139C43.9135 20.283 42.6945 21.892 41.2855 22.993Z" fill="url(#paint5_linear_784_470)"/>
<path opacity="0.2" d="M44.7946 0.288C46.2986 0.014 47.2526 0 47.2526 0C47.2526 0 47.1476 0.117 46.9766 0.329C46.8616 0.475 46.7106 0.661 46.5396 0.886C46.2476 0.926 45.9246 0.976 45.5626 1.043C45.5626 1.043 45.5626 1.043 45.5596 1.041C45.1336 1.124 44.6606 1.224 44.1526 1.344C40.4266 2.269 34.7926 4.635 30.9086 10.674C28.6316 14.215 28.3316 17.528 29.3256 20.165C29.4406 20.48 29.5766 20.782 29.7306 21.078C30.0206 21.648 30.3816 22.176 30.7976 22.658C30.8526 22.72 30.9056 22.783 30.9646 22.847C30.7946 22.699 30.6266 22.544 30.4686 22.382C30.3126 22.23 30.1676 22.068 30.0296 21.902C29.6146 21.42 29.2536 20.891 28.9626 20.322C28.8076 20.029 28.6716 19.726 28.5566 19.411C27.5656 16.772 27.8646 13.459 30.1406 9.921C34.0246 3.882 39.6576 1.516 43.3846 0.591C43.8936 0.467 44.3666 0.367 44.7906 0.288C44.7946 0.288 44.7946 0.288 44.7946 0.288Z" fill="#FCF9FA"/>
<path opacity="0.1" d="M36.5175 11.383C34.6395 14.304 34.3595 17.855 33.3055 17.177C32.2515 16.499 32.2795 12.785 34.1575 9.86503C36.0365 6.94403 39.0535 5.92203 40.1075 6.60103C41.1615 7.27903 38.3965 8.46303 36.5175 11.383Z" fill="#FAF3F3"/>
<path opacity="0.1" d="M45.0555 14.418C45.0345 14.331 45.0125 14.243 44.9865 14.159C44.9485 14.032 44.9085 13.907 44.8645 13.788C44.7195 13.378 44.5455 12.999 44.3725 12.634C44.3165 12.521 44.2655 12.407 44.2105 12.298C44.0315 11.908 43.8665 11.531 43.7595 11.149C43.7235 11.018 43.6915 10.886 43.6745 10.754C43.6135 10.414 43.6135 10.066 43.6925 9.696C43.7325 9.52 43.7815 9.336 43.8495 9.152C43.9205 8.941 44.0095 8.722 44.1125 8.502C44.4565 7.76 44.9415 6.986 45.4505 6.268C45.6425 5.996 45.8385 5.731 46.0275 5.484C46.9395 4.3 47.7595 3.431 47.7595 3.431C47.7115 3.426 47.6645 3.421 47.6115 3.422C47.3065 3.402 47.0015 3.429 46.7015 3.493C45.7985 3.682 44.9465 4.207 44.1965 4.838C44.4255 4.294 44.6905 3.768 44.9685 3.277C45.0855 3.068 45.2025 2.865 45.3235 2.671C45.7335 2.002 46.1425 1.419 46.4785 0.969C46.5065 0.932 46.5315 0.898 46.5585 0.863C46.7215 0.648 46.8655 0.468 46.9775 0.328C47.1475 0.117 47.2525 0 47.2525 0C47.2525 0 46.2995 0.014 44.7945 0.288C44.7945 0.288 44.7945 0.288 44.7895 0.289C44.3645 0.368 43.8925 0.469 43.3835 0.592C39.6565 1.516 34.0235 3.883 30.1395 9.922C27.8645 13.46 27.5645 16.773 28.5555 19.412C28.6705 19.727 28.8075 20.03 28.9615 20.323C29.0285 20.453 29.0995 20.581 29.1735 20.707C26.8135 22.016 23.9375 24.501 20.8945 27.852C31.6125 26.991 39.6095 20.747 45.0555 14.418Z" fill="#F8F8F8"/>
<defs>
<linearGradient id="paint0_linear_784_470" x1="11.716" y1="42.5299" x2="22.409" y2="49.4064" gradientUnits="userSpaceOnUse">
<stop stop-color="#FCC16F"/>
<stop offset="0.2548" stop-color="#FCBD6A"/>
<stop offset="0.566" stop-color="#FAB35B"/>
<stop offset="0.9055" stop-color="#F9A242"/>
<stop offset="1" stop-color="#F89C3A"/>
</linearGradient>
<linearGradient id="paint1_linear_784_470" x1="11.716" y1="42.5299" x2="22.409" y2="49.4064" gradientUnits="userSpaceOnUse">
<stop stop-color="#FCC16F"/>
<stop offset="0.2548" stop-color="#FCBD6A"/>
<stop offset="0.566" stop-color="#FAB35B"/>
<stop offset="0.9055" stop-color="#F9A242"/>
<stop offset="1" stop-color="#F89C3A"/>
</linearGradient>
<linearGradient id="paint2_linear_784_470" x1="20.4742" y1="28.9422" x2="31.139" y2="35.8006" gradientUnits="userSpaceOnUse">
<stop stop-color="#FCC16F"/>
<stop offset="0.2548" stop-color="#FCBD6A"/>
<stop offset="0.566" stop-color="#FAB35B"/>
<stop offset="0.9055" stop-color="#F9A242"/>
<stop offset="1" stop-color="#F89C3A"/>
</linearGradient>
<linearGradient id="paint3_linear_784_470" x1="21.9072" y1="26.3259" x2="28.1029" y2="45.1758" gradientUnits="userSpaceOnUse">
<stop stop-color="#67C197"/>
<stop offset="0.1724" stop-color="#62C097"/>
<stop offset="0.383" stop-color="#53BD96"/>
<stop offset="0.6136" stop-color="#3AB995"/>
<stop offset="0.8568" stop-color="#18B294"/>
<stop offset="1" stop-color="#00AE93"/>
</linearGradient>
<linearGradient id="paint4_linear_784_470" x1="32.0561" y1="6.9429" x2="46.3514" y2="16.136" gradientUnits="userSpaceOnUse">
<stop stop-color="#B4643C"/>
<stop offset="0.3007" stop-color="#AF613B"/>
<stop offset="0.6672" stop-color="#A05937"/>
<stop offset="1" stop-color="#8C4F32"/>
</linearGradient>
<linearGradient id="paint5_linear_784_470" x1="37.2607" y1="3.91339" x2="39.1652" y2="22.7108" gradientUnits="userSpaceOnUse">
<stop stop-color="#AC6385"/>
<stop offset="0.3689" stop-color="#AC5F7E"/>
<stop offset="0.8923" stop-color="#AE546C"/>
<stop offset="1" stop-color="#AE5167"/>
</linearGradient>
</defs>
</svg>
