<svg width="16" height="16" viewBox="0 0 16 16" fill="none" xmlns="http://www.w3.org/2000/svg">
<path fill-rule="evenodd" clip-rule="evenodd" d="M12.977 1H4.09V2.031H1V6.867C1 8.736 3.086 10.274 5.133 10.434C5.805 11.154 6.987 11.677 8.039 11.9V13.164C7.033 13.473 5.236 14.199 5.133 14.99H12.037C11.933 14.199 9.953 13.472 8.945 13.164V11.9C10.001 11.677 11.236 11.154 11.909 10.434C13.955 10.274 15.949 8.736 15.949 6.867V2.031H12.977V1ZM1.949 2.947H4.018V7.113C4.018 7.935 4.23 8.717 4.603 9.421C3.055 8.928 1.949 7.658 1.949 6.172V2.947ZM10.053 8.028L8.509 7.177L6.963 8.028L7.258 6.228L6.008 4.954L7.735 4.691L8.509 3.055L9.281 4.691L11.008 4.954L9.758 6.228L10.053 8.028ZM12.348 9.554C12.723 8.818 12.938 8.004 12.938 7.143V2.974H15.012V6.16C15.012 7.713 13.901 9.039 12.348 9.554Z" fill="#F9AA03"/>
</svg>
