<svg width="298" height="299" viewBox="0 0 298 299" fill="none" xmlns="http://www.w3.org/2000/svg">
<path opacity="0.51" d="M64.2388 284.709C64.2388 284.758 64.2786 284.794 64.3292 284.794C64.3774 284.794 64.4148 284.758 64.4148 284.709C64.4148 284.659 64.3774 284.619 64.3292 284.619C64.2786 284.619 64.2388 284.659 64.2388 284.709ZM53.4419 273.554C53.4419 273.628 53.5022 273.685 53.5733 273.685C53.6396 273.685 53.7011 273.628 53.7011 273.554C53.7011 273.485 53.6384 273.428 53.5733 273.428C53.5022 273.428 53.4419 273.484 53.4419 273.554ZM42.6884 262.404C42.6884 262.477 42.7427 262.532 42.8138 262.532C42.8777 262.532 42.944 262.477 42.944 262.404C42.944 262.326 42.8777 262.269 42.8138 262.269C42.7427 262.269 42.6884 262.325 42.6884 262.404ZM31.9277 251.252C31.9277 251.324 31.9831 251.38 32.0579 251.38C32.129 251.38 32.1905 251.324 32.1905 251.252C32.1905 251.172 32.1278 251.114 32.0579 251.114C31.9843 251.114 31.9277 251.172 31.9277 251.252ZM21.2164 240.103C21.2164 240.142 21.2526 240.185 21.2984 240.185C21.3454 240.185 21.39 240.142 21.39 240.103C21.39 240.047 21.3454 240.007 21.2984 240.007C21.2513 240.007 21.2164 240.047 21.2164 240.103ZM96.8839 296.245C96.8839 296.295 96.9309 296.331 96.9719 296.331C97.0202 296.331 97.0672 296.295 97.0672 296.245C97.0672 296.2 97.0202 296.16 96.9719 296.16C96.9309 296.161 96.8839 296.2 96.8839 296.245ZM85.9652 285.094C85.9652 285.233 86.0774 285.357 86.2148 285.357C86.3631 285.357 86.4825 285.233 86.4825 285.094C86.4825 284.953 86.3619 284.838 86.2148 284.838C86.0762 284.837 85.9652 284.953 85.9652 285.094ZM75.471 273.339C75.1382 273.339 74.8596 273.602 74.8596 273.938C74.8596 274.267 75.137 274.536 75.471 274.536C75.8014 274.536 76.0655 274.266 76.0655 273.938C76.0655 273.602 75.8014 273.339 75.471 273.339ZM64.7054 262.401C64.498 262.401 64.3123 262.572 64.3123 262.79C64.3123 262.994 64.498 263.175 64.7054 263.175C64.9237 263.175 65.0913 262.994 65.0913 262.79C65.0925 262.571 64.9237 262.401 64.7054 262.401ZM53.9507 251.244C53.7409 251.244 53.5649 251.418 53.5649 251.636C53.5649 251.849 53.7409 252.021 53.9507 252.021C54.1654 252.021 54.3402 251.849 54.3402 251.636C54.3402 251.419 54.1654 251.244 53.9507 251.244ZM43.1912 239.793C42.8138 239.793 42.5148 240.103 42.5148 240.48C42.5148 240.855 42.8138 241.167 43.1912 241.167C43.5783 241.167 43.8773 240.855 43.8773 240.48C43.8773 240.103 43.5783 239.793 43.1912 239.793ZM32.0868 229.329C32.0868 229.52 32.246 229.667 32.4377 229.667C32.6282 229.667 32.7838 229.52 32.7838 229.329C32.7838 229.142 32.6282 228.99 32.4377 228.99C32.2472 228.99 32.0868 229.141 32.0868 229.329ZM21.466 218.176C21.466 218.298 21.5661 218.393 21.6854 218.393C21.8024 218.393 21.8928 218.298 21.8928 218.176C21.8928 218.054 21.8024 217.959 21.6854 217.959C21.5661 217.959 21.466 218.054 21.466 218.176ZM10.8451 207.023C10.8451 207.066 10.8849 207.105 10.9187 207.105C10.9729 207.105 11.0091 207.066 11.0091 207.023C11.0091 206.968 10.9729 206.932 10.9187 206.932C10.8849 206.932 10.8451 206.968 10.8451 207.023ZM0 195.865C0 195.964 0.0771723 196.038 0.167609 196.038C0.261663 196.038 0.346073 195.964 0.346073 195.865C0.346073 195.775 0.260457 195.697 0.167609 195.697C0.0771723 195.697 0 195.775 0 195.865ZM118.701 296.634C118.701 296.722 118.777 296.795 118.873 296.795C118.968 296.795 119.032 296.722 119.032 296.634C119.032 296.526 118.968 296.463 118.873 296.463C118.777 296.463 118.701 296.526 118.701 296.634ZM108.114 284.913C107.81 284.913 107.56 285.169 107.56 285.472C107.56 285.781 107.81 286.037 108.114 286.037C108.422 286.037 108.676 285.781 108.676 285.472C108.676 285.169 108.422 284.913 108.114 284.913ZM97.3554 273.506C96.908 273.506 96.5499 273.875 96.5499 274.317C96.5499 274.777 96.908 275.135 97.3554 275.135C97.8051 275.135 98.1705 274.777 98.1705 274.317C98.1705 273.876 97.8051 273.506 97.3554 273.506ZM86.6067 262.571C86.2679 262.571 86.0002 262.84 86.0002 263.166C86.0002 263.502 86.2679 263.778 86.6067 263.778C86.9335 263.778 87.206 263.502 87.206 263.166C87.206 262.842 86.9335 262.571 86.6067 262.571ZM75.8472 251.031C75.2949 251.031 74.8596 251.471 74.8596 252.007C74.8596 252.56 75.2949 252.998 75.8472 252.998C76.3958 252.998 76.8348 252.56 76.8348 252.007C76.8336 251.471 76.3958 251.031 75.8472 251.031ZM65.0925 239.832C64.5234 239.832 64.0639 240.292 64.0639 240.855C64.0639 241.434 64.5234 241.892 65.0925 241.892C65.6592 241.892 66.1223 241.434 66.1223 240.855C66.1223 240.293 65.658 239.832 65.0925 239.832ZM54.3318 229.022C53.9507 229.022 53.6565 229.329 53.6565 229.703C53.6565 230.088 53.9507 230.394 54.3318 230.394C54.7128 230.394 55.0179 230.087 55.0179 229.703C55.0179 229.329 54.7128 229.022 54.3318 229.022ZM43.5783 217.568C43.0308 217.568 42.5931 218.016 42.5931 218.561C42.5931 219.097 43.032 219.551 43.5783 219.551C44.1209 219.551 44.5634 219.097 44.5634 218.561C44.5634 218.014 44.1209 217.568 43.5783 217.568ZM32.82 206.629C32.3907 206.629 32.0531 206.98 32.0531 207.409C32.0531 207.826 32.3919 208.181 32.82 208.181C33.2468 208.181 33.5893 207.826 33.5893 207.409C33.5893 206.981 33.2468 206.629 32.82 206.629ZM22.0605 195.726C21.7807 195.726 21.5492 195.964 21.5492 196.252C21.5492 196.532 21.7807 196.769 22.0605 196.769C22.3414 196.769 22.5802 196.532 22.5802 196.252C22.579 195.964 22.3414 195.726 22.0605 195.726ZM11.3082 184.578C11.0272 184.578 10.7885 184.811 10.7885 185.091C10.7885 185.381 11.0272 185.611 11.3082 185.611C11.5988 185.611 11.8194 185.381 11.8194 185.091C11.8194 184.811 11.5988 184.578 11.3082 184.578ZM0.346073 173.938C0.346073 174.063 0.435308 174.155 0.55589 174.155C0.672854 174.155 0.769313 174.064 0.769313 173.938C0.769313 173.826 0.672854 173.724 0.55589 173.724C0.435308 173.724 0.346073 173.826 0.346073 173.938ZM140.465 297.01C140.465 297.178 140.602 297.315 140.762 297.315C140.935 297.315 141.066 297.178 141.066 297.01C141.066 296.838 140.935 296.71 140.762 296.71C140.602 296.71 140.465 296.838 140.465 297.01ZM130.015 285.216C129.651 285.216 129.371 285.496 129.371 285.861C129.371 286.216 129.651 286.499 130.015 286.499C130.365 286.499 130.65 286.217 130.65 285.861C130.65 285.495 130.365 285.216 130.015 285.216ZM119.248 274.145C118.944 274.145 118.701 274.391 118.701 274.701C118.701 275.017 118.944 275.263 119.248 275.263C119.564 275.263 119.815 275.017 119.815 274.701C119.815 274.391 119.563 274.145 119.248 274.145ZM108.496 262.569C107.956 262.569 107.507 263.006 107.507 263.549C107.507 264.098 107.956 264.543 108.496 264.543C109.048 264.543 109.48 264.098 109.48 263.549C109.48 263.006 109.048 262.569 108.496 262.569ZM97.7352 251.147C97.0515 251.147 96.486 251.709 96.486 252.396C96.486 253.091 97.0515 253.646 97.7352 253.646C98.4249 253.646 98.9881 253.091 98.9881 252.396C98.9881 251.709 98.4249 251.147 97.7352 251.147ZM86.9878 239.876C86.2305 239.876 85.6083 240.48 85.6083 241.237C85.6083 242.001 86.2305 242.619 86.9878 242.619C87.7462 242.619 88.3576 242.001 88.3576 241.237C88.3576 240.48 87.7462 239.876 86.9878 239.876ZM76.2282 228.717C75.471 228.717 74.8536 229.339 74.8536 230.088C74.8536 230.855 75.471 231.467 76.2282 231.467C76.9891 231.467 77.5968 230.855 77.5968 230.088C77.5968 229.339 76.9891 228.717 76.2282 228.717ZM65.4675 217.564C64.7115 217.564 64.0989 218.179 64.0989 218.949C64.0989 219.702 64.7115 220.318 65.4675 220.318C66.2296 220.318 66.8446 219.702 66.8446 218.949C66.8446 218.18 66.2296 217.564 65.4675 217.564ZM54.7213 206.589C54.0496 206.589 53.5191 207.125 53.5191 207.783C53.5191 208.454 54.0496 208.99 54.7213 208.99C55.3857 208.99 55.9174 208.454 55.9174 207.783C55.9174 207.125 55.3845 206.589 54.7213 206.589ZM43.9617 195.22C43.1767 195.22 42.5461 195.855 42.5461 196.631C42.5461 197.414 43.1767 198.046 43.9617 198.046C44.7467 198.046 45.3798 197.415 45.3798 196.631C45.3786 195.855 44.7467 195.22 43.9617 195.22ZM33.201 184.531C32.6813 184.531 32.2641 184.962 32.2641 185.478C32.2641 186.001 32.6813 186.419 33.201 186.419C33.7231 186.419 34.1452 186.001 34.1452 185.478C34.1464 184.962 33.7231 184.531 33.201 184.531ZM22.4475 173.724C22.1123 173.724 21.8446 173.997 21.8446 174.32C21.8446 174.655 22.1123 174.928 22.4475 174.928C22.7743 174.928 23.042 174.655 23.042 174.32C23.042 173.997 22.7743 173.724 22.4475 173.724ZM11.688 162.526C11.3323 162.526 11.0525 162.816 11.0525 163.184C11.0525 163.529 11.3323 163.819 11.688 163.819C12.0497 163.819 12.3367 163.529 12.3367 163.184C12.3367 162.816 12.0485 162.526 11.688 162.526ZM0.680085 152.031C0.680085 152.159 0.792222 152.279 0.939332 152.279C1.08524 152.279 1.18894 152.16 1.18894 152.031C1.18894 151.88 1.08524 151.764 0.939332 151.764C0.791016 151.764 0.680085 151.88 0.680085 152.031ZM162.365 297.394C162.365 297.562 162.495 297.689 162.663 297.689C162.824 297.689 162.96 297.562 162.96 297.394C162.96 297.226 162.824 297.094 162.663 297.094C162.495 297.095 162.365 297.226 162.365 297.394ZM151.901 285.508C151.5 285.508 151.171 285.83 151.171 286.242C151.171 286.637 151.499 286.969 151.901 286.969C152.305 286.969 152.635 286.637 152.635 286.242C152.635 285.83 152.305 285.508 151.901 285.508ZM141.149 274.355C140.743 274.355 140.427 274.681 140.427 275.088C140.427 275.483 140.744 275.819 141.149 275.819C141.553 275.819 141.88 275.483 141.88 275.088C141.88 274.681 141.553 274.355 141.149 274.355ZM130.389 262.815C129.769 262.815 129.27 263.322 129.27 263.937C129.27 264.545 129.769 265.052 130.389 265.052C131.006 265.052 131.509 264.545 131.509 263.937C131.509 263.322 131.006 262.815 130.389 262.815ZM119.635 251.147C118.73 251.147 117.999 251.881 117.999 252.781C117.999 253.683 118.73 254.41 119.635 254.41C120.538 254.41 121.27 253.683 121.27 252.781C121.27 251.88 120.54 251.147 119.635 251.147ZM108.869 239.616C107.765 239.616 106.858 240.511 106.858 241.629C106.858 242.741 107.765 243.645 108.869 243.645C109.998 243.645 110.898 242.741 110.898 241.629C110.898 240.511 110 239.616 108.869 239.616ZM98.1271 228.749C97.1757 228.749 96.4016 229.518 96.4016 230.476C96.4016 231.426 97.1757 232.2 98.1271 232.2C99.0688 232.2 99.8406 231.427 99.8406 230.476C99.8406 229.52 99.0688 228.749 98.1271 228.749ZM87.3688 217.518C86.3692 217.518 85.5685 218.325 85.5685 219.324C85.5685 220.318 86.3692 221.121 87.3688 221.121C88.3624 221.121 89.1643 220.318 89.1643 219.324C89.1643 218.325 88.3624 217.518 87.3688 217.518ZM76.6057 205.978C75.4035 205.978 74.4207 206.955 74.4207 208.172C74.4207 209.375 75.4035 210.365 76.6057 210.365C77.8187 210.365 78.8002 209.375 78.8002 208.172C78.8002 206.955 77.8187 205.978 76.6057 205.978ZM65.8534 195.338C64.9321 195.338 64.1785 196.095 64.1785 197.013C64.1785 197.94 64.9321 198.694 65.8534 198.694C66.7746 198.694 67.521 197.94 67.521 197.013C67.521 196.095 66.7758 195.338 65.8534 195.338ZM55.1011 184.445C54.3161 184.445 53.6782 185.084 53.6782 185.856C53.6782 186.65 54.3161 187.281 55.1011 187.281C55.88 187.281 56.5143 186.65 56.5143 185.856C56.5131 185.084 55.8788 184.445 55.1011 184.445ZM44.3404 173.112C43.4577 173.112 42.7595 173.833 42.7595 174.711C42.7595 175.586 43.4577 176.303 44.3404 176.303C45.2194 176.303 45.926 175.586 45.926 174.711C45.926 173.833 45.2194 173.112 44.3404 173.112ZM33.5821 162.436C32.9647 162.436 32.4703 162.936 32.4703 163.558C32.4703 164.174 32.9647 164.67 33.5821 164.67C34.2018 164.67 34.701 164.173 34.701 163.558C34.701 162.938 34.2018 162.436 33.5821 162.436ZM22.831 151.758C22.4728 151.758 22.1834 152.038 22.1834 152.403C22.1834 152.758 22.4728 153.048 22.831 153.048C23.1795 153.048 23.4737 152.758 23.4737 152.403C23.4725 152.038 23.1783 151.758 22.831 151.758ZM12.069 140.605C11.7194 140.605 11.4215 140.886 11.4215 141.25C11.4215 141.609 11.7194 141.895 12.069 141.895C12.4211 141.895 12.7178 141.609 12.7178 141.25C12.7178 140.886 12.4211 140.605 12.069 140.605ZM1.10694 130.099C1.10694 130.217 1.19738 130.312 1.31917 130.312C1.43372 130.312 1.52898 130.217 1.52898 130.099C1.52898 129.977 1.43372 129.885 1.31917 129.885C1.19738 129.884 1.10694 129.977 1.10694 130.099ZM184.378 297.773C184.378 297.865 184.456 297.95 184.557 297.95C184.653 297.95 184.724 297.865 184.724 297.773C184.724 297.681 184.653 297.605 184.557 297.605C184.456 297.605 184.378 297.68 184.378 297.773ZM173.802 285.979C173.444 285.979 173.154 286.265 173.154 286.62C173.154 286.982 173.444 287.265 173.802 287.265C174.155 287.265 174.445 286.982 174.445 286.62C174.445 286.265 174.155 285.979 173.802 285.979ZM163.042 274.74C162.638 274.74 162.312 275.06 162.312 275.467C162.312 275.869 162.638 276.201 163.042 276.201C163.449 276.201 163.777 275.869 163.777 275.467C163.777 275.06 163.448 274.74 163.042 274.74ZM152.289 263.111C151.622 263.111 151.079 263.65 151.079 264.322C151.079 264.98 151.622 265.526 152.289 265.526C152.956 265.526 153.486 264.98 153.486 264.322C153.486 263.65 152.956 263.111 152.289 263.111ZM141.528 251.446C140.577 251.446 139.815 252.206 139.815 253.167C139.815 254.111 140.577 254.884 141.528 254.884C142.475 254.884 143.243 254.111 143.243 253.167C143.244 252.206 142.475 251.446 141.528 251.446ZM130.782 239.816C129.568 239.816 128.584 240.8 128.584 242.017C128.584 243.221 129.568 244.202 130.782 244.202C131.984 244.202 132.958 243.221 132.958 242.017C132.958 240.799 131.984 239.816 130.782 239.816ZM120.01 228.66C118.809 228.66 117.825 229.648 117.825 230.854C117.825 232.067 118.809 233.048 120.01 233.048C121.231 233.048 122.207 232.067 122.207 230.854C122.206 229.648 121.231 228.66 120.01 228.66ZM109.266 217.166C107.857 217.166 106.72 218.3 106.72 219.702C106.72 221.11 107.857 222.245 109.266 222.245C110.662 222.245 111.797 221.11 111.797 219.702C111.799 218.3 110.662 217.166 109.266 217.166ZM98.5069 205.931C97.0575 205.931 95.8831 207.105 95.8831 208.553C95.8831 210.001 97.0575 211.176 98.5069 211.176C99.9575 211.176 101.122 210.001 101.122 208.553C101.122 207.105 99.9575 205.931 98.5069 205.931ZM87.7462 195.203C86.5416 195.203 85.5601 196.18 85.5601 197.4C85.5601 198.611 86.5428 199.588 87.7462 199.588C88.9569 199.588 89.9432 198.611 89.9432 197.4C89.9432 196.18 88.9581 195.203 87.7462 195.203ZM76.9951 183.754C75.6157 183.754 74.4967 184.866 74.4967 186.242C74.4967 187.626 75.6157 188.738 76.9951 188.738C78.3649 188.738 79.4876 187.626 79.4876 186.242C79.4876 184.866 78.3649 183.754 76.9951 183.754ZM66.2356 172.941C65.0467 172.941 64.0881 173.901 64.0881 175.092C64.0881 176.281 65.0455 177.248 66.2356 177.248C67.427 177.248 68.3844 176.281 68.3844 175.092C68.3844 173.902 67.4258 172.941 66.2356 172.941ZM55.4749 162.259C54.5597 162.259 53.806 163.012 53.806 163.94C53.806 164.867 54.5597 165.611 55.4749 165.611C56.4046 165.611 57.1558 164.867 57.1558 163.94C57.1558 163.012 56.4046 162.259 55.4749 162.259ZM44.7238 151.106C43.8026 151.106 43.0453 151.86 43.0453 152.785C43.0453 153.712 43.8026 154.459 44.7238 154.459C45.6535 154.459 46.3987 153.713 46.3987 152.785C46.3987 151.861 45.6535 151.106 44.7238 151.106ZM33.9703 140.514C33.3554 140.514 32.8501 141.021 32.8501 141.629C32.8501 142.255 33.3554 142.755 33.9703 142.755C34.5817 142.755 35.0845 142.255 35.0845 141.629C35.0833 141.021 34.5817 140.514 33.9703 140.514ZM23.2096 129.884C22.8744 129.884 22.6067 130.137 22.6067 130.475C22.6067 130.807 22.8744 131.08 23.2096 131.08C23.5364 131.08 23.8041 130.807 23.8041 130.475C23.8053 130.137 23.5364 129.884 23.2096 129.884ZM12.4501 118.814C12.1703 118.814 11.9424 119.041 11.9424 119.331C11.9424 119.611 12.1703 119.841 12.4501 119.841C12.7359 119.841 12.9794 119.61 12.9794 119.331C12.9794 119.041 12.7359 118.814 12.4501 118.814ZM1.57239 108.175C1.57239 108.24 1.62424 108.3 1.70021 108.3C1.77497 108.3 1.82681 108.241 1.82681 108.175C1.82681 108.102 1.77618 108.049 1.70021 108.049C1.62424 108.05 1.57239 108.102 1.57239 108.175ZM206.365 298.16C206.365 298.203 206.402 298.242 206.451 298.242C206.504 298.242 206.541 298.203 206.541 298.16C206.541 298.111 206.504 298.069 206.451 298.069C206.402 298.069 206.365 298.111 206.365 298.16ZM195.695 286.443C195.382 286.443 195.129 286.699 195.129 286.998C195.129 287.314 195.382 287.567 195.695 287.567C196 287.567 196.249 287.313 196.249 286.998C196.249 286.699 196 286.443 195.695 286.443ZM184.938 275.297C184.63 275.297 184.377 275.543 184.377 275.852C184.377 276.162 184.63 276.419 184.938 276.419C185.249 276.419 185.49 276.162 185.49 275.852C185.49 275.543 185.249 275.297 184.938 275.297ZM174.183 263.578C173.561 263.578 173.069 264.084 173.069 264.703C173.069 265.315 173.559 265.815 174.183 265.815C174.8 265.815 175.295 265.315 175.295 264.703C175.295 264.085 174.8 263.578 174.183 263.578ZM163.423 251.83C162.477 251.83 161.711 252.593 161.711 253.547C161.711 254.495 162.477 255.267 163.423 255.267C164.37 255.267 165.145 254.495 165.145 253.547C165.144 252.593 164.369 251.83 163.423 251.83ZM152.67 240.072C151.383 240.072 150.35 241.108 150.35 242.395C150.35 243.681 151.383 244.721 152.67 244.721C153.947 244.721 154.99 243.681 154.99 242.395C154.989 241.11 153.946 240.072 152.67 240.072ZM141.912 228.914C140.632 228.914 139.598 229.963 139.598 231.233C139.598 232.519 140.632 233.558 141.912 233.558C143.19 233.558 144.229 232.519 144.229 231.233C144.229 229.963 143.19 228.914 141.912 228.914ZM131.151 217.301C129.622 217.301 128.363 218.548 128.363 220.08C128.363 221.623 129.622 222.884 131.151 222.884C132.691 222.884 133.942 221.623 133.942 220.08C133.942 218.548 132.691 217.301 131.151 217.301ZM120.408 205.494C118.505 205.494 116.97 207.033 116.97 208.941C116.97 210.833 118.507 212.372 120.408 212.372C122.298 212.372 123.836 210.833 123.836 208.941C123.836 207.033 122.297 205.494 120.408 205.494ZM109.643 194.73C107.964 194.73 106.591 196.098 106.591 197.786C106.591 199.466 107.964 200.838 109.643 200.838C111.333 200.838 112.689 199.466 112.689 197.786C112.689 196.098 111.333 194.73 109.643 194.73ZM98.888 183.577C97.2034 183.577 95.8421 184.942 95.8421 186.63C95.8421 188.315 97.2034 189.686 98.888 189.686C100.574 189.686 101.935 188.315 101.935 186.63C101.935 184.942 100.574 183.577 98.888 183.577ZM88.1297 172.724C86.6103 172.724 85.3864 173.957 85.3864 175.474C85.3864 177.001 86.6103 178.224 88.1297 178.224C89.6454 178.224 90.8801 177.001 90.8801 175.474C90.8789 173.957 89.6454 172.724 88.1297 172.724ZM77.3762 161.44C75.7833 161.44 74.4967 162.73 74.4967 164.322C74.4967 165.911 75.7833 167.194 77.3762 167.194C78.9618 167.194 80.2496 165.911 80.2496 164.322C80.2496 162.73 78.9618 161.44 77.3762 161.44ZM66.6167 150.932C65.3915 150.932 64.3859 151.936 64.3859 153.17C64.3859 154.404 65.3915 155.403 66.6167 155.403C67.8502 155.403 68.8474 154.404 68.8474 153.17C68.8474 151.936 67.8502 150.932 66.6167 150.932ZM55.8632 140.339C54.9347 140.339 54.1859 141.092 54.1859 142.017C54.1859 142.938 54.9347 143.692 55.8632 143.692C56.7844 143.692 57.5405 142.938 57.5405 142.017C57.5405 141.093 56.7844 140.339 55.8632 140.339ZM45.1024 129.269C44.2282 129.269 43.5204 129.986 43.5204 130.864C43.5204 131.739 44.2282 132.457 45.1024 132.457C45.9899 132.457 46.6893 131.739 46.6893 130.864C46.6893 129.986 45.9899 129.269 45.1024 129.269ZM34.3514 118.637C33.7605 118.637 33.2806 119.114 33.2806 119.709C33.2806 120.311 33.7605 120.788 34.3514 120.788C34.9458 120.788 35.4221 120.311 35.4221 119.709C35.4221 119.114 34.9458 118.637 34.3514 118.637ZM23.5894 108.041C23.3049 108.041 23.0733 108.274 23.0733 108.557C23.0733 108.844 23.3049 109.074 23.5894 109.074C23.8752 109.074 24.1091 108.844 24.1091 108.557C24.1079 108.274 23.8752 108.041 23.5894 108.041ZM12.8408 97.0195C12.6273 97.0195 12.4501 97.1873 12.4501 97.4046C12.4501 97.6184 12.6273 97.7934 12.8408 97.7934C13.0445 97.7934 13.2218 97.6184 13.2218 97.4046C13.2218 97.1873 13.0445 97.0195 12.8408 97.0195ZM217.33 287.38C217.33 287.53 217.452 287.646 217.589 287.646C217.733 287.646 217.848 287.532 217.848 287.38C217.848 287.244 217.733 287.13 217.589 287.13C217.452 287.13 217.33 287.245 217.33 287.38ZM206.835 275.81C206.592 275.81 206.401 276.005 206.401 276.228C206.401 276.475 206.592 276.663 206.835 276.663C207.063 276.663 207.263 276.475 207.263 276.228C207.265 276.003 207.064 275.81 206.835 275.81ZM196.076 264.095C195.527 264.095 195.085 264.532 195.085 265.088C195.085 265.631 195.527 266.072 196.076 266.072C196.617 266.072 197.06 265.632 197.06 265.088C197.06 264.533 196.618 264.095 196.076 264.095ZM185.317 252.423C184.496 252.423 183.817 253.094 183.817 253.933C183.817 254.763 184.496 255.44 185.317 255.44C186.155 255.44 186.823 254.763 186.823 253.933C186.825 253.094 186.155 252.423 185.317 252.423ZM174.564 240.537C173.332 240.537 172.332 241.535 172.332 242.771C172.332 244.011 173.333 245.018 174.564 245.018C175.801 245.018 176.795 244.011 176.795 242.771C176.795 241.533 175.801 240.537 174.564 240.537ZM163.813 229.302C162.525 229.302 161.49 230.346 161.49 231.616C161.49 232.905 162.525 233.945 163.813 233.945C165.084 233.945 166.13 232.905 166.13 231.616C166.13 230.344 165.084 229.302 163.813 229.302ZM153.051 217.498C151.415 217.498 150.087 218.837 150.087 220.462C150.087 222.11 151.415 223.439 153.051 223.439C154.684 223.439 156.01 222.11 156.01 220.462C156.009 218.838 154.684 217.498 153.051 217.498ZM142.291 205.711C140.305 205.711 138.692 207.323 138.692 209.323C138.692 211.313 140.305 212.923 142.291 212.923C144.291 212.923 145.897 211.314 145.897 209.323C145.897 207.323 144.291 205.711 142.291 205.711ZM131.54 194.726C129.646 194.726 128.103 196.262 128.103 198.167C128.103 200.069 129.647 201.605 131.54 201.605C133.436 201.605 134.977 200.068 134.977 198.167C134.977 196.263 133.436 194.726 131.54 194.726ZM120.784 182.972C118.546 182.972 116.752 184.784 116.752 187.016C116.752 189.249 118.548 191.052 120.784 191.052C123.015 191.052 124.819 189.249 124.819 187.016C124.818 184.784 123.015 182.972 120.784 182.972ZM110.029 171.859C107.817 171.859 106.037 173.656 106.037 175.859C106.037 178.06 107.818 179.853 110.029 179.853C112.226 179.853 114.014 178.06 114.014 175.859C114.014 173.656 112.226 171.859 110.029 171.859ZM99.269 161.177C97.3252 161.177 95.7492 162.756 95.7492 164.71C95.7492 166.652 97.3264 168.23 99.269 168.23C101.212 168.23 102.788 166.65 102.788 164.71C102.788 162.756 101.21 161.177 99.269 161.177ZM88.5167 150.021C86.5657 150.021 84.9861 151.602 84.9861 153.557C84.9861 155.495 86.5645 157.077 88.5167 157.077C90.4605 157.077 92.0293 155.495 92.0293 153.557C92.0293 151.604 90.4605 150.021 88.5167 150.021ZM77.756 139.52C76.1655 139.52 74.8777 140.809 74.8777 142.402C74.8777 143.985 76.1655 145.288 77.756 145.288C79.3513 145.288 80.6379 143.985 80.6379 142.402C80.6367 140.809 79.3501 139.52 77.756 139.52ZM66.9953 129.098C65.8136 129.098 64.8562 130.059 64.8562 131.249C64.8562 132.44 65.8136 133.394 66.9953 133.394C68.1866 133.394 69.1453 132.44 69.1453 131.249C69.1453 130.059 68.1866 129.098 66.9953 129.098ZM56.2442 118.496C55.3688 118.496 54.6537 119.222 54.6537 120.098C54.6537 120.973 55.3688 121.679 56.2442 121.679C57.1196 121.679 57.8323 120.972 57.8323 120.098C57.8323 119.222 57.1196 118.496 56.2442 118.496ZM45.4859 107.52C44.7118 107.52 44.0703 108.152 44.0703 108.938C44.0703 109.724 44.713 110.355 45.4859 110.355C46.2709 110.355 46.9039 109.724 46.9039 108.938C46.9039 108.152 46.2709 107.52 45.4859 107.52ZM34.724 97.0485C34.3333 97.0485 34.0005 97.3805 34.0005 97.7814C34.0005 98.1955 34.3321 98.5155 34.724 98.5155C35.1364 98.5155 35.4547 98.1967 35.4547 97.7814C35.4547 97.3817 35.1364 97.0485 34.724 97.0485ZM23.7643 86.6358C23.7643 86.7505 23.8607 86.8495 23.9825 86.8495C24.0971 86.8495 24.1887 86.7505 24.1887 86.6358C24.1887 86.5139 24.0983 86.4185 23.9825 86.4185C23.8607 86.4197 23.7643 86.5151 23.7643 86.6358ZM13.0072 75.4807C13.0072 75.6026 13.0988 75.7004 13.2218 75.7004C13.3412 75.7004 13.4352 75.6014 13.4352 75.4807C13.4352 75.3623 13.3412 75.2669 13.2218 75.2669C13.0988 75.2669 13.0072 75.3623 13.0072 75.4807ZM239.396 287.772C239.396 287.814 239.437 287.864 239.478 287.864C239.533 287.864 239.565 287.814 239.565 287.772C239.565 287.722 239.533 287.686 239.478 287.686C239.438 287.686 239.396 287.722 239.396 287.772ZM228.639 276.623C228.639 276.663 228.686 276.705 228.729 276.705C228.774 276.705 228.814 276.661 228.814 276.623C228.814 276.567 228.774 276.535 228.729 276.535C228.686 276.533 228.639 276.566 228.639 276.623ZM217.972 264.858C217.643 264.858 217.369 265.127 217.369 265.466C217.369 265.792 217.643 266.069 217.972 266.069C218.305 266.069 218.571 265.792 218.571 265.466C218.571 265.128 218.305 264.858 217.972 264.858ZM207.217 253.068C206.522 253.068 205.967 253.627 205.967 254.315C205.967 255.005 206.522 255.551 207.217 255.551C207.904 255.551 208.461 255.005 208.461 254.315C208.461 253.627 207.904 253.068 207.217 253.068ZM196.457 241.142C195.345 241.142 194.438 242.037 194.438 243.169C194.438 244.278 195.345 245.176 196.457 245.176C197.572 245.176 198.478 244.278 198.478 243.169C198.478 242.037 197.572 241.142 196.457 241.142ZM185.697 229.997C184.586 229.997 183.686 230.882 183.686 232.007C183.686 233.123 184.584 234.03 185.697 234.03C186.817 234.03 187.718 233.123 187.718 232.007C187.718 230.882 186.817 229.997 185.697 229.997ZM174.944 218.014C173.385 218.014 172.11 219.287 172.11 220.851C172.11 222.417 173.385 223.689 174.944 223.689C176.508 223.689 177.78 222.417 177.78 220.851C177.779 219.288 176.508 218.014 174.944 218.014ZM164.185 206.089C162.198 206.089 160.58 207.701 160.58 209.694C160.58 211.695 162.198 213.313 164.185 213.313C166.185 213.313 167.798 211.694 167.798 209.694C167.798 207.701 166.185 206.089 164.185 206.089ZM153.432 194.934C151.44 194.934 149.831 196.555 149.831 198.546C149.831 200.543 151.44 202.151 153.432 202.151C155.425 202.151 157.037 200.542 157.037 198.546C157.037 196.555 155.424 194.934 153.432 194.934ZM142.674 183.096C140.305 183.096 138.382 185.015 138.382 187.39C138.382 189.774 140.304 191.697 142.674 191.697C145.053 191.697 146.964 189.774 146.964 187.39C146.964 185.015 145.053 183.096 142.674 183.096ZM131.921 171.642C129.378 171.642 127.324 173.694 127.324 176.238C127.324 178.777 129.378 180.844 131.921 180.844C134.46 180.844 136.516 178.779 136.516 176.238C136.517 173.694 134.46 171.642 131.921 171.642ZM121.163 160.147C118.434 160.147 116.225 162.354 116.225 165.089C116.225 167.817 118.434 170.03 121.163 170.03C123.889 170.03 126.1 167.815 126.1 165.089C126.1 162.354 123.891 160.147 121.163 160.147ZM110.402 149.721C108.085 149.721 106.199 151.604 106.199 153.935C106.199 156.258 108.085 158.149 110.402 158.149C112.733 158.149 114.619 156.257 114.619 153.935C114.619 151.604 112.733 149.721 110.402 149.721ZM99.6573 139.264C97.7063 139.264 96.1303 140.83 96.1303 142.778C96.1303 144.735 97.7063 146.304 99.6573 146.304C101.603 146.304 103.17 144.735 103.17 142.778C103.169 140.83 101.603 139.264 99.6573 139.264ZM88.8905 128.272C87.0456 128.272 85.548 129.771 85.548 131.624C85.548 133.483 87.0456 134.979 88.8905 134.979C90.7487 134.979 92.2439 133.482 92.2439 131.624C92.2427 129.773 90.7475 128.272 88.8905 128.272ZM78.1382 117.722C76.6201 117.722 75.3878 118.956 75.3878 120.472C75.3878 121.995 76.6201 123.225 78.1382 123.225C79.6612 123.225 80.8815 121.995 80.8815 120.472C80.8815 118.956 79.6612 117.722 78.1382 117.722ZM67.3872 107.389C66.3212 107.389 65.4567 108.257 65.4567 109.319C65.4567 110.395 66.32 111.257 67.3872 111.257C68.4567 111.257 69.3237 110.395 69.3237 109.319C69.3237 108.257 68.4567 107.389 67.3872 107.389ZM56.6252 99.3715C57.2921 99.3715 57.8323 98.8354 57.8323 98.1641C57.8323 97.5061 57.2921 96.9639 56.6252 96.9639C55.9644 96.9639 55.4242 97.5073 55.4242 98.1641C55.4242 98.8354 55.9644 99.3715 56.6252 99.3715ZM45.8645 87.9652C46.3951 87.9652 46.8087 87.5305 46.8087 87.0113C46.8087 86.491 46.3951 86.0732 45.8645 86.0732C45.3472 86.0732 44.9204 86.491 44.9204 87.0113C44.9204 87.5317 45.3472 87.9652 45.8645 87.9652ZM35.1134 75.3068C34.8096 75.3068 34.5515 75.5507 34.5515 75.8622C34.5515 76.1713 34.8096 76.4152 35.1134 76.4152C35.4221 76.4152 35.6705 76.1713 35.6705 75.8622C35.6705 75.5495 35.4221 75.3068 35.1134 75.3068ZM24.2683 64.7094C24.2683 64.7626 24.3117 64.7915 24.3527 64.7915C24.4082 64.7915 24.448 64.7613 24.448 64.7094C24.448 64.6636 24.4082 64.6237 24.3527 64.6237C24.3105 64.6249 24.2683 64.6636 24.2683 64.7094ZM239.861 265.466C239.649 265.466 239.478 265.631 239.478 265.848C239.478 266.058 239.649 266.233 239.861 266.233C240.074 266.233 240.251 266.059 240.251 265.848C240.251 265.631 240.074 265.466 239.861 265.466ZM229.11 253.962C228.71 253.962 228.38 254.288 228.38 254.695C228.38 255.1 228.71 255.42 229.11 255.42C229.505 255.42 229.843 255.101 229.843 254.695C229.842 254.288 229.505 253.962 229.11 253.962ZM218.352 242.554C217.812 242.554 217.369 242.994 217.369 243.544C217.369 244.093 217.811 244.528 218.352 244.528C218.897 244.528 219.341 244.093 219.341 243.544C219.341 242.994 218.897 242.554 218.352 242.554ZM207.599 230.667C206.646 230.667 205.878 231.436 205.878 232.387C205.878 233.331 206.645 234.108 207.599 234.108C208.543 234.108 209.313 233.331 209.313 232.387C209.313 231.437 208.543 230.667 207.599 230.667ZM196.838 219.004C195.605 219.004 194.606 220.002 194.606 221.234C194.606 222.468 195.607 223.468 196.838 223.468C198.071 223.468 199.077 222.468 199.077 221.234C199.077 220.002 198.071 219.004 196.838 219.004ZM186.084 206.935C184.359 206.935 182.947 208.353 182.947 210.084C182.947 211.818 184.36 213.219 186.084 213.219C187.816 213.219 189.227 211.817 189.227 210.084C189.227 208.353 187.816 206.935 186.084 206.935ZM175.326 195.489C173.436 195.489 171.891 197.028 171.891 198.927C171.891 200.835 173.436 202.368 175.326 202.368C177.222 202.368 178.764 200.834 178.764 198.927C178.765 197.03 177.223 195.489 175.326 195.489ZM164.575 183.481C162.198 183.481 160.286 185.402 160.286 187.777C160.286 190.15 162.198 192.077 164.575 192.077C166.947 192.077 168.864 190.15 168.864 187.777C168.864 185.402 166.947 183.481 164.575 183.481ZM153.813 171.592C151.04 171.592 148.794 173.845 148.794 176.622C148.794 179.392 151.04 181.656 153.813 181.656C156.591 181.656 158.836 179.392 158.836 176.622C158.836 173.845 156.591 171.592 153.813 171.592ZM143.063 159.838C139.953 159.838 137.442 162.358 137.442 165.471C137.442 168.58 139.953 171.106 143.063 171.106C146.173 171.106 148.689 168.579 148.689 165.471C148.689 162.358 146.173 159.838 143.063 159.838ZM132.302 149.374C129.574 149.374 127.362 151.588 127.362 154.318C127.362 157.051 129.574 159.262 132.302 159.262C135.031 159.262 137.231 157.051 137.231 154.318C137.231 151.587 135.031 149.374 132.302 149.374ZM121.544 138.217C118.823 138.217 116.606 140.434 116.606 143.165C116.606 145.896 118.823 148.106 121.544 148.106C124.27 148.106 126.489 145.895 126.489 143.165C126.489 140.435 124.272 138.217 121.544 138.217ZM110.791 128.056C108.602 128.056 106.845 129.826 106.845 132.006C106.845 134.191 108.603 135.974 110.791 135.974C112.971 135.974 114.736 134.191 114.736 132.006C114.737 129.825 112.971 128.056 110.791 128.056ZM100.031 117.504C98.1802 117.504 96.6886 119.004 96.6886 120.85C96.6886 122.702 98.1802 124.205 100.031 124.205C101.882 124.205 103.382 122.702 103.382 120.85C103.382 119.005 101.882 117.504 100.031 117.504ZM89.28 106.694C87.6196 106.694 86.2691 108.05 86.2691 109.704C86.2691 111.366 87.6196 112.714 89.28 112.714C90.9356 112.714 92.2885 111.366 92.2885 109.704C92.2873 108.05 90.9356 106.694 89.28 106.694ZM78.5265 100.661C79.6853 100.661 80.6234 99.7108 80.6234 98.5517C80.6234 97.3841 79.6853 96.4496 78.5265 96.4496C77.3533 96.4496 76.4188 97.3841 76.4188 98.5517C76.4188 99.7108 77.3533 100.661 78.5265 100.661ZM67.7658 88.7319C68.4965 88.7319 69.0994 88.127 69.0994 87.4001C69.0994 86.66 68.4965 86.0611 67.7658 86.0611C67.0351 86.0611 66.4322 86.66 66.4322 87.4001C66.4322 88.127 67.0351 88.7319 67.7658 88.7319ZM57.0063 75.2971C56.4902 75.2971 56.0621 75.7246 56.0621 76.2413C56.0621 76.7714 56.4902 77.1891 57.0063 77.1891C57.5356 77.1891 57.9504 76.7714 57.9504 76.2413C57.9504 75.7246 57.5356 75.2971 57.0063 75.2971ZM46.254 65.7369C46.6145 65.7369 46.8955 65.4447 46.8955 65.0922C46.8955 64.7372 46.6145 64.4474 46.254 64.4474C45.8959 64.4474 45.6089 64.7372 45.6089 65.0922C45.6089 65.4435 45.8959 65.7369 46.254 65.7369ZM35.6223 53.9394C35.6223 53.8634 35.5632 53.8078 35.4945 53.8078C35.427 53.8078 35.3667 53.8634 35.3667 53.9394C35.3667 54.0179 35.4282 54.0746 35.4945 54.0746C35.5632 54.0746 35.6223 54.0179 35.6223 53.9394ZM251.006 254.653C250.769 254.653 250.57 254.838 250.57 255.08C250.57 255.317 250.769 255.511 251.006 255.511C251.238 255.511 251.428 255.317 251.428 255.08C251.428 254.838 251.24 254.653 251.006 254.653ZM240.251 243.195C239.851 243.195 239.52 243.523 239.52 243.928C239.52 244.322 239.851 244.658 240.251 244.658C240.646 244.658 240.985 244.322 240.985 243.928C240.985 243.524 240.646 243.195 240.251 243.195ZM229.491 231.7C228.898 231.7 228.418 232.17 228.418 232.772C228.418 233.368 228.898 233.845 229.491 233.845C230.086 233.845 230.566 233.368 230.566 232.772C230.565 232.171 230.086 231.7 229.491 231.7ZM218.734 219.771C217.718 219.771 216.888 220.597 216.888 221.614C216.888 222.64 217.718 223.469 218.734 223.469C219.763 223.469 220.585 222.64 220.585 221.614C220.585 220.597 219.763 219.771 218.734 219.771ZM207.98 207.757C206.484 207.757 205.273 208.972 205.273 210.468C205.273 211.965 206.484 213.179 207.98 213.179C209.474 213.179 210.687 211.965 210.687 210.468C210.687 208.971 209.472 207.757 207.98 207.757ZM197.226 196.601C195.732 196.601 194.524 197.818 194.524 199.312C194.524 200.811 195.733 202.022 197.226 202.022C198.713 202.022 199.933 200.811 199.933 199.312C199.933 197.818 198.713 196.601 197.226 196.601ZM186.468 184.548C184.481 184.548 182.865 186.167 182.865 188.163C182.865 190.15 184.479 191.771 186.468 191.771C188.455 191.771 190.073 190.15 190.073 188.163C190.073 186.167 188.455 184.548 186.468 184.548ZM175.714 172.355C173.148 172.355 171.077 174.438 171.077 177.011C171.077 179.573 173.148 181.643 175.714 181.643C178.277 181.643 180.349 179.573 180.349 177.011C180.349 174.438 178.277 172.355 175.714 172.355ZM164.946 160.134C161.802 160.134 159.242 162.694 159.242 165.852C159.242 169.014 161.803 171.573 164.946 171.573C168.114 171.573 170.664 169.013 170.664 165.852C170.664 162.694 168.113 160.134 164.946 160.134ZM148.487 154.696C148.487 157.857 151.049 160.416 154.194 160.416C157.353 160.416 159.912 157.857 159.912 154.696C159.912 151.541 157.352 148.981 154.194 148.981C151.049 148.981 148.487 151.541 148.487 154.696ZM143.436 149.139C146.523 149.139 149.022 146.642 149.022 143.543C149.022 140.464 146.521 137.954 143.436 137.954C140.358 137.954 137.859 140.464 137.859 143.543C137.859 146.642 140.358 149.139 143.436 149.139ZM132.683 136.905C135.173 136.905 137.194 134.892 137.194 132.394C137.194 129.897 135.173 127.877 132.683 127.877C130.196 127.877 128.181 129.897 128.181 132.394C128.181 134.892 130.197 136.905 132.683 136.905ZM121.932 125.756C124.416 125.756 126.439 123.733 126.439 121.235C126.439 118.742 124.416 116.725 121.932 116.725C119.434 116.725 117.42 118.742 117.42 121.235C117.42 123.732 119.434 125.756 121.932 125.756ZM111.173 113.616C113.114 113.616 114.691 112.037 114.691 110.093C114.691 108.142 113.114 106.553 111.173 106.553C109.227 106.553 107.651 108.142 107.651 110.093C107.651 112.037 109.225 113.616 111.173 113.616ZM100.411 101.55C101.862 101.55 103.032 100.378 103.032 98.9344C103.032 97.4868 101.862 96.312 100.411 96.312C98.9724 96.312 97.8003 97.4868 97.8003 98.9344C97.8003 100.378 98.9712 101.55 100.411 101.55ZM89.6586 89.8874C90.8271 89.8874 91.7652 88.9468 91.7652 87.778C91.7652 86.6165 90.8271 85.676 89.6586 85.676C88.4926 85.676 87.5581 86.6165 87.5581 87.778C87.5581 88.9456 88.4926 89.8874 89.6586 89.8874ZM78.9076 78.3458C79.8517 78.3458 80.6222 77.5731 80.6222 76.6253C80.6222 75.6775 79.8517 74.9084 78.9076 74.9084C77.9526 74.9084 77.1857 75.6787 77.1857 76.6253C77.1857 77.5731 77.9526 78.3458 78.9076 78.3458ZM68.1456 66.4698C68.6991 66.4698 69.1308 66.0195 69.1308 65.4761C69.1308 64.9232 68.6991 64.4788 68.1456 64.4788C67.6066 64.4788 67.1569 64.9232 67.1569 65.4761C67.1569 66.0195 67.6066 66.4698 68.1456 66.4698ZM57.3873 54.7097C57.6092 54.7097 57.778 54.5419 57.778 54.3282C57.778 54.1109 57.6092 53.9334 57.3873 53.9334C57.1835 53.9334 57.0003 54.1109 57.0003 54.3282C57.0003 54.5419 57.1835 54.7097 57.3873 54.7097ZM46.6374 42.777C46.4216 42.777 46.248 42.9545 46.248 43.1718C46.248 43.3855 46.4216 43.557 46.6374 43.557C46.8424 43.557 47.0173 43.3855 47.0173 43.1718C47.0161 42.9545 46.8424 42.777 46.6374 42.777ZM272.721 255.465C272.721 255.551 272.806 255.637 272.894 255.637C272.995 255.637 273.075 255.551 273.075 255.465C273.075 255.366 272.995 255.282 272.894 255.282C272.806 255.282 272.721 255.368 272.721 255.465ZM261.975 244.303C261.975 244.404 262.046 244.484 262.134 244.484C262.238 244.484 262.313 244.404 262.313 244.303C262.313 244.204 262.237 244.138 262.134 244.138C262.045 244.139 261.975 244.205 261.975 244.303ZM251.387 232.417C250.988 232.417 250.652 232.746 250.652 233.154C250.652 233.555 250.988 233.888 251.387 233.888C251.787 233.888 252.115 233.556 252.115 233.154C252.115 232.746 251.788 232.417 251.387 232.417ZM240.631 220.584C239.851 220.584 239.218 221.215 239.218 222.001C239.218 222.791 239.849 223.419 240.631 223.419C241.418 223.419 242.052 222.79 242.052 222.001C242.051 221.216 241.417 220.584 240.631 220.584ZM229.872 209.133C228.928 209.133 228.159 209.892 228.159 210.853C228.159 211.797 228.927 212.564 229.872 212.564C230.819 212.564 231.586 211.797 231.586 210.853C231.585 209.892 230.818 209.133 229.872 209.133ZM219.12 197.463C217.888 197.463 216.881 198.457 216.881 199.704C216.881 200.931 217.888 201.931 219.12 201.931C220.356 201.931 221.351 200.931 221.351 199.704C221.351 198.457 220.356 197.463 219.12 197.463ZM208.361 185.402C206.629 185.402 205.229 186.807 205.229 188.544C205.229 190.278 206.629 191.672 208.361 191.672C210.091 191.672 211.503 190.278 211.503 188.544C211.503 186.808 210.09 185.402 208.361 185.402ZM197.599 173.957C195.709 173.957 194.173 175.487 194.173 177.389C194.173 179.291 195.709 180.836 197.599 180.836C199.506 180.836 201.035 179.289 201.035 177.389C201.035 175.487 199.506 173.957 197.599 173.957ZM186.846 162.194C184.616 162.194 182.812 164.004 182.812 166.237C182.812 168.469 184.616 170.274 186.846 170.274C189.072 170.274 190.888 168.467 190.888 166.237C190.888 164.002 189.072 162.194 186.846 162.194ZM176.088 150.051C173.315 150.051 171.066 152.3 171.066 155.087C171.066 157.857 173.315 160.111 176.088 160.111C178.872 160.111 181.11 157.858 181.11 155.087C181.11 152.3 178.874 150.051 176.088 150.051ZM165.333 138.293C162.228 138.293 159.712 140.823 159.712 143.929C159.712 147.038 162.228 149.562 165.333 149.562C168.444 149.562 170.959 147.038 170.959 143.929C170.959 140.823 168.444 138.293 165.333 138.293ZM154.575 137.721C157.305 137.721 159.515 135.501 159.515 132.777C159.515 130.047 157.306 127.832 154.575 127.832C151.856 127.832 149.647 130.047 149.647 132.777C149.647 135.499 151.856 137.721 154.575 137.721ZM143.825 126.568C146.547 126.568 148.762 124.361 148.762 121.628C148.762 118.89 146.548 116.68 143.825 116.68C141.099 116.68 138.883 118.89 138.883 121.628C138.883 124.361 141.098 126.568 143.825 126.568ZM133.066 114.425C135.246 114.425 137.02 112.655 137.02 110.471C137.02 108.287 135.246 106.513 133.066 106.513C130.886 106.513 129.117 108.287 129.117 110.471C129.117 112.655 130.886 114.425 133.066 114.425ZM122.312 102.675C124.161 102.675 125.666 101.172 125.666 99.316C125.666 97.4674 124.161 95.9642 122.312 95.9642C120.461 95.9642 118.961 97.4674 118.961 99.316C118.96 101.171 120.46 102.675 122.312 102.675ZM111.551 90.6601C112.931 90.6601 114.045 89.5481 114.045 88.1632C114.045 86.788 112.931 85.676 111.551 85.676C110.179 85.676 109.061 86.788 109.061 88.1632C109.061 89.5481 110.18 90.6601 111.551 90.6601ZM100.8 79.1125C101.969 79.1125 102.905 78.178 102.905 77.0068C102.905 75.8525 101.969 74.9011 100.8 74.9011C99.6344 74.9011 98.6975 75.8525 98.6975 77.0068C98.6975 78.178 99.6332 79.1125 100.8 79.1125ZM90.0421 67.5299C90.9633 67.5299 91.717 66.7898 91.717 65.8613C91.717 64.9244 90.9633 64.1806 90.0421 64.1806C89.1208 64.1806 88.3636 64.9244 88.3636 65.8613C88.3624 66.7886 89.1196 67.5299 90.0421 67.5299ZM79.2802 55.6503C79.8047 55.6503 80.2267 55.2229 80.2267 54.7097C80.2267 54.1797 79.8047 53.7619 79.2802 53.7619C78.7629 53.7619 78.336 54.1797 78.336 54.7097C78.336 55.2217 78.7629 55.6503 79.2802 55.6503ZM68.5279 44.1921C68.8884 44.1921 69.1706 43.912 69.1706 43.557C69.1706 43.1887 68.8884 42.905 68.5279 42.905C68.1697 42.905 67.8888 43.1875 67.8888 43.557C67.8888 43.912 68.1697 44.1921 68.5279 44.1921ZM57.4729 32.3982C57.4729 32.5684 57.6092 32.6976 57.778 32.6976C57.936 32.6976 58.077 32.5696 58.077 32.3982C58.077 32.2304 57.936 32.1048 57.778 32.1048C57.6092 32.1048 57.4729 32.2304 57.4729 32.3982ZM273.276 233.154C273.075 233.154 272.894 233.325 272.894 233.535C272.894 233.746 273.075 233.923 273.276 233.923C273.488 233.923 273.665 233.746 273.665 233.535C273.667 233.325 273.488 233.154 273.276 233.154ZM262.526 221.785C262.19 221.785 261.922 222.045 261.922 222.384C261.922 222.716 262.19 222.986 262.526 222.986C262.855 222.986 263.125 222.717 263.125 222.384C263.125 222.045 262.855 221.785 262.526 221.785ZM251.773 209.984C251.078 209.984 250.522 210.539 250.522 211.231C250.522 211.916 251.077 212.478 251.773 212.478C252.453 212.478 253.016 211.916 253.016 211.231C253.017 210.541 252.454 209.984 251.773 209.984ZM241.009 198.361C240.06 198.361 239.29 199.128 239.29 200.082C239.29 201.032 240.06 201.793 241.009 201.793C241.957 201.793 242.728 201.033 242.728 200.082C242.728 199.128 241.958 198.361 241.009 198.361ZM230.262 186.9C229.141 186.9 228.234 187.811 228.234 188.92C228.234 190.035 229.141 190.943 230.262 190.943C231.368 190.943 232.279 190.035 232.279 188.92C232.278 187.811 231.366 186.9 230.262 186.9ZM219.5 174.938C217.93 174.938 216.666 176.208 216.666 177.773C216.666 179.339 217.93 180.609 219.5 180.609C221.064 180.609 222.329 179.339 222.329 177.773C222.329 176.208 221.064 174.938 219.5 174.938ZM208.739 163.184C206.844 163.184 205.312 164.717 205.312 166.621C205.312 168.516 206.843 170.055 208.739 170.055C210.647 170.055 212.177 168.516 212.177 166.621C212.178 164.717 210.647 163.184 208.739 163.184ZM197.988 151.848C195.994 151.848 194.376 153.473 194.376 155.47C194.376 157.457 195.994 159.075 197.988 159.075C199.975 159.075 201.594 157.456 201.594 155.47C201.594 153.473 199.975 151.848 197.988 151.848ZM187.23 140.01C184.859 140.01 182.937 141.928 182.937 144.317C182.937 146.682 184.859 148.611 187.23 148.611C189.6 148.611 191.519 146.682 191.519 144.317C191.519 141.928 189.6 140.01 187.23 140.01ZM176.478 137.757C179.013 137.757 181.072 135.695 181.072 133.165C181.072 130.619 179.013 128.557 176.478 128.557C173.939 128.557 171.88 130.619 171.88 133.165C171.88 135.694 173.941 137.757 176.478 137.757ZM165.718 126.956C168.444 126.956 170.655 124.739 170.655 122.004C170.655 119.277 168.446 117.064 165.718 117.064C162.994 117.064 160.778 119.278 160.778 122.004C160.778 124.739 162.994 126.956 165.718 126.956ZM154.966 115.064C157.281 115.064 159.173 113.182 159.173 110.847C159.173 108.527 157.281 106.645 154.966 106.645C152.635 106.645 150.753 108.527 150.753 110.847C150.753 113.182 152.635 115.064 154.966 115.064ZM144.205 103.224C146.15 103.224 147.725 101.649 147.725 99.7011C147.725 97.7536 146.15 96.1743 144.205 96.1743C142.261 96.1743 140.686 97.7536 140.686 99.7011C140.686 101.647 142.261 103.224 144.205 103.224ZM133.447 91.9037C135.3 91.9037 136.8 90.3969 136.8 88.5484C136.8 86.6926 135.3 85.1894 133.447 85.1894C131.602 85.1894 130.102 86.6926 130.102 88.5484C130.102 90.3969 131.602 91.9037 133.447 91.9037ZM122.694 80.1461C124.21 80.1461 125.446 78.9121 125.446 77.3859C125.446 75.8791 124.211 74.6451 122.694 74.6451C121.176 74.6451 119.944 75.8791 119.944 77.3859C119.944 78.9121 121.176 80.1461 122.694 80.1461ZM111.935 68.1711C113 68.1711 113.862 67.309 113.862 66.2392C113.862 65.1707 113 64.3086 111.935 64.3086C110.869 64.3086 110 65.1707 110 66.2392C110 67.309 110.868 68.1711 111.935 68.1711ZM101.181 56.2914C101.847 56.2914 102.385 55.7481 102.385 55.0913C102.385 54.42 101.846 53.8839 101.181 53.8839C100.519 53.8839 99.9804 54.42 99.9804 55.0913C99.9804 55.7481 100.519 56.2914 101.181 56.2914ZM90.4219 45.1363C91.0875 45.1363 91.6277 44.5966 91.6277 43.9252C91.6277 43.2672 91.0875 42.7311 90.4219 42.7311C89.7611 42.7311 89.2209 43.2672 89.2209 43.9252C89.2197 44.5966 89.7611 45.1363 90.4219 45.1363ZM79.6612 33.3424C79.9783 33.3424 80.2267 33.0924 80.2267 32.7773C80.2267 32.4743 79.9783 32.2243 79.6612 32.2243C79.3658 32.2243 79.1125 32.4743 79.1125 32.7773C79.1125 33.0912 79.3658 33.3424 79.6612 33.3424ZM68.9921 21.627C68.9921 21.5811 68.9559 21.5449 68.9186 21.5449C68.8679 21.5449 68.8245 21.5811 68.8245 21.627C68.8245 21.6789 68.8679 21.7091 68.9186 21.7091C68.9559 21.7091 68.9921 21.6789 68.9921 21.627ZM284.161 222.765C284.161 222.903 284.273 223.025 284.418 223.025C284.566 223.025 284.677 222.903 284.677 222.765C284.677 222.634 284.565 222.508 284.418 222.508C284.273 222.508 284.161 222.634 284.161 222.765ZM273.667 210.793C273.21 210.793 272.842 211.155 272.842 211.609C272.842 212.063 273.21 212.431 273.667 212.431C274.116 212.431 274.483 212.063 274.483 211.609C274.482 211.155 274.116 210.793 273.667 210.793ZM262.906 199.641C262.466 199.641 262.093 200.013 262.093 200.456C262.093 200.904 262.466 201.276 262.906 201.276C263.354 201.276 263.725 200.904 263.725 200.456C263.725 200.013 263.354 199.641 262.906 199.641ZM252.15 187.802C251.325 187.802 250.644 188.476 250.644 189.301C250.644 190.143 251.325 190.808 252.15 190.808C252.986 190.808 253.655 190.143 253.655 189.301C253.654 188.475 252.986 187.802 252.15 187.802ZM241.393 175.918C240.159 175.918 239.162 176.918 239.162 178.148C239.162 179.388 240.159 180.386 241.393 180.386C242.622 180.386 243.627 179.388 243.627 178.148C243.626 176.918 242.622 175.918 241.393 175.918ZM230.635 164.766C229.401 164.766 228.403 165.763 228.403 166.996C228.403 168.228 229.401 169.239 230.635 169.239C231.87 169.239 232.874 168.23 232.874 166.996C232.874 165.762 231.869 164.766 230.635 164.766ZM219.882 152.876C218.242 152.876 216.92 154.206 216.92 155.846C216.92 157.485 218.244 158.817 219.882 158.817C221.514 158.817 222.844 157.484 222.844 155.846C222.845 154.206 221.514 152.876 219.882 152.876ZM209.123 141.082C207.136 141.082 205.517 142.701 205.517 144.691C205.517 146.682 207.136 148.307 209.123 148.307C211.12 148.307 212.733 146.682 212.733 144.691C212.733 142.701 211.12 141.082 209.123 141.082ZM198.369 130.099C196.465 130.099 194.934 131.645 194.934 133.536C194.934 135.44 196.465 136.981 198.369 136.981C200.268 136.981 201.807 135.441 201.807 133.536C201.807 131.644 200.268 130.099 198.369 130.099ZM187.61 118.347C185.384 118.347 183.575 120.163 183.575 122.383C183.575 124.617 185.384 126.427 187.61 126.427C189.842 126.427 191.65 124.617 191.65 122.383C191.65 120.163 189.842 118.347 187.61 118.347ZM176.85 115.232C179.07 115.232 180.85 113.449 180.85 111.232C180.85 109.027 179.069 107.245 176.85 107.245C174.648 107.245 172.869 109.028 172.869 111.232C172.869 113.449 174.65 115.232 176.85 115.232ZM166.105 103.434C167.954 103.434 169.452 101.924 169.452 100.089C169.452 98.2329 167.952 96.7273 166.105 96.7273C164.247 96.7273 162.752 98.2341 162.752 100.089C162.753 101.924 164.248 103.434 166.105 103.434ZM155.34 92.4591C157.289 92.4591 158.862 90.8762 158.862 88.9359C158.862 86.9751 157.289 85.4019 155.34 85.4019C153.403 85.4019 151.82 86.9739 151.82 88.9359C151.819 90.8774 153.402 92.4591 155.34 92.4591ZM144.587 80.6556C146.173 80.6556 147.469 79.3661 147.469 77.7808C147.469 76.1858 146.173 74.889 144.587 74.889C143 74.889 141.708 76.1858 141.708 77.7808C141.708 79.3661 143 80.6556 144.587 80.6556ZM133.828 68.776C135.016 68.776 135.978 67.8052 135.978 66.6183C135.978 65.4303 135.016 64.4704 133.828 64.4704C132.644 64.4704 131.687 65.4303 131.687 66.6183C131.687 67.8064 132.642 68.776 133.828 68.776ZM123.074 57.0581C123.95 57.0581 124.66 56.3542 124.66 55.4656C124.66 54.5878 123.951 53.8839 123.074 53.8839C122.2 53.8839 121.479 54.5878 121.479 55.4656C121.479 56.3542 122.2 57.0581 123.074 57.0581ZM112.322 45.7376C113.107 45.7376 113.738 45.0964 113.738 44.3201C113.738 43.5304 113.107 42.8953 112.322 42.8953C111.535 42.8953 110.898 43.5304 110.898 44.3201C110.898 45.0964 111.536 45.7376 112.322 45.7376ZM101.562 33.8978C101.969 33.8978 102.287 33.5657 102.287 33.1601C102.287 32.7544 101.969 32.4296 101.562 32.4296C101.159 32.4296 100.832 32.7556 100.832 33.1601C100.832 33.5645 101.159 33.8978 101.562 33.8978ZM90.8042 22.3937C91.0164 22.3937 91.1924 22.2222 91.1924 22.0061C91.1924 21.802 91.0164 21.6282 90.8042 21.6282C90.5895 21.6282 90.4219 21.802 90.4219 22.0061C90.4219 22.2222 90.5883 22.3937 90.8042 22.3937ZM295.475 211.994C295.475 212.044 295.503 212.08 295.557 212.08C295.605 212.08 295.644 212.044 295.644 211.994C295.644 211.948 295.604 211.909 295.557 211.909C295.503 211.909 295.475 211.948 295.475 211.994ZM284.797 200.421C284.566 200.421 284.373 200.602 284.373 200.843C284.373 201.079 284.565 201.274 284.797 201.274C285.036 201.274 285.233 201.079 285.233 200.843C285.233 200.601 285.035 200.421 284.797 200.421ZM274.046 188.699C273.497 188.699 273.054 189.147 273.054 189.689C273.054 190.238 273.497 190.679 274.046 190.679C274.59 190.679 275.03 190.238 275.03 189.689C275.032 189.147 274.591 188.699 274.046 188.699ZM263.288 177.415C262.671 177.415 262.174 177.913 262.174 178.537C262.174 179.149 262.671 179.649 263.288 179.649C263.904 179.649 264.407 179.149 264.407 178.537C264.407 177.912 263.904 177.415 263.288 177.415ZM252.536 165.753C251.631 165.753 250.898 166.48 250.898 167.386C250.898 168.28 251.631 169.014 252.536 169.014C253.434 169.014 254.16 168.28 254.16 167.386C254.16 166.48 253.434 165.753 252.536 165.753ZM241.775 153.903C240.496 153.903 239.461 154.949 239.461 156.228C239.461 157.511 240.496 158.551 241.775 158.551C243.056 158.551 244.091 157.511 244.091 156.228C244.091 154.949 243.057 153.903 241.775 153.903ZM231.024 142.753C229.737 142.753 228.71 143.797 228.71 145.076C228.71 146.366 229.739 147.399 231.024 147.399C232.302 147.399 233.338 146.366 233.338 145.076C233.338 143.797 232.301 142.753 231.024 142.753ZM220.257 131.131C218.722 131.131 217.474 132.378 217.474 133.921C217.474 135.47 218.722 136.724 220.257 136.724C221.812 136.724 223.06 135.47 223.06 133.921C223.06 132.378 221.812 131.131 220.257 131.131ZM209.51 119.331C207.606 119.331 206.074 120.874 206.074 122.762C206.074 124.677 207.606 126.21 209.51 126.21C211.408 126.21 212.948 124.676 212.948 122.762C212.949 120.873 211.408 119.331 209.51 119.331ZM198.75 114.669C200.435 114.669 201.791 113.307 201.791 111.629C201.791 109.935 200.435 108.566 198.75 108.566C197.067 108.566 195.703 109.935 195.703 111.629C195.703 113.307 197.067 114.669 198.75 114.669ZM187.992 103.52C189.684 103.52 191.047 102.158 191.047 100.47C191.047 98.7787 189.684 97.4107 187.992 97.4107C186.315 97.4107 184.944 98.7787 184.944 100.47C184.944 102.158 186.315 103.52 187.992 103.52ZM177.24 92.6668C179.091 92.6668 180.586 91.1563 180.586 89.3114C180.586 87.4593 179.091 85.9597 177.24 85.9597C175.386 85.9597 173.892 87.4593 173.892 89.3114C173.892 91.1563 175.388 92.6668 177.24 92.6668ZM166.48 80.9128C167.995 80.9128 169.232 79.6824 169.232 78.1587C169.232 76.6458 167.995 75.3986 166.48 75.3986C164.964 75.3986 163.728 76.6458 163.728 78.1587C163.728 79.6824 164.964 80.9128 166.48 80.9128ZM155.728 69.2372C156.961 69.2372 157.953 68.2399 157.953 67.0132C157.953 65.7695 156.961 64.7662 155.728 64.7662C154.493 64.7662 153.496 65.7695 153.496 67.0132C153.496 68.2399 154.493 69.2372 155.728 69.2372ZM144.967 57.5254C145.897 57.5254 146.643 56.7756 146.643 55.8507C146.643 54.9295 145.897 54.1761 144.967 54.1761C144.046 54.1761 143.291 54.9295 143.291 55.8507C143.291 56.7756 144.045 57.5254 144.967 57.5254ZM134.215 46.2942C135.089 46.2942 135.801 45.5866 135.801 44.698C135.801 43.8202 135.089 43.109 134.215 43.109C133.341 43.109 132.621 43.8202 132.621 44.698C132.622 45.5866 133.341 46.2942 134.215 46.2942ZM123.457 34.6222C124.051 34.6222 124.535 34.1393 124.535 33.5525C124.535 32.9536 124.052 32.473 123.457 32.473C122.86 32.473 122.381 32.9536 122.381 33.5525C122.381 34.1381 122.861 34.6222 123.457 34.6222ZM112.697 22.9129C112.988 22.9129 113.214 22.6762 113.214 22.3925C113.214 22.1123 112.988 21.8757 112.697 21.8757C112.416 21.8757 112.186 22.1123 112.186 22.3925C112.186 22.6762 112.416 22.9129 112.697 22.9129ZM101.944 11.6261C102.157 11.6261 102.333 11.4582 102.333 11.2409C102.333 11.0272 102.157 10.8497 101.944 10.8497C101.728 10.8497 101.562 11.0272 101.562 11.2409C101.562 11.4582 101.728 11.6261 101.944 11.6261ZM91.2768 0.0857244C91.2768 0.042258 91.231 0 91.1912 0C91.1358 0 91.1008 0.042258 91.1008 0.0857244C91.1008 0.125569 91.1358 0.173872 91.1912 0.173872C91.231 0.173872 91.2768 0.124361 91.2768 0.0857244ZM295.773 190.074C295.773 190.169 295.842 190.245 295.939 190.245C296.042 190.245 296.112 190.169 296.112 190.074C296.112 189.982 296.042 189.9 295.939 189.9C295.842 189.9 295.773 189.982 295.773 190.074ZM285.187 178.27C284.83 178.27 284.542 178.562 284.542 178.921C284.542 179.27 284.831 179.56 285.187 179.56C285.541 179.56 285.827 179.27 285.827 178.921C285.827 178.564 285.541 178.27 285.187 178.27ZM274.427 167.119C274.069 167.119 273.78 167.424 273.78 167.766C273.78 168.118 274.069 168.408 274.427 168.408C274.784 168.408 275.069 168.118 275.069 167.766C275.069 167.424 274.784 167.119 274.427 167.119ZM263.668 155.409C263.005 155.409 262.466 155.945 262.466 156.607C262.466 157.278 263.005 157.818 263.668 157.818C264.331 157.818 264.874 157.278 264.874 156.607C264.874 155.947 264.331 155.409 263.668 155.409ZM252.917 143.741C251.962 143.741 251.2 144.514 251.2 145.458C251.2 146.406 251.962 147.182 252.917 147.182C253.861 147.182 254.632 146.406 254.632 145.458C254.632 144.514 253.861 143.741 252.917 143.741ZM242.155 132.117C240.954 132.117 239.97 133.094 239.97 134.309C239.97 135.516 240.954 136.497 242.155 136.497C243.37 136.497 244.353 135.516 244.353 134.309C244.353 133.095 243.37 132.117 242.155 132.117ZM231.397 120.966C230.194 120.966 229.208 121.943 229.208 123.15C229.208 124.365 230.193 125.341 231.397 125.341C232.616 125.341 233.592 124.365 233.592 123.15C233.592 121.943 232.616 120.966 231.397 120.966ZM220.65 109.461C219.244 109.461 218.108 110.599 218.108 112.003C218.108 113.398 219.243 114.54 220.65 114.54C222.05 114.54 223.184 113.399 223.184 112.003C223.183 110.599 222.049 109.461 220.65 109.461ZM209.885 103.471C211.341 103.471 212.51 102.296 212.51 100.852C212.51 99.4005 211.343 98.2233 209.885 98.2233C208.444 98.2233 207.271 99.4005 207.271 100.852C207.271 102.296 208.444 103.471 209.885 103.471ZM199.131 92.3179C200.583 92.3179 201.753 91.1467 201.753 89.699C201.753 88.2453 200.583 87.0741 199.131 87.0741C197.684 87.0741 196.511 88.2453 196.511 89.699C196.511 91.1467 197.684 92.3179 199.131 92.3179ZM188.372 81.0347C189.751 81.0347 190.873 79.9227 190.873 78.5414C190.873 77.1626 189.752 76.0481 188.372 76.0481C187.007 76.0481 185.885 77.1638 185.885 78.5414C185.884 79.9227 187.007 81.0347 188.372 81.0347ZM177.621 69.539C178.802 69.539 179.771 68.5719 179.771 67.3838C179.771 66.1994 178.801 65.2323 177.621 65.2323C176.433 65.2323 175.467 66.1994 175.467 67.3838C175.468 68.5719 176.434 69.539 177.621 69.539ZM166.864 57.8309C167.743 57.8309 168.454 57.1137 168.454 56.2383C168.454 55.3533 167.743 54.6494 166.864 54.6494C165.985 54.6494 165.285 55.3533 165.285 56.2383C165.284 57.1137 165.985 57.8309 166.864 57.8309ZM156.102 46.7614C157.039 46.7614 157.785 46.008 157.785 45.0868C157.785 44.1595 157.037 43.4049 156.102 43.4049C155.18 43.4049 154.433 44.1583 154.433 45.0868C154.433 46.008 155.179 46.7614 156.102 46.7614ZM145.354 35.046C145.966 35.046 146.468 34.5389 146.468 33.928C146.468 33.3061 145.966 32.8087 145.354 32.8087C144.737 32.8087 144.238 33.3061 144.238 33.928C144.238 34.5389 144.737 35.046 145.354 35.046ZM134.596 23.3837C134.923 23.3837 135.19 23.1072 135.19 22.7788C135.19 22.4395 134.923 22.1667 134.596 22.1667C134.262 22.1667 133.994 22.4395 133.994 22.7788C133.995 23.1072 134.263 23.3837 134.596 23.3837ZM123.836 12.2249C124.172 12.2249 124.445 11.9581 124.445 11.6261C124.445 11.3001 124.172 11.0272 123.836 11.0272C123.51 11.0272 123.233 11.3001 123.233 11.6261C123.233 11.9581 123.51 12.2249 123.836 12.2249ZM113.214 0.469679C113.214 0.397235 113.155 0.334451 113.084 0.334451C113.007 0.334451 112.956 0.397235 112.956 0.469679C112.956 0.542123 113.007 0.607321 113.084 0.607321C113.155 0.608528 113.214 0.542123 113.214 0.469679ZM296.063 168.147C296.063 168.298 296.177 168.407 296.32 168.407C296.469 168.407 296.58 168.298 296.58 168.147C296.58 168.01 296.467 167.891 296.32 167.891C296.177 167.891 296.063 168.01 296.063 168.147ZM285.56 156.269C285.16 156.269 284.838 156.588 284.838 156.996C284.838 157.397 285.16 157.73 285.56 157.73C285.974 157.73 286.293 157.398 286.293 156.996C286.291 156.588 285.973 156.269 285.56 156.269ZM274.81 145.116C274.406 145.116 274.079 145.435 274.079 145.843C274.079 146.245 274.406 146.577 274.81 146.577C275.205 146.577 275.543 146.245 275.543 145.843C275.542 145.435 275.205 145.116 274.81 145.116ZM264.056 133.565C263.434 133.565 262.937 134.065 262.937 134.694C262.937 135.31 263.433 135.81 264.056 135.81C264.666 135.81 265.17 135.31 265.17 134.694C265.169 134.065 264.665 133.565 264.056 133.565ZM253.295 121.9C252.392 121.9 251.659 122.631 251.659 123.535C251.659 124.44 252.392 125.174 253.295 125.174C254.2 125.174 254.928 124.44 254.928 123.535C254.928 122.63 254.201 121.9 253.295 121.9ZM242.537 110.366C241.425 110.366 240.527 111.27 240.527 112.382C240.527 113.504 241.425 114.402 242.537 114.402C243.656 114.402 244.553 113.504 244.553 112.382C244.553 111.27 243.656 110.366 242.537 110.366ZM231.784 102.954C232.735 102.954 233.497 102.187 233.497 101.23C233.497 100.282 232.735 99.5091 231.784 99.5091C230.839 99.5091 230.064 100.282 230.064 101.23C230.064 102.187 230.839 102.954 231.784 102.954ZM221.024 87.8831C219.815 87.8831 218.84 88.8599 218.84 90.0769C218.84 91.2916 219.815 92.2684 221.024 92.2684C222.238 92.2684 223.22 91.2916 223.22 90.0769C223.22 88.8599 222.238 87.8831 221.024 87.8831ZM210.273 81.1168C211.485 81.1168 212.463 80.1328 212.463 78.923C212.463 77.7083 211.485 76.7291 210.273 76.7291C209.067 76.7291 208.08 77.7095 208.08 78.923C208.08 80.1328 209.067 81.1168 210.273 81.1168ZM199.512 69.4473C200.444 69.4473 201.19 68.6999 201.19 67.7726C201.19 66.8477 200.443 66.0955 199.512 66.0955C198.589 66.0955 197.839 66.8489 197.839 67.7726C197.839 68.7011 198.589 69.4473 199.512 69.4473ZM188.76 58.0385C189.537 58.0385 190.18 57.3974 190.18 56.6174C190.18 55.8375 189.537 55.1927 188.76 55.1927C187.975 55.1927 187.341 55.8375 187.341 56.6174C187.342 57.3962 187.975 58.0385 188.76 58.0385ZM178.003 47.0536C178.886 47.0536 179.595 46.3437 179.595 45.4647C179.595 44.5797 178.886 43.8721 178.003 43.8721C177.125 43.8721 176.416 44.5797 176.416 45.4647C176.415 46.3437 177.125 47.0536 178.003 47.0536ZM167.242 35.3877C167.835 35.3877 168.321 34.9011 168.321 34.3119C168.321 33.7167 167.835 33.2397 167.242 33.2397C166.654 33.2397 166.175 33.7167 166.175 34.3119C166.175 34.9011 166.654 35.3877 167.242 35.3877ZM156.491 23.8075C156.846 23.8075 157.13 23.5153 157.13 23.1567C157.13 22.8054 156.846 22.5084 156.491 22.5084C156.132 22.5084 155.848 22.8042 155.848 23.1567C155.848 23.5153 156.131 23.8075 156.491 23.8075ZM145.738 12.656C146.087 12.656 146.38 12.3638 146.38 12.0149C146.38 11.6466 146.089 11.3532 145.738 11.3532C145.38 11.3532 145.088 11.6454 145.088 12.0149C145.087 12.3626 145.38 12.656 145.738 12.656ZM135.239 0.85484C135.239 0.709952 135.12 0.595253 134.977 0.595253C134.832 0.595253 134.721 0.709952 134.721 0.85484C134.721 0.992484 134.833 1.10477 134.977 1.10477C135.12 1.10477 135.239 0.993691 135.239 0.85484ZM296.406 146.228C296.406 146.4 296.542 146.528 296.701 146.528C296.87 146.528 296.999 146.4 296.999 146.228C296.999 146.06 296.871 145.923 296.701 145.923C296.543 145.922 296.406 146.06 296.406 146.228ZM285.949 134.339C285.546 134.339 285.22 134.671 285.22 135.076C285.22 135.47 285.546 135.81 285.949 135.81C286.345 135.81 286.673 135.47 286.673 135.076C286.671 134.671 286.345 134.339 285.949 134.339ZM275.197 123.276C274.833 123.276 274.552 123.568 274.552 123.924C274.552 124.279 274.833 124.562 275.197 124.562C275.546 124.562 275.831 124.279 275.831 123.924C275.831 123.568 275.546 123.276 275.197 123.276ZM264.438 111.78C263.889 111.78 263.45 112.221 263.45 112.77C263.45 113.313 263.889 113.754 264.438 113.754C264.977 113.754 265.421 113.313 265.421 112.77C265.421 112.222 264.977 111.78 264.438 111.78ZM253.679 102.858C254.365 102.858 254.922 102.302 254.922 101.615C254.922 100.928 254.365 100.362 253.679 100.362C252.993 100.362 252.436 100.927 252.436 101.615C252.435 102.303 252.992 102.858 253.679 102.858ZM242.925 88.7391C241.973 88.7391 241.204 89.5082 241.204 90.4633C241.204 91.4135 241.973 92.1875 242.925 92.1875C243.87 92.1875 244.639 91.4147 244.639 90.4633C244.639 89.5082 243.87 88.7391 242.925 88.7391ZM232.165 80.6785C232.927 80.6785 233.544 80.07 233.544 79.3093C233.544 78.5426 232.927 77.9341 232.165 77.9341C231.411 77.9341 230.783 78.5426 230.783 79.3093C230.784 80.07 231.411 80.6785 232.165 80.6785ZM221.412 69.5258C222.168 69.5258 222.787 68.9172 222.787 68.1578C222.787 67.3911 222.167 66.7789 221.412 66.7789C220.65 66.7789 220.035 67.3911 220.035 68.1578C220.035 68.9184 220.65 69.5258 221.412 69.5258ZM210.647 58.2028C211.317 58.2028 211.86 57.663 211.86 57.005C211.86 56.3337 211.317 55.7916 210.647 55.7916C209.985 55.7916 209.449 56.3337 209.449 57.005C209.449 57.663 209.985 58.2028 210.647 58.2028ZM199.904 47.0476C200.566 47.0476 201.1 46.5115 201.1 45.8462C201.1 45.1821 200.566 44.6424 199.904 44.6424C199.239 44.6424 198.697 45.1821 198.697 45.8462C198.696 46.5115 199.239 47.0476 199.904 47.0476ZM189.144 35.6316C189.661 35.6316 190.086 35.2138 190.086 34.6874C190.086 34.1743 189.661 33.7469 189.144 33.7469C188.617 33.7469 188.198 34.1743 188.198 34.6874C188.197 35.2138 188.617 35.6316 189.144 35.6316ZM178.384 24.1468C178.717 24.1468 178.992 23.8703 178.992 23.5443C178.992 23.205 178.718 22.9394 178.384 22.9394C178.057 22.9394 177.789 23.2062 177.789 23.5443C177.788 23.8703 178.057 24.1468 178.384 24.1468ZM167.63 12.994C167.957 12.994 168.233 12.7176 168.233 12.3916C168.233 12.0595 167.957 11.7866 167.63 11.7866C167.295 11.7866 167.028 12.0595 167.028 12.3916C167.028 12.7188 167.295 12.994 167.63 12.994ZM157.13 1.23638C157.13 1.09512 157.008 0.982828 156.871 0.982828C156.735 0.982828 156.623 1.09512 156.623 1.23638C156.623 1.38127 156.735 1.48631 156.871 1.48631C157.008 1.48631 157.13 1.38127 157.13 1.23638ZM296.826 124.298C296.826 124.443 296.948 124.562 297.084 124.562C297.229 124.562 297.342 124.443 297.342 124.298C297.342 124.157 297.229 124.045 297.084 124.045C296.948 124.045 296.826 124.157 296.826 124.298ZM286.331 112.586C286.027 112.586 285.766 112.842 285.766 113.155C285.766 113.455 286.027 113.708 286.331 113.708C286.636 113.708 286.886 113.455 286.886 113.155C286.886 112.842 286.638 112.586 286.331 112.586ZM275.572 101.569C275.335 101.569 275.142 101.752 275.142 102.004C275.142 102.227 275.335 102.427 275.572 102.427C275.815 102.427 275.997 102.227 275.997 102.004C275.997 101.752 275.814 101.569 275.572 101.569ZM264.818 90.025C264.368 90.025 264.003 90.3969 264.003 90.8509C264.003 91.2916 264.367 91.6574 264.818 91.6574C265.27 91.6574 265.636 91.2916 265.636 90.8509C265.636 90.3969 265.27 90.025 264.818 90.025ZM254.066 78.6948C253.51 78.6948 253.075 79.1451 253.075 79.6945C253.075 80.2378 253.51 80.6749 254.066 80.6749C254.606 80.6749 255.049 80.2378 255.049 79.6945C255.049 79.1451 254.607 78.6948 254.066 78.6948ZM243.305 69.2203C243.687 69.2203 243.991 68.9172 243.991 68.5357C243.991 68.1578 243.687 67.8487 243.305 67.8487C242.925 67.8487 242.622 68.1578 242.622 68.5357C242.622 68.9184 242.925 69.2203 243.305 69.2203ZM232.547 58.0784C232.928 58.0784 233.231 57.7657 233.231 57.3841C233.231 57.0062 232.928 56.6995 232.547 56.6995C232.166 56.6995 231.862 57.005 231.862 57.3841C231.862 57.7657 232.165 58.0784 232.547 58.0784ZM221.786 47.2178C222.332 47.2178 222.787 46.7735 222.787 46.2374C222.787 45.6844 222.334 45.2437 221.786 45.2437C221.244 45.2437 220.811 45.6844 220.811 46.2374C220.811 46.7735 221.245 47.2178 221.786 47.2178ZM211.045 35.8489C211.462 35.8489 211.812 35.5072 211.812 35.0762C211.812 34.6512 211.462 34.2998 211.045 34.2998C210.611 34.2998 210.265 34.6524 210.265 35.0762C210.265 35.506 210.611 35.8489 211.045 35.8489ZM200.283 24.305C200.499 24.305 200.664 24.1372 200.664 23.9198C200.664 23.7121 200.497 23.5322 200.283 23.5322C200.062 23.5322 199.893 23.7134 199.893 23.9198C199.893 24.1372 200.062 24.305 200.283 24.305ZM189.523 13.2875C189.808 13.2875 190.031 13.0568 190.031 12.7779C190.031 12.4918 189.808 12.2551 189.523 12.2551C189.234 12.2551 189.014 12.4918 189.014 12.7779C189.013 13.0568 189.234 13.2875 189.523 13.2875ZM178.978 1.62154C178.978 1.50322 178.884 1.40783 178.765 1.40783C178.648 1.40783 178.549 1.50322 178.549 1.62154C178.549 1.73021 178.648 1.82921 178.765 1.82921C178.884 1.82921 178.978 1.73021 178.978 1.62154ZM297.471 102.296C297.419 102.296 297.377 102.328 297.377 102.378C297.377 102.427 297.418 102.464 297.471 102.464C297.509 102.464 297.556 102.427 297.556 102.378C297.556 102.328 297.509 102.296 297.471 102.296ZM286.711 90.7917C286.475 90.7917 286.284 90.9885 286.284 91.2264C286.284 91.457 286.475 91.6574 286.711 91.6574C286.95 91.6574 287.142 91.457 287.142 91.2264C287.142 90.9885 286.949 90.7917 286.711 90.7917ZM275.691 80.07C275.691 80.2185 275.814 80.3296 275.959 80.3296C276.096 80.3296 276.21 80.2173 276.21 80.07C276.21 79.9287 276.096 79.8201 275.959 79.8201C275.814 79.8201 275.691 79.9287 275.691 80.07ZM265.201 69.306C265.413 69.306 265.58 69.1346 265.58 68.9184C265.58 68.7011 265.413 68.5333 265.201 68.5333C264.986 68.5333 264.813 68.7011 264.813 68.9184C264.813 69.1346 264.986 69.306 265.201 69.306ZM254.446 57.0775C254.066 57.0775 253.754 57.3829 253.754 57.7681C253.754 58.146 254.066 58.4551 254.446 58.4551C254.82 58.4551 255.136 58.146 255.136 57.7681C255.136 57.3841 254.821 57.0775 254.446 57.0775ZM243.688 46.9981C243.9 46.9981 244.077 46.8303 244.077 46.6129C244.077 46.3992 243.9 46.2241 243.688 46.2241C243.473 46.2241 243.3 46.3992 243.3 46.6129C243.3 46.8303 243.473 46.9981 243.688 46.9981ZM233.278 35.4577C233.278 35.2706 233.128 35.1124 232.928 35.1124C232.735 35.1124 232.587 35.2706 232.587 35.4577C232.587 35.6485 232.736 35.8031 232.928 35.8031C233.128 35.8031 233.278 35.6485 233.278 35.4577ZM222.389 24.305C222.389 24.1867 222.297 24.0877 222.177 24.0877C222.054 24.0877 221.963 24.1867 221.963 24.305C221.963 24.4233 222.054 24.5223 222.177 24.5223C222.297 24.5223 222.389 24.4233 222.389 24.305ZM211.414 13.5507C211.639 13.5507 211.807 13.3696 211.807 13.1522C211.807 12.9349 211.639 12.7767 211.414 12.7767C211.204 12.7767 211.027 12.9349 211.027 13.1522C211.027 13.3696 211.204 13.5507 211.414 13.5507ZM200.747 1.99945C200.747 1.96323 200.707 1.90408 200.664 1.90408C200.61 1.90408 200.583 1.96323 200.583 1.99945C200.583 2.04533 200.61 2.08519 200.664 2.08519C200.708 2.08519 200.747 2.04654 200.747 1.99945ZM287.01 69.3C287.01 69.3531 287.046 69.3917 287.095 69.3917C287.142 69.3917 287.185 69.3519 287.185 69.3C287.185 69.2577 287.143 69.2203 287.095 69.2203C287.046 69.2203 287.01 69.2565 287.01 69.3ZM276.249 58.1508C276.249 58.2003 276.286 58.239 276.333 58.239C276.387 58.239 276.424 58.1991 276.424 58.1508C276.424 58.1013 276.387 58.0687 276.333 58.0687C276.286 58.0675 276.249 58.1013 276.249 58.1508ZM265.45 46.9981C265.45 47.0669 265.503 47.1236 265.579 47.1236C265.65 47.1236 265.709 47.0681 265.709 46.9981C265.709 46.9232 265.65 46.8701 265.579 46.8701C265.503 46.8689 265.45 46.922 265.45 46.9981ZM254.958 35.8417C254.958 35.7693 254.899 35.7137 254.821 35.7137C254.762 35.7137 254.701 35.7693 254.701 35.8417C254.701 35.9105 254.762 35.9673 254.821 35.9673C254.899 35.9673 254.958 35.9117 254.958 35.8417ZM233.402 13.541C233.402 13.4915 233.354 13.4517 233.316 13.4517C233.266 13.4517 233.226 13.4915 233.226 13.541C233.226 13.5845 233.266 13.6231 233.316 13.6231C233.355 13.6231 233.402 13.5833 233.402 13.541Z" fill="white"/>
</svg>
