<svg width="32" height="32" viewBox="0 0 32 32" fill="none" xmlns="http://www.w3.org/2000/svg">
<rect x="2" y="2" width="28" height="28" rx="16" fill="white"/>
<path d="M31.9984 15.9472C31.9696 7.13421 24.815 0 16.0008 0C7.18341 0 0.0303771 7.13421 0.00159869 15.9472L0 15.9057V16.0847L0.00159869 16.048C0.0287783 24.8626 7.18181 32 16.0008 32C24.8166 32 31.9696 24.8658 31.9984 16.0528L32 16.0943V16.008V16V15.9057L31.9984 15.9472V15.9472ZM11.6409 23.2749C7.62948 23.2749 4.36952 20.0148 4.36952 16.0016C4.36952 11.9884 7.62948 8.72829 11.6409 8.72829C13.6074 8.72829 15.251 9.44939 16.5108 10.6278L14.4404 12.6344C13.9208 12.1403 13.003 11.5583 11.6409 11.5583C9.23467 11.5583 7.27135 13.5585 7.27135 16.0112C7.27135 18.4623 9.23627 20.4625 11.6409 20.4625C14.426 20.4625 15.4524 18.5342 15.6411 17.3926H11.6377V14.6777H18.4406C18.5461 15.135 18.6244 15.5635 18.6244 16.1679C18.6244 20.3202 15.8393 23.2749 11.6409 23.2749V23.2749ZM28.3611 16.7275H25.4529V19.6359H23.2721V16.7275H20.3623V14.5466H23.2721V11.6367H25.4529V14.5466H28.3611V16.7275Z" fill="#C7443C"/>
</svg>
