<svg width="48" height="46" viewBox="0 0 48 46" fill="none" xmlns="http://www.w3.org/2000/svg">
<path d="M47.6631 12.7971C46.5631 6.50714 40.9041 1.24214 34.8071 0.956142C33.4891 0.894143 32.2581 1.07014 31.1441 1.44814C29.9781 1.84414 28.9511 2.47014 28.0781 3.26514C28.1431 3.20614 28.1991 3.13814 28.2661 3.08114L26.6461 4.46814C26.4021 4.64714 26.1701 4.83914 25.9471 5.04214C26.0121 4.98314 26.0691 4.91514 26.1351 4.85814L24.9621 5.86314C22.5071 2.52514 18.7171 0.200142 14.7311 0.0121425C13.4071 -0.0498575 12.1701 0.127143 11.0511 0.507143C9.92108 0.891143 8.91708 1.48714 8.06208 2.24714C8.10008 2.21314 8.13208 2.17414 8.17108 2.14114L6.59208 3.49214C6.36208 3.65814 6.14208 3.83514 5.93108 4.02314C5.96908 3.99014 6.00108 3.95014 6.03908 3.91714L3.19608 6.35214C0.925078 8.29714 -0.309922 11.4051 0.0670781 15.0001C0.691078 19.4521 4.25508 24.7041 8.52908 29.5781C9.24108 30.3901 9.97308 31.1921 10.7151 31.9781C12.9391 34.3361 15.2481 36.5501 17.3621 38.4741C18.0671 39.1151 18.7501 39.7241 19.4011 40.2951C20.3781 41.1521 21.2831 41.9241 22.0821 42.5931C23.9451 44.1531 25.2281 45.1511 25.4881 45.3541L27.5901 43.5541C27.5971 43.5601 27.6131 43.5721 27.6191 43.5771L30.4621 41.1421C31.4061 40.3171 49.3241 24.6481 47.6631 12.7971ZM27.5951 3.73814C27.5191 3.81914 27.4461 3.90214 27.3741 3.98514C27.3701 3.98814 27.3651 3.99014 27.3611 3.99214C27.4361 3.90514 27.5161 3.82214 27.5951 3.73814ZM7.47508 2.81914C7.42508 2.87314 7.37208 2.92514 7.32308 2.98114C7.37208 2.92514 7.42408 2.87414 7.47508 2.81914Z" fill="#9A1E5A"/>
<path d="M11.051 0.507143C12.169 0.127143 13.407 -0.0498575 14.73 0.0121425C19.115 0.219142 23.27 3.00814 25.663 6.89414C26.598 4.30014 28.552 2.32814 31.143 1.44814C32.256 1.07014 33.488 0.893142 34.806 0.956142C40.903 1.24214 46.562 6.50714 47.662 12.7971C49.323 24.6471 31.405 40.3161 30.462 41.1411C29.275 40.2181 6.70598 22.6611 5.04098 10.7881C4.52698 5.87814 7.01898 1.87614 11.051 0.507143Z" fill="#ED3983"/>
<path d="M15.7662 27.8471L36.6712 1.21112C36.0562 1.08012 35.4352 0.985124 34.8062 0.956124C33.4882 0.894124 32.2572 1.07012 31.1432 1.44812C28.5522 2.32812 26.5972 4.29912 25.6632 6.89412C23.6452 3.61812 20.3752 1.12912 16.7712 0.302124L5.92822 13.9941C7.68322 18.4731 11.5762 23.4151 15.7662 27.8471Z" fill="url(#paint0_linear_784_487)"/>
<path d="M21.6692 33.6491L43.8562 5.37111C42.5412 3.97611 40.9772 2.83611 39.2752 2.06311L17.5762 29.7121C18.9612 31.1061 20.3442 32.4281 21.6692 33.6491Z" fill="url(#paint1_linear_784_487)"/>
<defs>
<linearGradient id="paint0_linear_784_487" x1="36.3069" y1="-12.878" x2="-11.95" y2="52.9808" gradientUnits="userSpaceOnUse">
<stop stop-color="white"/>
<stop offset="0.6615" stop-color="white" stop-opacity="0"/>
</linearGradient>
<linearGradient id="paint1_linear_784_487" x1="48.8385" y1="-7.19059" x2="0.710373" y2="58.4923" gradientUnits="userSpaceOnUse">
<stop stop-color="white"/>
<stop offset="0.6615" stop-color="white" stop-opacity="0"/>
</linearGradient>
</defs>
</svg>
