<svg width="65" height="62" viewBox="0 0 65 62" fill="none" xmlns="http://www.w3.org/2000/svg">
<path d="M50.1292 41.1931C50.0642 41.1491 50.0032 41.0981 49.9422 41.0451C49.9042 41.0111 49.8642 40.9801 49.8282 40.9431C49.7662 40.8791 49.7102 40.8081 49.6562 40.7341C49.6292 40.6981 49.5992 40.6661 49.5742 40.6271C49.4982 40.5111 49.4302 40.3861 49.3742 40.2491L48.3732 39.8811C48.1462 40.0211 47.9002 40.1751 47.6372 40.3441L50.5432 41.4121C50.5172 41.4021 50.4942 41.3861 50.4682 41.3751C50.3982 41.3461 50.3302 41.3121 50.2632 41.2741C50.2182 41.2481 50.1732 41.2231 50.1292 41.1931Z" fill="#2E2D76"/>
<path d="M49.3755 40.2491L49.0565 39.4681C48.8725 39.5771 48.6355 39.7201 48.3745 39.8811L49.3755 40.2491Z" fill="#2D2B71"/>
<path d="M48.4753 13.9641C48.3633 13.9581 48.2503 13.9571 48.1353 13.9681C48.2493 13.9571 48.3633 13.9581 48.4753 13.9641Z" fill="#2E2D76"/>
<path d="M49.1704 14.1282C49.1014 14.0992 49.0334 14.0712 48.9614 14.0502C49.0324 14.0702 49.1014 14.0992 49.1704 14.1282Z" fill="#2E2D76"/>
<path d="M48.8452 14.0201C48.7492 13.9971 48.6522 13.9781 48.5532 13.9691C48.6522 13.9781 48.7492 13.9971 48.8452 14.0201Z" fill="#2E2D76"/>
<path d="M48.0954 13.9741C47.9694 13.9891 47.8424 14.0121 47.7154 14.0491C47.7144 14.0491 47.7124 14.0491 47.7114 14.0501C47.8394 14.0121 47.9674 13.9891 48.0954 13.9741Z" fill="#2E2D76"/>
<path d="M47.5015 19.5192C47.5315 19.5242 47.5605 19.5312 47.5905 19.5352C47.5605 19.5312 47.5315 19.5242 47.5015 19.5192Z" fill="#34308E"/>
<path d="M47.0396 19.3871C47.0996 19.4121 47.1595 19.4361 47.2215 19.4561C47.1595 19.4361 47.0996 19.4121 47.0396 19.3871Z" fill="#34308E"/>
<path d="M46.6963 19.2041C46.7343 19.2291 46.7723 19.2521 46.8113 19.2741C46.7723 19.2521 46.7343 19.2291 46.6963 19.2041Z" fill="#34308E"/>
<path d="M46.3306 18.9061C46.3706 18.9471 46.4136 18.9821 46.4556 19.0191C46.4136 18.9821 46.3706 18.9471 46.3306 18.9061Z" fill="#393091"/>
<path d="M46.6646 19.1841C46.6756 19.1911 46.6866 19.1971 46.6966 19.2041C46.6856 19.1971 46.6746 19.1911 46.6646 19.1841Z" fill="#393091"/>
<path d="M50.7642 8.52112C50.8742 8.48912 50.9842 8.46711 51.0942 8.45311C51.1082 8.45111 51.1222 8.45112 51.1352 8.45012C51.1702 8.44612 51.2042 8.44811 51.2392 8.44611C51.2992 8.44311 51.3602 8.43812 51.4192 8.44011C51.4462 8.44112 51.4732 8.44511 51.5012 8.44811C51.5172 8.44911 51.5342 8.44711 51.5502 8.44811L48.5582 7.34911C48.5292 7.34611 48.5012 7.34212 48.4722 7.34012C48.3902 7.33412 48.3072 7.33411 48.2232 7.33811C48.1852 7.34011 48.1482 7.34011 48.1102 7.34411C47.9892 7.35711 47.8682 7.37811 47.7472 7.41411C47.5632 7.46811 47.3782 7.54911 47.1982 7.65811L50.2142 8.76612C50.3942 8.65712 50.5792 8.57612 50.7642 8.52112Z" fill="#393091"/>
<path d="M51.6126 8.46112C51.6546 8.46712 51.6976 8.47112 51.7386 8.48012C51.7796 8.48912 51.8196 8.50212 51.8596 8.51312C51.8826 8.51912 51.9066 8.52012 51.9286 8.52812L48.9676 7.44012C48.9256 7.42512 48.8806 7.41612 48.8376 7.40412C48.7586 7.38212 48.6786 7.36512 48.5966 7.35312C48.5846 7.35112 48.5716 7.35112 48.5596 7.34912L51.5516 8.44812C51.5726 8.45012 51.5916 8.45812 51.6126 8.46112Z" fill="#34308E"/>
<path d="M52.0013 8.55306L48.9863 7.44506C48.9803 7.44306 48.9733 7.44206 48.9673 7.44006L51.9283 8.52806C51.9533 8.53506 51.9773 8.54406 52.0013 8.55306Z" fill="#33308B"/>
<path d="M48.1352 13.9691C48.1212 13.9701 48.1082 13.9731 48.0942 13.9741C48.1082 13.9721 48.1222 13.9701 48.1352 13.9691Z" fill="#A8A7A7"/>
<path d="M48.5536 13.9691C48.5276 13.9671 48.5016 13.9661 48.4756 13.9641C48.5016 13.9661 48.5276 13.9661 48.5536 13.9691Z" fill="#A8A7A7"/>
<path d="M48.9612 14.0492C48.9232 14.0382 48.8842 14.0292 48.8452 14.0192C48.8842 14.0292 48.9232 14.0382 48.9612 14.0492Z" fill="#A1A1A1"/>
<path d="M45.6564 16.5361C45.6504 16.5721 45.6524 16.6091 45.6484 16.6461C45.6534 16.6101 45.6504 16.5731 45.6564 16.5361Z" fill="#838484"/>
<path d="M45.6232 16.9772C45.6222 17.0112 45.6152 17.0442 45.6152 17.0782C45.6152 17.0442 45.6222 17.0112 45.6232 16.9772Z" fill="#838484"/>
<path d="M46.8115 19.2742C46.8855 19.3162 46.9615 19.3542 47.0395 19.3872C46.9615 19.3542 46.8855 19.3172 46.8115 19.2742Z" fill="#838484"/>
<path d="M46.2852 18.8641C46.2992 18.8791 46.3162 18.8901 46.3312 18.9051C46.3162 18.8911 46.2992 18.8801 46.2852 18.8641Z" fill="#838484"/>
<path d="M46.4565 19.0192C46.5235 19.0782 46.5915 19.1352 46.6645 19.1842C46.5915 19.1352 46.5235 19.0782 46.4565 19.0192Z" fill="#838484"/>
<path d="M46.0384 15.4491C46.0274 15.4681 46.0134 15.4851 46.0034 15.5041C46.0134 15.4851 46.0284 15.4681 46.0384 15.4491Z" fill="#939393"/>
<path d="M46.3253 15.0161C46.3023 15.0451 46.2813 15.0751 46.2593 15.1051C46.2823 15.0751 46.3023 15.0451 46.3253 15.0161Z" fill="#979797"/>
<path d="M46.7633 14.5741C46.7273 14.6041 46.6873 14.6301 46.6523 14.6621C46.6873 14.6301 46.7273 14.6041 46.7633 14.5741Z" fill="#A1A1A1"/>
<path d="M47.7114 14.0501C47.7124 14.0501 47.7144 14.0501 47.7154 14.0491C47.7134 14.0501 47.7124 14.0501 47.7114 14.0501C47.5074 14.1101 47.3044 14.1991 47.1064 14.3191C47.3034 14.1991 47.5064 14.1101 47.7114 14.0501Z" fill="#A8A7A7"/>
<path d="M50.3853 15.3792C50.2693 15.0962 50.1123 14.8522 49.9243 14.6492C49.7373 14.4462 49.5193 14.2852 49.2823 14.1702C49.2463 14.1522 49.2063 14.1432 49.1693 14.1282C49.1003 14.0992 49.0323 14.0712 48.9603 14.0492C48.9223 14.0382 48.8833 14.0292 48.8443 14.0192C48.7483 13.9962 48.6513 13.9772 48.5523 13.9682C48.5263 13.9662 48.5003 13.9652 48.4743 13.9632C48.3623 13.9572 48.2493 13.9562 48.1343 13.9672C48.1203 13.9682 48.1073 13.9712 48.0933 13.9722C47.9653 13.9872 47.8373 14.0112 47.7093 14.0482C47.5053 14.1082 47.3023 14.1972 47.1043 14.3172C46.9813 14.3912 46.8713 14.4812 46.7613 14.5722C46.7253 14.6022 46.6853 14.6282 46.6503 14.6602C46.5313 14.7692 46.4233 14.8882 46.3233 15.0142C46.3003 15.0432 46.2793 15.0732 46.2583 15.1032C46.1773 15.2132 46.1033 15.3282 46.0363 15.4482C46.0253 15.4672 46.0113 15.4842 46.0013 15.5032C45.8303 15.8252 45.7123 16.1762 45.6543 16.5352C45.6483 16.5712 45.6503 16.6082 45.6463 16.6452C45.6323 16.7552 45.6233 16.8652 45.6213 16.9762C45.6203 17.0102 45.6133 17.0432 45.6133 17.0772C45.6173 17.4392 45.6843 17.7982 45.8223 18.1332C45.9383 18.4162 46.0953 18.6602 46.2823 18.8632C46.2963 18.8782 46.3133 18.8892 46.3283 18.9042C46.3683 18.9452 46.4113 18.9802 46.4533 19.0172C46.5203 19.0762 46.5883 19.1332 46.6613 19.1822C46.6713 19.1892 46.6833 19.1952 46.6933 19.2022C46.7313 19.2272 46.7693 19.2502 46.8083 19.2722C46.8823 19.3142 46.9583 19.3522 47.0363 19.3852C47.0963 19.4102 47.1563 19.4342 47.2183 19.4542C47.2423 19.4622 47.2653 19.4742 47.2893 19.4812C47.3573 19.5002 47.4283 19.5062 47.4973 19.5172C47.5273 19.5222 47.5563 19.5292 47.5863 19.5332C47.6173 19.5372 47.6473 19.5472 47.6783 19.5492C47.8103 19.5602 47.9453 19.5582 48.0813 19.5442C48.2173 19.5302 48.3533 19.5032 48.4893 19.4632C48.6933 19.4032 48.8963 19.3142 49.0933 19.1942C49.2513 19.0992 49.3983 18.9902 49.5333 18.8682C50.0743 18.3802 50.4303 17.6942 50.5463 16.9772C50.6373 16.4402 50.5903 15.8832 50.3853 15.3792Z" fill="#DFDFDE"/>
<path d="M38.3755 18.5952C38.4325 18.5952 38.4875 18.5972 38.5445 18.5922C38.5205 18.5942 38.4965 18.5952 38.4725 18.5962C38.4395 18.5982 38.4075 18.5952 38.3755 18.5952Z" fill="#2D2B71"/>
<path d="M40.2214 17.8501L40.1254 17.6131L37.1094 16.5051L37.2054 16.7411V16.7421L40.2214 17.8501Z" fill="#2D2B71"/>
<path d="M37.9473 18.5551C37.9903 18.5641 38.0323 18.5731 38.0753 18.5801C38.0313 18.5741 37.9893 18.5621 37.9453 18.5531L37.9473 18.5551Z" fill="#2D2B71"/>
<path d="M50.2142 8.76708L47.1982 7.65808L38.2622 13.0591L41.2782 14.1671L50.2142 8.76708Z" fill="#3F3794"/>
<path d="M39.5482 18.2591L40.2212 17.8501L37.2052 16.7421L36.5322 17.1501L39.5482 18.2591Z" fill="#B3B3B4"/>
<path d="M64.4395 30.8601L53.0715 9.50813C52.7945 8.98913 52.3565 8.65213 51.8595 8.51313C51.8195 8.50213 51.7795 8.48813 51.7385 8.48013C51.6615 8.46413 51.5815 8.45413 51.5025 8.44813C51.4755 8.44613 51.4485 8.44213 51.4205 8.44013C51.3265 8.43613 51.2315 8.44013 51.1355 8.45013C51.1215 8.45113 51.1075 8.45213 51.0945 8.45313C50.9845 8.46713 50.8745 8.48913 50.7645 8.52113C50.5785 8.57613 50.3935 8.65713 50.2135 8.76613L41.2775 14.1661C41.1655 14.2341 41.0645 14.3161 40.9655 14.3991C40.9345 14.4251 40.8995 14.4471 40.8705 14.4741C40.7635 14.5731 40.6655 14.6811 40.5755 14.7951C40.5545 14.8211 40.5355 14.8491 40.5155 14.8761C40.4425 14.9761 40.3755 15.0801 40.3145 15.1891C40.3015 15.2131 40.2865 15.2351 40.2745 15.2591C40.2075 15.3881 40.1505 15.5221 40.1035 15.6591C40.0865 15.7081 40.0755 15.7581 40.0615 15.8081C40.0325 15.9081 40.0055 16.0081 39.9875 16.1101C39.9785 16.1621 39.9725 16.2141 39.9655 16.2671C39.9525 16.3661 39.9455 16.4661 39.9435 16.5661C39.9425 16.6211 39.9415 16.6751 39.9435 16.7291C39.9475 16.8331 39.9595 16.9351 39.9745 17.0371C39.9815 17.0841 39.9865 17.1321 39.9955 17.1791C40.0265 17.3261 40.0665 17.4721 40.1245 17.6121L40.2215 17.8491L49.0555 39.4681L49.3745 40.2491C49.4305 40.3861 49.4985 40.5101 49.5745 40.6271C49.5995 40.6651 49.6295 40.6981 49.6565 40.7341C49.7115 40.8071 49.7665 40.8791 49.8285 40.9431C49.8645 40.9801 49.9045 41.0121 49.9425 41.0451C50.0025 41.0981 50.0635 41.1481 50.1295 41.1931C50.1725 41.2231 50.2185 41.2491 50.2635 41.2741C50.3305 41.3121 50.3975 41.3461 50.4685 41.3751C50.8735 41.5441 51.3325 41.5791 51.7885 41.4451C51.9715 41.3911 52.1545 41.3111 52.3325 41.2041L63.3805 34.5201C63.9625 34.1701 64.4135 33.5681 64.6135 32.8741C64.8125 32.1801 64.7505 31.4451 64.4395 30.8601ZM50.5505 16.9781C50.4345 17.6961 50.0795 18.3811 49.5375 18.8691C49.4025 18.9911 49.2555 19.1011 49.0975 19.1951C48.8995 19.3151 48.6965 19.4041 48.4935 19.4641C48.3575 19.5041 48.2205 19.5311 48.0855 19.5451C47.9495 19.5591 47.8155 19.5611 47.6825 19.5501C47.6515 19.5471 47.6215 19.5381 47.5905 19.5341C47.5605 19.5301 47.5315 19.5231 47.5015 19.5181C47.4315 19.5061 47.3615 19.5001 47.2935 19.4821C47.2685 19.4751 47.2465 19.4631 47.2225 19.4551C47.1605 19.4361 47.1005 19.4111 47.0405 19.3861C46.9625 19.3531 46.8865 19.3151 46.8125 19.2731C46.7735 19.2511 46.7355 19.2271 46.6975 19.2031C46.6875 19.1961 46.6755 19.1901 46.6655 19.1831C46.5925 19.1331 46.5245 19.0771 46.4575 19.0171C46.4155 18.9801 46.3725 18.9451 46.3325 18.9041C46.3175 18.8891 46.3015 18.8781 46.2865 18.8631C46.0995 18.6601 45.9425 18.4161 45.8265 18.1331C45.6885 17.7971 45.6215 17.4381 45.6175 17.0771C45.6175 17.0431 45.6245 17.0101 45.6255 16.9761C45.6275 16.8651 45.6365 16.7551 45.6505 16.6451C45.6555 16.6081 45.6525 16.5711 45.6585 16.5351C45.7165 16.1761 45.8345 15.8251 46.0055 15.5031C46.0155 15.4841 46.0305 15.4671 46.0405 15.4481C46.1065 15.3291 46.1805 15.2141 46.2615 15.1041C46.2835 15.0741 46.3045 15.0441 46.3275 15.0141C46.4275 14.8881 46.5355 14.7691 46.6545 14.6601C46.6895 14.6281 46.7295 14.6021 46.7665 14.5721C46.8755 14.4811 46.9855 14.3921 47.1075 14.3181C47.3055 14.1981 47.5085 14.1091 47.7125 14.0491C47.7135 14.0491 47.7155 14.0491 47.7165 14.0481C47.8435 14.0111 47.9705 13.9871 48.0965 13.9731C48.1105 13.9711 48.1235 13.9691 48.1375 13.9681C48.2515 13.9571 48.3645 13.9571 48.4765 13.9631C48.5025 13.9651 48.5295 13.9651 48.5555 13.9681C48.6545 13.9771 48.7515 13.9961 48.8475 14.0191C48.8865 14.0281 48.9255 14.0371 48.9635 14.0491C49.0345 14.0701 49.1035 14.0991 49.1725 14.1271C49.2095 14.1431 49.2495 14.1521 49.2855 14.1691C49.5225 14.2841 49.7405 14.4451 49.9275 14.6481C50.1145 14.8511 50.2715 15.0951 50.3885 15.3781C50.5905 15.8831 50.6375 16.4401 50.5505 16.9781Z" fill="url(#paint0_linear_784_496)"/>
<path d="M39.9964 17.1801C39.9864 17.1331 39.9824 17.0861 39.9754 17.0381C39.9594 16.9361 39.9484 16.8331 39.9444 16.7301C39.9424 16.6751 39.9424 16.6221 39.9444 16.5671C39.9464 16.4671 39.9544 16.3681 39.9664 16.2681C39.9734 16.2151 39.9784 16.1631 39.9884 16.1111C39.9934 16.0851 39.9944 16.0581 39.9994 16.0321L36.9914 14.9271C36.9864 14.9531 36.9774 14.9771 36.9724 15.0031C36.9634 15.0551 36.9574 15.1081 36.9504 15.1611C36.9384 15.2601 36.9304 15.3591 36.9284 15.4591C36.9274 15.5141 36.9264 15.5681 36.9284 15.6231C36.9324 15.7261 36.9444 15.8291 36.9594 15.9311C36.9664 15.9781 36.9714 16.0261 36.9804 16.0731C37.0114 16.2201 37.0514 16.3661 37.1094 16.5061L40.1254 17.6141C40.0674 17.4731 40.0274 17.3271 39.9964 17.1801Z" fill="#2E2D76"/>
<path d="M40.0612 15.8091C40.0752 15.7591 40.0862 15.7091 40.1032 15.6601C40.1072 15.6471 40.1092 15.6341 40.1142 15.6211L37.1032 14.5151C37.0982 14.5281 37.0922 14.5391 37.0872 14.5521C37.0702 14.6011 37.0592 14.6521 37.0452 14.7021C37.0232 14.7761 37.0052 14.8511 36.9902 14.9271L39.9982 16.0321C40.0142 15.9561 40.0392 15.8841 40.0612 15.8091Z" fill="#2E2D7A"/>
<path d="M40.2555 15.2932L37.2435 14.1862C37.1895 14.2932 37.1435 14.4032 37.1035 14.5152L40.1145 15.6212C40.1555 15.5092 40.2025 15.4002 40.2555 15.2932Z" fill="#2F2E7E"/>
<path d="M40.2742 15.2601C40.2862 15.2361 40.3012 15.2141 40.3142 15.1901C40.3482 15.1281 40.3812 15.0661 40.4192 15.0061L37.4132 13.9011C37.3742 13.9611 37.3322 14.0181 37.2982 14.0811C37.2852 14.1051 37.2702 14.1271 37.2582 14.1521C37.2522 14.1631 37.2492 14.1751 37.2432 14.1861L40.2552 15.2931C40.2612 15.2821 40.2682 15.2711 40.2742 15.2601Z" fill="#302E81"/>
<path d="M40.5155 14.8771C40.5355 14.8501 40.5546 14.8221 40.5756 14.7961C40.5896 14.7791 40.6006 14.7591 40.6146 14.7421L37.6055 13.6361C37.5905 13.6541 37.5726 13.6691 37.5586 13.6871C37.5376 13.7131 37.5185 13.7411 37.4995 13.7681C37.4685 13.8101 37.4436 13.8571 37.4146 13.9011L40.4206 15.0061C40.4496 14.9621 40.4835 14.9201 40.5155 14.8771Z" fill="#302F86"/>
<path d="M40.8545 14.4881L37.8415 13.3811C37.7565 13.4601 37.6805 13.5481 37.6055 13.6371L40.6145 14.7431C40.6885 14.6531 40.7685 14.5681 40.8545 14.4881Z" fill="#33308B"/>
<path d="M40.8703 14.4751C40.9003 14.4481 40.9343 14.4261 40.9653 14.4001C41.0383 14.3391 41.1103 14.2751 41.1903 14.2221L38.1833 13.1171C38.1013 13.1711 38.0233 13.2291 37.9493 13.2921C37.9183 13.3181 37.8843 13.3401 37.8543 13.3671C37.8493 13.3711 37.8463 13.3771 37.8413 13.3811L40.8543 14.4881C40.8593 14.4831 40.8653 14.4801 40.8703 14.4751Z" fill="#34308E"/>
<path d="M41.2786 14.1671L38.2626 13.0591C38.2346 13.0761 38.2116 13.0991 38.1846 13.1171L41.1916 14.2221C41.2196 14.2031 41.2486 14.1851 41.2786 14.1671Z" fill="#393091"/>
<path d="M37.3062 18.2871C37.4972 18.4091 37.7012 18.4971 37.9162 18.5461C37.9262 18.5481 37.9352 18.5501 37.9452 18.5521C37.9882 18.5611 38.0312 18.5731 38.0752 18.5791C38.0862 18.5811 38.0972 18.5791 38.1082 18.5811L37.3062 18.2871Z" fill="#A1A1A1"/>
<path d="M37.3065 18.2871L38.1075 18.5811C38.1955 18.5921 38.2845 18.5951 38.3745 18.5951C38.4065 18.5951 38.4395 18.5971 38.4715 18.5961C38.4955 18.5951 38.5195 18.5941 38.5435 18.5921C38.6855 18.5791 38.8275 18.5581 38.9685 18.5161C39.1655 18.4581 39.3605 18.3721 39.5475 18.2581L36.5315 17.1501C36.3435 17.2641 36.1485 17.3501 35.9525 17.4081C35.9055 17.4221 35.8575 17.4281 35.8105 17.4381C36.2725 17.6261 36.7265 17.8721 37.1595 18.2001C37.2065 18.2361 37.2585 18.2571 37.3065 18.2871Z" fill="#A8A7A7"/>
<path d="M31.6104 16.5601C31.7334 16.6101 31.8554 16.6541 31.9784 16.6961C31.9884 16.7001 31.9994 16.7021 32.0094 16.7061L31.6104 16.5601Z" fill="#9D9D9D"/>
<path d="M32.0093 16.7071C32.0923 16.7351 32.1743 16.7621 32.2573 16.7871C32.3873 16.8261 32.5153 16.8601 32.6443 16.8911C32.7033 16.9051 32.7633 16.9201 32.8223 16.9331C32.8463 16.9381 32.8693 16.9431 32.8933 16.9481C33.0283 16.9751 33.1613 16.9961 33.2943 17.0141C33.3153 17.0171 33.3373 17.0211 33.3583 17.0231C33.3763 17.0251 33.3953 17.0281 33.4133 17.0301L30.4133 15.9281C30.3823 15.9251 30.3503 15.9171 30.3193 15.9131C30.7503 16.1701 31.1813 16.3871 31.6113 16.5611L32.0093 16.7071Z" fill="#A1A1A1"/>
<path d="M33.4836 17.0391C33.6626 17.0561 33.8396 17.0681 34.0146 17.0671C34.1806 17.0661 34.3476 17.0751 34.5136 17.0931L31.5626 16.0091C31.3746 15.9861 31.1866 15.9581 30.9986 15.9591C30.8146 15.9601 30.6286 15.9491 30.4396 15.9291C30.4306 15.9281 30.4216 15.9291 30.4126 15.9281L33.4126 17.0301C33.4356 17.0331 33.4596 17.0361 33.4836 17.0391Z" fill="#A8A7A7"/>
<path d="M34.7455 17.1302C34.7735 17.1342 34.8015 17.1342 34.8285 17.1392C34.8475 17.1422 34.8655 17.1492 34.8845 17.1532C35.0745 17.1902 35.2655 17.2342 35.4535 17.2952L32.5855 16.2412C32.3485 16.1572 32.1085 16.0912 31.8675 16.0452C31.8265 16.0372 31.7855 16.0322 31.7455 16.0252C31.6845 16.0152 31.6235 16.0162 31.5625 16.0092L34.5135 17.0932C34.5915 17.1012 34.6685 17.1182 34.7455 17.1302Z" fill="#A1A1A1"/>
<path d="M35.6144 17.3501C35.6184 17.3511 35.6224 17.3531 35.6274 17.3541C35.6354 17.3571 35.6434 17.3591 35.6504 17.3621L32.6344 16.2541C32.6184 16.2481 32.6024 16.2471 32.5864 16.2411L35.4544 17.2951C35.5074 17.3121 35.5604 17.3311 35.6144 17.3501Z" fill="#9D9D9D"/>
<path d="M22.2232 1.13907C22.2322 1.14007 22.2422 1.14207 22.2512 1.14407C22.3402 1.15707 22.4302 1.16707 22.5172 1.18707C22.5802 1.20107 22.6402 1.22307 22.7022 1.24107C22.7032 1.24107 22.7052 1.24207 22.7062 1.24207C22.7332 1.25007 22.7622 1.25107 22.7892 1.26007L19.8572 0.181071C19.8032 0.162071 19.7462 0.149071 19.6902 0.132071C19.5352 0.0870713 19.3762 0.0530713 19.2132 0.0310713C19.1942 0.0290713 19.1762 0.0250713 19.1562 0.0230713L22.1492 1.12307C22.1752 1.12607 22.1982 1.13507 22.2232 1.13907Z" fill="#A1A1A1"/>
<path d="M22.9094 1.30015L19.8934 0.191152C19.8814 0.187152 19.8694 0.185152 19.8574 0.181152L22.7894 1.25815C22.8294 1.27115 22.8694 1.28515 22.9094 1.30015Z" fill="#9D9D9D"/>
<path d="M49.0556 39.4681L40.2216 17.8491L39.5486 18.2581C39.3606 18.3721 39.1656 18.4581 38.9696 18.5161C38.8286 18.5571 38.6856 18.5791 38.5446 18.5921C38.4876 18.5971 38.4326 18.5951 38.3756 18.5951C38.2856 18.5961 38.1966 18.5921 38.1086 18.5811C38.0976 18.5801 38.0866 18.5811 38.0756 18.5791C38.0326 18.5731 37.9896 18.5631 37.9476 18.5541C37.9376 18.5521 37.9276 18.5471 37.9176 18.5451C37.7026 18.4961 37.4986 18.4081 37.3076 18.2861C37.2596 18.2551 37.2066 18.2351 37.1606 18.1991C36.7276 17.8711 36.2736 17.6241 35.8116 17.4371C35.7496 17.4121 35.6896 17.3761 35.6266 17.3531C35.6226 17.3511 35.6186 17.3501 35.6136 17.3491C35.3546 17.2561 35.0916 17.1851 34.8286 17.1381C34.8006 17.1331 34.7726 17.1341 34.7456 17.1291C34.5026 17.0901 34.2586 17.0641 34.0146 17.0661C33.8396 17.0661 33.6616 17.0551 33.4836 17.0381C33.4606 17.0361 33.4366 17.0321 33.4126 17.0291C33.3946 17.0271 33.3756 17.0241 33.3576 17.0221C33.2036 17.0041 33.0486 16.9791 32.8926 16.9471C32.8686 16.9421 32.8456 16.9371 32.8216 16.9321C32.5426 16.8731 32.2616 16.7941 31.9786 16.6951C31.8566 16.6521 31.7336 16.6081 31.6106 16.5591C31.1816 16.3851 30.7496 16.1681 30.3186 15.9111C29.0096 15.1281 27.7126 13.9731 26.5506 12.5121C25.1496 10.7561 24.9946 8.00514 24.8676 5.79814C24.7876 4.29614 24.7206 3.10714 24.3006 2.40914C23.9566 1.83814 23.3746 1.43414 22.7016 1.23814C22.6396 1.22014 22.5796 1.19914 22.5166 1.18414C22.4296 1.16414 22.3396 1.15414 22.2506 1.14114C22.2416 1.14014 22.2316 1.13814 22.2226 1.13614C22.1876 1.13114 22.1546 1.12314 22.1196 1.11914C22.1036 1.11714 22.0866 1.11514 22.0706 1.11414C21.9276 1.10214 21.7826 1.09914 21.6356 1.10614C21.6266 1.10614 21.6186 1.10614 21.6096 1.10714C21.4546 1.11614 21.2996 1.13514 21.1446 1.16614C21.0516 1.18514 20.9526 1.20914 20.8466 1.24014C20.7716 1.26214 20.6926 1.28914 20.6116 1.31814C20.5866 1.32714 20.5606 1.33814 20.5346 1.34814C20.4766 1.37114 20.4186 1.39514 20.3576 1.42214C20.3266 1.43614 20.2946 1.45114 20.2626 1.46614C20.2046 1.49414 20.1446 1.52414 20.0846 1.55714C20.0516 1.57414 20.0196 1.59214 19.9866 1.61114C19.9186 1.65014 19.8496 1.69314 19.7796 1.73814C19.7536 1.75414 19.7286 1.76914 19.7026 1.78614C19.6036 1.85214 19.5026 1.92514 19.4016 2.00514C19.3766 2.02514 19.3506 2.04714 19.3256 2.06814C19.2476 2.13214 19.1686 2.19914 19.0896 2.27114C19.0506 2.30714 19.0106 2.34414 18.9706 2.38214C18.9226 2.42914 18.8736 2.47714 18.8256 2.52714C18.7826 2.57214 18.7396 2.61814 18.6956 2.66514C18.6476 2.72114 18.5986 2.77714 18.5506 2.83414C18.5066 2.88614 18.4626 2.93914 18.4186 2.99314C18.3746 3.04814 18.3306 3.10514 18.2866 3.16314C18.2416 3.22314 18.1956 3.28414 18.1506 3.34814C18.1066 3.40914 18.0636 3.47214 18.0206 3.53714C17.9756 3.60114 17.9316 3.66814 17.8886 3.73714C17.8396 3.81414 17.7916 3.89314 17.7436 3.97514C17.7026 4.04514 17.6606 4.11614 17.6196 4.19014C17.5716 4.27614 17.5236 4.36614 17.4756 4.45814C17.4376 4.53114 17.3986 4.60614 17.3606 4.68314C17.2966 4.81214 17.2346 4.94814 17.1726 5.08614C17.1436 5.15114 17.1136 5.21314 17.0856 5.28014C16.9956 5.49014 16.9076 5.70714 16.8226 5.93914C16.6966 6.27914 16.5876 6.61714 16.4936 6.95314C16.4746 7.02114 16.4616 7.08914 16.4436 7.15714C16.3766 7.41114 16.3146 7.66414 16.2646 7.91614C16.2406 8.03414 16.2246 8.15114 16.2046 8.26914C16.1686 8.47014 16.1356 8.67114 16.1116 8.87114C16.0966 8.99814 16.0856 9.12514 16.0746 9.25114C16.0576 9.43914 16.0436 9.62614 16.0346 9.81214C16.0286 9.94114 16.0256 10.0681 16.0236 10.1961C16.0206 10.3791 16.0216 10.5611 16.0266 10.7421C16.0296 10.8671 16.0336 10.9921 16.0406 11.1161C16.0506 11.3001 16.0666 11.4831 16.0846 11.6651C16.0956 11.7821 16.1056 11.8991 16.1206 12.0151C16.1446 12.2091 16.1756 12.4011 16.2066 12.5931C16.2236 12.6931 16.2366 12.7941 16.2556 12.8931C16.3016 13.1371 16.3546 13.3781 16.4116 13.6181C16.4226 13.6621 16.4306 13.7071 16.4406 13.7511C16.5106 14.0341 16.5886 14.3141 16.6736 14.5901C16.6996 14.6741 16.7286 14.7551 16.7546 14.8381C16.8166 15.0301 16.8786 15.2211 16.9466 15.4101C16.9836 15.5141 17.0236 15.6151 17.0626 15.7181C17.1246 15.8831 17.1876 16.0481 17.2546 16.2111C17.2986 16.3181 17.3436 16.4231 17.3886 16.5291C17.4556 16.6851 17.5226 16.8391 17.5916 16.9921C17.6396 17.0971 17.6876 17.2011 17.7366 17.3041C17.8076 17.4551 17.8806 17.6051 17.9536 17.7531C18.0036 17.8531 18.0526 17.9521 18.1026 18.0511C18.1796 18.2021 18.2586 18.3501 18.3376 18.4981C18.3866 18.5891 18.4346 18.6811 18.4836 18.7711C18.5706 18.9301 18.6596 19.0871 18.7476 19.2421C18.7896 19.3151 18.8306 19.3901 18.8726 19.4631C19.0026 19.6881 19.1336 19.9091 19.2636 20.1261C19.3116 20.2081 19.3506 20.2971 19.3816 20.3901C19.3916 20.4211 19.3966 20.4531 19.4046 20.4851C19.4216 20.5491 19.4376 20.6121 19.4466 20.6781C19.4516 20.7171 19.4506 20.7571 19.4526 20.7971C19.4556 20.8581 19.4596 20.9191 19.4556 20.9811C19.4536 21.0241 19.4456 21.0671 19.4396 21.1111C19.4336 21.1541 19.4266 21.1971 19.4176 21.2401C19.4106 21.2721 19.4096 21.3041 19.4016 21.3361C19.3876 21.3861 19.3656 21.4321 19.3486 21.4801C19.3316 21.5261 19.3176 21.5741 19.2976 21.6181C19.2916 21.6321 19.2866 21.6461 19.2796 21.6591C19.2766 21.6651 19.2716 21.6711 19.2686 21.6771C19.2396 21.7351 19.2046 21.7891 19.1686 21.8431C19.1556 21.8621 19.1466 21.8841 19.1326 21.9031C19.1216 21.9181 19.1116 21.9331 19.1006 21.9471C19.0876 21.9641 19.0706 21.9781 19.0566 21.9951C19.0136 22.0461 18.9706 22.0981 18.9216 22.1431C18.9176 22.1471 18.9146 22.1511 18.9106 22.1551C18.8946 22.1701 18.8766 22.1811 18.8606 22.1951C18.8166 22.2321 18.7686 22.2641 18.7196 22.2961C18.6926 22.3141 18.6686 22.3371 18.6406 22.3531C15.7926 24.0041 10.7046 26.9631 7.94755 28.5531C7.67155 28.7131 7.40755 28.8801 7.15055 29.0521C6.88955 29.2231 6.63855 29.4051 6.39855 29.5921C6.37755 29.6081 6.35455 29.6231 6.33455 29.6391C6.07455 29.8431 5.83055 30.0541 5.59755 30.2691C5.40155 30.4501 5.21655 30.6361 5.04155 30.8251C4.99555 30.8751 4.95255 30.9261 4.90755 30.9761C4.79355 31.1031 4.68655 31.2331 4.58155 31.3631C4.44955 31.5281 4.32855 31.6951 4.21155 31.8631C4.15255 31.9481 4.09055 32.0321 4.03555 32.1171C3.94755 32.2551 3.87155 32.3951 3.79455 32.5351C3.73955 32.6341 3.68055 32.7321 3.63155 32.8331C3.56655 32.9641 3.51555 33.0971 3.46055 33.2301C3.40955 33.3531 3.35155 33.4751 3.30855 33.5991C3.21655 33.8631 3.15155 34.1271 3.10055 34.3891C3.08555 34.4671 3.07855 34.5421 3.06755 34.6201C3.04055 34.8031 3.02255 34.9851 3.01655 35.1641C3.01355 35.2511 3.01355 35.3361 3.01555 35.4221C3.01955 35.5961 3.03555 35.7661 3.05955 35.9331C3.07055 36.0071 3.07655 36.0821 3.09155 36.1551C3.13855 36.3881 3.20055 36.6161 3.28855 36.8301C3.80455 38.0941 4.75855 38.7111 5.52455 39.2041C6.05055 39.5471 6.50655 39.8411 6.63055 40.2191C6.75155 40.5771 6.72155 41.1041 6.67855 41.7171C6.61555 42.8331 6.52955 44.2261 7.32855 45.5031C8.04855 46.6661 8.99255 47.2581 9.75155 47.7401C10.2346 48.0471 10.6546 48.3101 10.8576 48.6301C11.3096 49.3261 11.3826 49.9191 11.4736 50.6721C11.5746 51.5401 11.6916 52.5201 12.3966 53.8391C13.1636 55.2851 14.1996 55.7331 14.9546 56.0571C15.5626 56.3201 15.8796 56.4761 15.9886 56.8791C16.2006 57.6521 17.0336 60.2381 18.8656 61.0741C19.5356 61.3841 20.2566 61.4271 21.0186 61.2041C21.2726 61.1291 21.5316 61.0251 21.7946 60.8901C23.9586 59.7921 28.0336 57.6631 31.8796 55.3381C34.3786 53.8311 36.7716 52.2371 38.4896 50.7861C41.2566 48.4471 42.5006 46.1901 43.4126 44.5341C43.9616 43.5301 44.4046 42.7371 44.9896 42.2411C45.7626 41.5871 46.7676 40.9011 47.6346 40.3441C47.8986 40.1751 48.1436 40.0211 48.3706 39.8811C48.6346 39.7211 48.8726 39.5771 49.0556 39.4681Z" fill="white"/>
<path d="M15.9894 56.8781C15.8804 56.4751 15.5634 56.3201 14.9554 56.0561C14.2004 55.7321 13.1644 55.2841 12.3974 53.8381C11.6924 52.5191 11.5754 51.5391 11.4744 50.6711C11.3834 49.9171 11.3104 49.3251 10.8584 48.6291C10.6554 48.3091 10.2354 48.0461 9.75239 47.7391C8.99339 47.2581 8.04939 46.6651 7.32939 45.5021C6.53039 44.2251 6.61639 42.8321 6.67939 41.7161C6.72139 41.1031 6.75139 40.5761 6.63139 40.2181C6.50739 39.8401 6.05139 39.5461 5.52539 39.2031C4.75839 38.7101 3.80439 38.0931 3.28939 36.8291C3.20139 36.6151 3.13939 36.3881 3.09239 36.1541C3.07739 36.0811 3.07139 36.0071 3.06039 35.9321C3.03639 35.7651 3.02039 35.5951 3.01639 35.4211C3.01439 35.3351 3.01439 35.2501 3.01739 35.1631C3.02339 34.9841 3.04139 34.8031 3.06839 34.6191C3.07939 34.5421 3.08639 34.4661 3.10139 34.3881C3.10739 34.3581 3.10739 34.3291 3.11439 34.2991L0.108394 33.1941C0.102394 33.2221 0.0913939 33.2511 0.0863939 33.2791C0.0713939 33.3571 0.0643939 33.4341 0.0533939 33.5111C0.0263939 33.6941 0.00839388 33.8751 0.00239388 34.0531C-0.000606123 34.1401 -0.000606123 34.2261 0.00139388 34.3121C0.00539388 34.4861 0.0213939 34.6561 0.0453939 34.8231C0.0563939 34.8971 0.0633939 34.9721 0.0773939 35.0451C0.124394 35.2781 0.186394 35.5061 0.274394 35.7201C0.789394 36.9841 1.74339 37.6011 2.51039 38.0941C3.03639 38.4371 3.49239 38.7311 3.61639 39.1091C3.73739 39.4671 3.70739 39.9941 3.66439 40.6071C3.60139 41.7231 3.51539 43.1161 4.31439 44.3931C5.03439 45.5561 5.97839 46.1481 6.73739 46.6301C7.22039 46.9371 7.64039 47.2001 7.84339 47.5201C8.29539 48.2161 8.36839 48.8091 8.45939 49.5621C8.56039 50.4301 8.67739 51.4101 9.38239 52.7291C10.1494 54.1751 11.1854 54.6231 11.9404 54.9471C12.5484 55.2101 12.8654 55.3661 12.9744 55.7691C13.1864 56.5421 14.0194 59.1281 15.8514 59.9641C15.9264 59.9991 16.0024 60.0311 16.0794 60.0591L19.0954 61.1671C19.0184 61.1391 18.9424 61.1071 18.8674 61.0721C17.0354 60.2371 16.2024 57.6511 15.9894 56.8781Z" fill="#838484"/>
<path d="M3.3084 33.5991C3.3194 33.5681 3.3304 33.5371 3.3414 33.5071L0.330398 32.4001C0.319398 32.4301 0.303398 32.4601 0.293398 32.4911C0.211398 32.7271 0.157398 32.9621 0.108398 33.1961L3.1144 34.3011C3.1624 34.0681 3.2274 33.8331 3.3084 33.5991Z" fill="#898989"/>
<path d="M3.46059 33.2301C3.51559 33.0971 3.56759 32.9641 3.63159 32.8331C3.64059 32.8151 3.64659 32.7961 3.65559 32.7781L0.64459 31.6721C0.63559 31.6901 0.62459 31.7071 0.61559 31.7251C0.55059 31.8571 0.49859 31.9911 0.44259 32.1251C0.40459 32.2171 0.36259 32.3081 0.32959 32.4001L3.34059 33.5071C3.37459 33.4141 3.42159 33.3231 3.46059 33.2301Z" fill="#8E8E8E"/>
<path d="M3.79548 32.5361C3.87248 32.3961 3.94848 32.2561 4.03648 32.1181C4.05248 32.0941 4.06348 32.0681 4.07948 32.0441L1.07048 30.9381C1.05448 30.9621 1.03648 30.9851 1.02148 31.0101C0.933484 31.1481 0.857484 31.2891 0.779484 31.4291C0.734484 31.5101 0.687484 31.5901 0.646484 31.6721L3.65748 32.7781C3.69648 32.6961 3.75048 32.6171 3.79548 32.5361Z" fill="#939393"/>
<path d="M4.21134 31.8631C4.32734 31.6941 4.44934 31.5271 4.58134 31.3631C4.61334 31.3231 4.63734 31.2821 4.67034 31.2421L1.66334 30.1371C1.63134 30.1761 1.59634 30.2151 1.56534 30.2541C1.43334 30.4191 1.31134 30.5861 1.19534 30.7551C1.15334 30.8161 1.10934 30.8761 1.06934 30.9371L4.07834 32.0431C4.11834 31.9821 4.17034 31.9241 4.21134 31.8631Z" fill="#979797"/>
<path d="M4.90755 30.9761C4.95255 30.9261 4.99555 30.8751 5.04155 30.8251C5.20855 30.6451 5.38255 30.4671 5.56855 30.2941L2.55555 29.1871C2.36955 29.3601 2.19255 29.5371 2.02555 29.7171C1.97955 29.7671 1.93655 29.8181 1.89155 29.8681C1.81255 29.9571 1.73955 30.0481 1.66455 30.1381L4.67155 31.2431C4.74555 31.1521 4.82755 31.0651 4.90755 30.9761Z" fill="#9D9D9D"/>
<path d="M5.5962 30.2691C5.8282 30.0541 6.0732 29.8431 6.3332 29.6391C6.3532 29.6231 6.3772 29.6081 6.3972 29.5921C6.6382 29.4051 6.8882 29.2231 7.1512 29.0471C7.1652 29.0381 7.1772 29.0271 7.1912 29.0181L4.1792 27.9111C4.1652 27.9201 4.1492 27.9291 4.1352 27.9391C3.8762 28.1121 3.6292 28.2921 3.3912 28.4761C3.3672 28.4951 3.3402 28.5121 3.3162 28.5311C3.0572 28.7351 2.8122 28.9451 2.5802 29.1601C2.5712 29.1691 2.5632 29.1781 2.5542 29.1861L5.5672 30.2931C5.5772 30.2851 5.5872 30.2781 5.5962 30.2691Z" fill="#A1A1A1"/>
<path d="M7.9482 28.5491C10.7052 26.9591 15.7932 24.0011 18.6412 22.3491C18.6692 22.3331 18.6932 22.3101 18.7202 22.2921L15.7122 21.1871C15.6842 21.2061 15.6542 21.2241 15.6252 21.2411C12.7772 22.8921 7.6892 25.8511 4.9322 27.4411C4.6712 27.5921 4.4222 27.7511 4.1792 27.9121L7.1912 29.0191C7.4352 28.8571 7.6872 28.7001 7.9482 28.5491Z" fill="#A8A7A7"/>
<path d="M18.8614 22.1911C18.8774 22.1771 18.8964 22.1651 18.9114 22.1511C18.9154 22.1471 18.9184 22.1431 18.9224 22.1391L15.9094 21.0321C15.9054 21.0361 15.9004 21.0391 15.8954 21.0431C15.8794 21.0571 15.8614 21.0691 15.8454 21.0831C15.8024 21.1191 15.7604 21.1561 15.7134 21.1881L18.7214 22.2931C18.7684 22.2601 18.8164 22.2281 18.8614 22.1911Z" fill="#A1A1A1"/>
<path d="M19.0572 21.9911L16.0482 20.8851C16.0052 20.9371 15.9592 20.9861 15.9102 21.0321L18.9232 22.1391C18.9712 22.0931 19.0142 22.0421 19.0572 21.9911Z" fill="#9D9D9D"/>
<path d="M19.1004 21.9432C19.1114 21.9292 19.1224 21.9142 19.1324 21.8992C19.1454 21.8802 19.1554 21.8592 19.1684 21.8392L16.1584 20.7332C16.1454 20.7532 16.1294 20.7712 16.1164 20.7912C16.1054 20.8062 16.0954 20.8202 16.0844 20.8352C16.0714 20.8522 16.0604 20.8692 16.0474 20.8852L19.0564 21.9912C19.0714 21.9742 19.0874 21.9602 19.1004 21.9432Z" fill="#979797"/>
<path d="M19.2682 21.6732L16.2552 20.5662C16.2262 20.6242 16.1942 20.6792 16.1592 20.7332L19.1692 21.8392C19.2042 21.7852 19.2392 21.7312 19.2682 21.6732Z" fill="#939393"/>
<path d="M19.2794 21.6551C19.2854 21.6421 19.2904 21.6281 19.2974 21.6141C19.3174 21.5701 19.3324 21.5221 19.3484 21.4761L16.3394 20.3701C16.3224 20.4171 16.3014 20.4611 16.2814 20.5061C16.2754 20.5201 16.2704 20.5341 16.2634 20.5471C16.2604 20.5531 16.2584 20.5601 16.2554 20.5661L19.2684 21.6731C19.2714 21.6671 19.2764 21.6611 19.2794 21.6551Z" fill="#8E8E8E"/>
<path d="M19.4014 21.3321C19.4094 21.3001 19.4114 21.2681 19.4174 21.2361L16.4074 20.1301C16.4014 20.1611 16.3934 20.1921 16.3854 20.2231C16.3714 20.2731 16.3564 20.3221 16.3394 20.3691L19.3484 21.4751C19.3654 21.4271 19.3884 21.3821 19.4014 21.3321Z" fill="#898989"/>
<path d="M19.4395 21.1071C19.4455 21.0641 19.4525 21.0211 19.4555 20.9771C19.4585 20.9151 19.4555 20.8541 19.4525 20.7931C19.4505 20.7531 19.4515 20.7131 19.4465 20.6741C19.4375 20.6081 19.4215 20.5441 19.4045 20.4811C19.3965 20.4501 19.3915 20.4171 19.3815 20.3861C19.3505 20.2941 19.3125 20.2051 19.2635 20.1221C19.1325 19.9061 19.0025 19.6841 18.8725 19.4591C18.8305 19.3861 18.7895 19.3121 18.7475 19.2381C18.6595 19.0821 18.5705 18.9261 18.4835 18.7671C18.4345 18.6771 18.3865 18.5861 18.3375 18.4941C18.2585 18.3461 18.1805 18.1981 18.1025 18.0471C18.0525 17.9491 18.0025 17.8491 17.9535 17.7491C17.8795 17.6011 17.8075 17.4511 17.7365 17.3001C17.6875 17.1961 17.6395 17.0931 17.5915 16.9881C17.5225 16.8351 17.4545 16.6811 17.3885 16.5251C17.3435 16.4191 17.2985 16.3141 17.2545 16.2071C17.1885 16.0451 17.1255 15.8801 17.0625 15.7141C17.0235 15.6121 16.9835 15.5101 16.9465 15.4061C16.8785 15.2171 16.8165 15.0261 16.7545 14.8341C16.7275 14.7511 16.6985 14.6701 16.6735 14.5861C16.5895 14.3101 16.5115 14.0301 16.4405 13.7471C16.4295 13.7031 16.4215 13.6581 16.4115 13.6141C16.3545 13.3751 16.3015 13.1331 16.2555 12.8891C16.2365 12.7901 16.2235 12.6891 16.2065 12.5891C16.1745 12.3971 16.1445 12.2061 16.1205 12.0111C16.1065 11.8951 16.0965 11.7781 16.0845 11.6611C16.0665 11.4791 16.0515 11.2971 16.0405 11.1121C16.0335 10.9881 16.0295 10.8631 16.0265 10.7381C16.0215 10.5571 16.0205 10.3751 16.0235 10.1921C16.0255 10.0641 16.0285 9.93708 16.0345 9.80808C16.0425 9.62208 16.0575 9.43508 16.0745 9.24708C16.0855 9.12108 16.0965 8.99408 16.1115 8.86708C16.1355 8.66808 16.1685 8.46708 16.2025 8.26508C16.2225 8.14708 16.2395 8.03008 16.2625 7.91208C16.2685 7.88008 16.2725 7.84808 16.2785 7.81608L13.2685 6.71008C13.2625 6.74108 13.2525 6.77308 13.2465 6.80408C13.2225 6.92208 13.2065 7.03908 13.1865 7.15708C13.1525 7.35808 13.1195 7.55908 13.0955 7.75908C13.0805 7.88608 13.0695 8.01308 13.0585 8.13908C13.0415 8.32708 13.0275 8.51408 13.0185 8.70108C13.0125 8.82908 13.0095 8.95708 13.0075 9.08508C13.0045 9.26808 13.0055 9.45008 13.0105 9.63108C13.0135 9.75608 13.0175 9.88108 13.0245 10.0051C13.0345 10.1891 13.0505 10.3721 13.0685 10.5531C13.0795 10.6701 13.0895 10.7871 13.1045 10.9031C13.1285 11.0971 13.1595 11.2891 13.1905 11.4801C13.2075 11.5801 13.2205 11.6811 13.2395 11.7811C13.2855 12.0251 13.3385 12.2661 13.3955 12.5061C13.4065 12.5501 13.4135 12.5951 13.4245 12.6391C13.4945 12.9221 13.5725 13.2021 13.6575 13.4781C13.6835 13.5621 13.7125 13.6431 13.7385 13.7261C13.8005 13.9181 13.8625 14.1091 13.9305 14.2981C13.9675 14.4021 14.0075 14.5031 14.0465 14.6061C14.1085 14.7711 14.1715 14.9361 14.2385 15.0991C14.2825 15.2061 14.3275 15.3111 14.3725 15.4171C14.4385 15.5721 14.5065 15.7271 14.5755 15.8791C14.6235 15.9841 14.6715 16.0881 14.7205 16.1921C14.7915 16.3431 14.8645 16.4921 14.9375 16.6401C14.9875 16.7401 15.0365 16.8401 15.0875 16.9391C15.1645 17.0901 15.2435 17.2381 15.3215 17.3861C15.3695 17.4771 15.4175 17.5681 15.4665 17.6571C15.5545 17.8171 15.6425 17.9741 15.7315 18.1311C15.7725 18.2041 15.8135 18.2781 15.8555 18.3501C15.9855 18.5751 16.1165 18.7961 16.2465 19.0131C16.2945 19.0951 16.3335 19.1841 16.3645 19.2771C16.3745 19.3081 16.3785 19.3401 16.3875 19.3721C16.4045 19.4361 16.4205 19.4991 16.4295 19.5651C16.4345 19.6041 16.4335 19.6441 16.4355 19.6841C16.4385 19.7451 16.4425 19.8061 16.4385 19.8691C16.4365 19.9121 16.4285 19.9551 16.4225 19.9991C16.4165 20.0431 16.4155 20.0861 16.4065 20.1301L19.4165 21.2361C19.4265 21.1931 19.4345 21.1501 19.4395 21.1071Z" fill="#838484"/>
<path d="M16.4425 7.15711C16.4605 7.08911 16.4735 7.02111 16.4925 6.95311C16.5795 6.64511 16.6775 6.33611 16.7905 6.02411L13.7785 4.91711C13.6655 5.22811 13.5635 5.53811 13.4765 5.84511C13.4575 5.91211 13.4445 5.97911 13.4275 6.04611C13.3685 6.27011 13.3155 6.49211 13.2695 6.71411L16.2795 7.82011C16.3255 7.60111 16.3835 7.37911 16.4425 7.15711Z" fill="#898989"/>
<path d="M16.8213 5.94009C16.9063 5.70909 16.9953 5.49109 17.0843 5.28109C17.1133 5.21409 17.1423 5.15209 17.1713 5.08709C17.2333 4.94909 17.2953 4.81309 17.3593 4.68409C17.3723 4.65709 17.3853 4.62609 17.3993 4.59909L14.3873 3.49109C14.3733 3.51909 14.3583 3.54609 14.3443 3.57509C14.2813 3.70309 14.2193 3.83909 14.1573 3.97609C14.1283 4.04209 14.0983 4.10509 14.0683 4.17309C13.9793 4.38309 13.8913 4.60109 13.8053 4.83109C13.7943 4.86009 13.7883 4.88809 13.7773 4.91709L16.7903 6.02409C16.8013 5.99609 16.8113 5.96809 16.8213 5.94009Z" fill="#8E8E8E"/>
<path d="M17.4752 4.45713C17.5232 4.36613 17.5702 4.27613 17.6192 4.18913C17.6602 4.11513 17.7012 4.04513 17.7432 3.97413C17.7912 3.89313 17.8402 3.81313 17.8882 3.73613C17.9082 3.70413 17.9282 3.66913 17.9482 3.63813L14.9352 2.53113C14.9142 2.56313 14.8932 2.59413 14.8722 2.62713C14.8232 2.70413 14.7742 2.78513 14.7262 2.86713C14.6852 2.93713 14.6442 3.00713 14.6032 3.08013C14.5552 3.16613 14.5072 3.25613 14.4592 3.34813C14.4352 3.39513 14.4112 3.44313 14.3862 3.49013L17.3992 4.59713C17.4242 4.54913 17.4502 4.50513 17.4752 4.45713Z" fill="#939393"/>
<path d="M18.0196 3.53618C18.0626 3.47118 18.1066 3.40818 18.1496 3.34718C18.1946 3.28418 18.2396 3.22218 18.2856 3.16218C18.3296 3.10418 18.3736 3.04718 18.4176 2.99218C18.4386 2.96618 18.4586 2.93718 18.4796 2.91218L15.4666 1.80518C15.4446 1.83118 15.4226 1.85718 15.4016 1.88418C15.3576 1.93918 15.3136 1.99618 15.2696 2.05418C15.2246 2.11418 15.1786 2.17518 15.1336 2.23918C15.0896 2.30018 15.0466 2.36318 15.0026 2.42818C14.9796 2.46218 14.9576 2.49718 14.9346 2.53218L17.9476 3.63918C17.9716 3.60318 17.9956 3.57118 18.0196 3.53618Z" fill="#979797"/>
<path d="M18.5503 2.83411C18.5993 2.77711 18.6473 2.72211 18.6963 2.66811C18.7393 2.62111 18.7823 2.57511 18.8263 2.53011C18.8743 2.48011 18.9233 2.43211 18.9713 2.38511C18.9943 2.36311 19.0173 2.33811 19.0403 2.31611L16.0273 1.20911C16.0033 1.23111 15.9803 1.25311 15.9563 1.27611C15.9073 1.32311 15.8593 1.37111 15.8103 1.42211C15.7673 1.46611 15.7243 1.51211 15.6813 1.55911C15.6323 1.61211 15.5833 1.66811 15.5353 1.72511C15.5133 1.75111 15.4903 1.77911 15.4683 1.80611L18.4813 2.91311C18.5033 2.88511 18.5263 2.86111 18.5503 2.83411Z" fill="#9D9D9D"/>
<path d="M19.0894 2.27414C19.1684 2.20214 19.2464 2.13514 19.3254 2.07114C19.3504 2.05014 19.3764 2.02814 19.4014 2.00814C19.5034 1.92814 19.6034 1.85514 19.7024 1.78914C19.7064 1.78614 19.7114 1.78214 19.7164 1.77914L16.7014 0.671143C16.6964 0.674143 16.6914 0.677143 16.6874 0.680143C16.5884 0.746143 16.4874 0.820143 16.3854 0.900143C16.3604 0.919143 16.3354 0.942143 16.3104 0.962143C16.2324 1.02614 16.1534 1.09314 16.0734 1.16614C16.0584 1.18014 16.0424 1.19514 16.0264 1.21014L19.0394 2.31714C19.0564 2.30114 19.0734 2.28914 19.0894 2.27414Z" fill="#A1A1A1"/>
<path d="M19.7796 1.74112C19.8496 1.69612 19.9186 1.65312 19.9866 1.61412C20.0196 1.59512 20.0526 1.57812 20.0846 1.56012C20.1446 1.52812 20.2036 1.49712 20.2626 1.46912C20.2946 1.45412 20.3266 1.43912 20.3576 1.42512C20.4176 1.39812 20.4766 1.37412 20.5346 1.35112C20.5606 1.34112 20.5866 1.33012 20.6116 1.32112C20.6926 1.29112 20.7716 1.26512 20.8466 1.24312C20.9526 1.21212 21.0526 1.18812 21.1446 1.16912C21.2996 1.13812 21.4556 1.11912 21.6096 1.11012C21.6186 1.10912 21.6266 1.11012 21.6356 1.10912C21.6856 1.10712 21.7346 1.11212 21.7846 1.11112C21.8806 1.11112 21.9756 1.10812 22.0706 1.11612C22.0866 1.11712 22.1036 1.12012 22.1196 1.12112C22.1296 1.12212 22.1386 1.12112 22.1486 1.12212L19.1556 0.0221157C19.1326 0.0191157 19.1106 0.0141157 19.0876 0.0121157C18.9826 0.0021157 18.8756 0.0021157 18.7686 0.0021157C18.7156 0.0021157 18.6636 -0.0018843 18.6106 0.0011157C18.4506 0.0091157 18.2886 0.0281157 18.1276 0.0601157C18.0346 0.0791157 17.9356 0.103116 17.8296 0.134116C17.7546 0.156116 17.6756 0.183116 17.5946 0.212116C17.5696 0.221116 17.5436 0.232116 17.5176 0.242116C17.4596 0.265116 17.4006 0.289116 17.3396 0.316116C17.3116 0.331116 17.2796 0.346116 17.2486 0.361116C17.1896 0.389116 17.1306 0.420116 17.0696 0.452116C17.0366 0.469116 17.0046 0.487116 16.9716 0.505116C16.9026 0.544116 16.8326 0.587116 16.7626 0.633116C16.7426 0.646116 16.7226 0.657116 16.7026 0.671116L19.7176 1.77912C19.7386 1.76512 19.7586 1.75412 19.7796 1.74112Z" fill="#A8A7A7"/>
<g opacity="0.7">
<path opacity="0.7" d="M53.0715 9.50813C52.7945 8.98913 52.3565 8.65213 51.8595 8.51313C51.8195 8.50213 51.7795 8.48813 51.7385 8.48013C51.6615 8.46413 51.5815 8.45413 51.5025 8.44813C51.4755 8.44613 51.4485 8.44213 51.4205 8.44013C51.3265 8.43613 51.2315 8.44013 51.1355 8.45013C51.1215 8.45113 51.1075 8.45213 51.0945 8.45313C50.9845 8.46713 50.8745 8.48913 50.7645 8.52113C50.5785 8.57613 50.3935 8.65713 50.2135 8.76613L41.2775 14.1661C41.1655 14.2341 41.0645 14.3161 40.9655 14.3991C40.9345 14.4251 40.8995 14.4471 40.8705 14.4741C40.7635 14.5731 40.6655 14.6811 40.5755 14.7951C40.5545 14.8211 40.5355 14.8491 40.5155 14.8761C40.4425 14.9761 40.3755 15.0801 40.3145 15.1891C40.3015 15.2131 40.2865 15.2351 40.2745 15.2591C40.2075 15.3881 40.1505 15.5221 40.1035 15.6591C40.0865 15.7081 40.0755 15.7581 40.0615 15.8081C40.0325 15.9081 40.0055 16.0081 39.9875 16.1101C39.9785 16.1621 39.9725 16.2141 39.9655 16.2671C39.9525 16.3661 39.9455 16.4661 39.9435 16.5661C39.9425 16.6211 39.9415 16.6751 39.9435 16.7291C39.9475 16.8331 39.9595 16.9351 39.9745 17.0371C39.9815 17.0841 39.9865 17.1321 39.9955 17.1791C40.0265 17.3261 40.0665 17.4721 40.1245 17.6121L40.2215 17.8491L44.3585 27.9741L55.0585 13.2401L53.0715 9.50813ZM50.5505 16.9781C50.4345 17.6961 50.0795 18.3811 49.5375 18.8691C49.4025 18.9911 49.2555 19.1011 49.0975 19.1951C48.8995 19.3151 48.6965 19.4041 48.4935 19.4641C48.3575 19.5041 48.2205 19.5311 48.0855 19.5451C47.9495 19.5591 47.8155 19.5611 47.6825 19.5501C47.6515 19.5471 47.6215 19.5381 47.5905 19.5341C47.5605 19.5301 47.5315 19.5231 47.5015 19.5181C47.4315 19.5061 47.3615 19.5001 47.2935 19.4821C47.2685 19.4751 47.2465 19.4631 47.2225 19.4551C47.1605 19.4361 47.1005 19.4111 47.0405 19.3861C46.9625 19.3531 46.8865 19.3151 46.8125 19.2731C46.7735 19.2511 46.7355 19.2271 46.6975 19.2031C46.6875 19.1961 46.6755 19.1901 46.6655 19.1831C46.5925 19.1331 46.5245 19.0771 46.4575 19.0171C46.4155 18.9801 46.3725 18.9451 46.3325 18.9041C46.3175 18.8891 46.3015 18.8781 46.2865 18.8631C46.0995 18.6601 45.9425 18.4161 45.8265 18.1331C45.6885 17.7971 45.6215 17.4381 45.6175 17.0771C45.6175 17.0431 45.6245 17.0101 45.6255 16.9761C45.6275 16.8651 45.6365 16.7551 45.6505 16.6451C45.6555 16.6081 45.6525 16.5711 45.6585 16.5351C45.7165 16.1761 45.8345 15.8251 46.0055 15.5031C46.0155 15.4841 46.0305 15.4671 46.0405 15.4481C46.1065 15.3291 46.1805 15.2141 46.2615 15.1041C46.2835 15.0741 46.3045 15.0441 46.3275 15.0141C46.4275 14.8881 46.5355 14.7691 46.6545 14.6601C46.6895 14.6281 46.7295 14.6021 46.7665 14.5721C46.8755 14.4811 46.9855 14.3921 47.1075 14.3181C47.3055 14.1981 47.5085 14.1091 47.7125 14.0491C47.7135 14.0491 47.7155 14.0491 47.7165 14.0481C47.8435 14.0111 47.9705 13.9871 48.0965 13.9731C48.1105 13.9711 48.1235 13.9691 48.1375 13.9681C48.2515 13.9571 48.3645 13.9571 48.4765 13.9631C48.5025 13.9651 48.5295 13.9651 48.5555 13.9681C48.6545 13.9771 48.7515 13.9961 48.8475 14.0191C48.8865 14.0281 48.9255 14.0371 48.9635 14.0491C49.0345 14.0701 49.1035 14.0991 49.1725 14.1271C49.2095 14.1431 49.2495 14.1521 49.2855 14.1691C49.5225 14.2841 49.7405 14.4451 49.9275 14.6481C50.1145 14.8511 50.2715 15.0951 50.3885 15.3781C50.5905 15.8831 50.6375 16.4401 50.5505 16.9781Z" fill="url(#paint1_linear_784_496)"/>
<path opacity="0.7" d="M58.8233 20.3111L56.2373 15.4541L45.3623 30.4301L47.5643 35.8171L58.8233 20.3111Z" fill="url(#paint2_linear_784_496)"/>
</g>
<defs>
<linearGradient id="paint0_linear_784_496" x1="39.9424" y1="24.9829" x2="64.728" y2="24.9829" gradientUnits="userSpaceOnUse">
<stop stop-color="#FAAF3A"/>
<stop offset="1" stop-color="#EF4169"/>
</linearGradient>
<linearGradient id="paint1_linear_784_496" x1="55.3714" y1="3.77423" x2="26.9714" y2="42.5331" gradientUnits="userSpaceOnUse">
<stop stop-color="white"/>
<stop offset="1" stop-color="white" stop-opacity="0"/>
</linearGradient>
<linearGradient id="paint2_linear_784_496" x1="63.5357" y1="9.7565" x2="35.1356" y2="48.5155" gradientUnits="userSpaceOnUse">
<stop stop-color="white"/>
<stop offset="1" stop-color="white" stop-opacity="0"/>
</linearGradient>
</defs>
</svg>
