<svg width="8" height="16" viewBox="0 0 8 16" fill="none" xmlns="http://www.w3.org/2000/svg">
<path d="M5.55395 10.7839C5.55395 10.3528 5.43744 10.011 5.20441 9.75868C4.97644 9.50105 4.58637 9.26446 4.03419 9.0489C3.48202 8.83333 3.00583 8.6204 2.60562 8.41009C2.20542 8.19453 1.86094 7.95005 1.57219 7.67666C1.2885 7.398 1.0656 7.07203 0.903495 6.69874C0.746454 6.32545 0.667933 5.88118 0.667933 5.36593C0.667933 4.47739 0.941489 3.74921 1.4886 3.18139C2.03571 2.61356 2.76266 2.28233 3.66945 2.1877V0.5H4.88526V2.21136C5.78191 2.3428 6.48354 2.73186 6.99012 3.37855C7.49671 4.01998 7.75 4.85331 7.75 5.87855H5.55395C5.55395 5.24763 5.4273 4.77708 5.17401 4.46688C4.92579 4.15142 4.59144 3.99369 4.17097 3.99369C3.75557 3.99369 3.43389 4.11725 3.20593 4.36435C2.97796 4.6062 2.86398 4.94269 2.86398 5.37382C2.86398 5.7734 2.97543 6.09411 3.19833 6.33596C3.42123 6.57781 3.83409 6.82492 4.43693 7.07729C5.04483 7.32965 5.54382 7.56888 5.93389 7.79495C6.32396 8.01577 6.65324 8.26814 6.92173 8.55205C7.19022 8.8307 7.39539 9.15142 7.53723 9.5142C7.67908 9.87171 7.75 10.2897 7.75 10.7681C7.75 11.6619 7.48151 12.3875 6.94453 12.9448C6.40755 13.5021 5.66793 13.8307 4.72568 13.9306V15.5H3.51748V13.9385C2.47898 13.8228 1.67351 13.4416 1.10106 12.795C0.533688 12.143 0.25 11.2781 0.25 10.2003H2.44605C2.44605 10.826 2.58789 11.307 2.87158 11.6435C3.16033 11.9748 3.5732 12.1404 4.11018 12.1404C4.55598 12.1404 4.90805 12.0195 5.16641 11.7776C5.42477 11.5305 5.55395 11.1993 5.55395 10.7839Z" fill="white"/>
</svg>
