<svg width="47" height="46" viewBox="0 0 47 46" fill="none" xmlns="http://www.w3.org/2000/svg">
<path d="M45.433 6.27824V6.27424C45.379 6.15124 45.318 6.02724 45.252 5.90824C44.974 5.37324 44.627 4.87924 44.222 4.42924C44.137 4.32924 44.049 4.23224 43.952 4.14024C43.093 3.25724 42.01 2.53724 40.768 1.95424C40.645 1.89624 40.518 1.84224 40.391 1.78824C39.809 1.53424 39.192 1.31024 38.549 1.11324C38.422 1.07524 38.291 1.03624 38.16 0.998236C37.1 0.701236 35.974 0.474236 34.815 0.312236C34.665 0.293236 34.514 0.270236 34.364 0.254236C33.551 0.154236 32.726 0.0842357 31.893 0.0422357C31.731 0.0342357 31.573 0.0302357 31.411 0.0232357C29.842 -0.0307643 28.262 0.0152357 26.732 0.142236C26.57 0.154236 26.412 0.165236 26.25 0.180236C26.088 0.195236 25.934 0.211236 25.776 0.230236H25.773C25.611 0.245236 25.453 0.264236 25.295 0.284236C25.292 0.288236 25.292 0.288236 25.292 0.288236C24.34 0.396236 23.415 0.538236 22.536 0.712236C22.331 0.750236 22.135 0.793236 21.935 0.831236H21.931C21.484 0.927236 21.048 1.03124 20.628 1.14324C20.431 1.18924 20.243 1.24324 20.053 1.29724C19.698 1.39324 19.352 1.50124 19.024 1.60924C18.858 1.66324 18.696 1.72124 18.535 1.77924C18.33 1.84824 18.13 1.92124 17.93 1.99924C6.42598 6.32724 -0.280025 17.0842 0.00897454 30.2342C0.0239745 30.9622 0.0939745 31.6642 0.212975 32.3352C0.293975 32.7892 0.393975 33.2332 0.521975 33.6612C1.12297 35.7392 2.23297 37.5112 3.71697 39.0062C3.88997 39.1842 4.06797 39.3582 4.25197 39.5232C4.69197 39.9272 5.15797 40.3052 5.65197 40.6672H5.65597C5.80597 40.7752 5.95297 40.8832 6.10697 40.9872C6.60397 41.3272 7.12498 41.6462 7.66797 41.9472C7.81497 42.0282 7.96497 42.1132 8.11897 42.1942C9.36797 42.8492 10.716 43.4042 12.131 43.8752C12.301 43.9292 12.474 43.9872 12.647 44.0372C14.867 44.7302 17.241 45.2042 19.646 45.4902H19.65C19.989 45.5282 20.325 45.5632 20.664 45.5982C24.464 45.9612 28.303 45.8602 31.71 45.3972C32.011 45.3552 32.315 45.3122 32.616 45.2592C32.797 45.2312 32.978 45.1972 33.159 45.1622C35.102 44.7992 37.006 44.2292 38.717 43.4242C38.833 43.3692 38.948 43.3112 39.06 43.2572C39.542 43.0142 40.008 42.7572 40.451 42.4752C40.571 42.4022 40.686 42.3282 40.798 42.2512C41.731 41.6272 42.564 40.9062 43.261 40.0822C43.346 39.9812 43.431 39.8772 43.516 39.7732C43.963 39.1952 44.348 38.5702 44.657 37.8962C44.711 37.7772 44.765 37.6572 44.811 37.5372C45.146 36.7122 45.37 35.8182 45.462 34.8432C45.477 34.6812 45.493 34.5152 45.5 34.3502C45.527 33.8262 45.515 33.2862 45.462 32.7242C45.451 32.5742 45.432 32.4242 45.412 32.2732C45.32 31.5022 45.15 30.6932 44.904 29.8452C44.865 29.7172 44.827 29.5862 44.784 29.4562C44.688 29.1432 44.58 28.8282 44.457 28.5042C44.422 28.4002 44.384 28.2952 44.341 28.1912C44.329 28.1642 44.318 28.1332 44.306 28.1062C44.26 27.9832 44.206 27.8632 44.152 27.7432V27.7402C44.125 27.6672 44.09 27.5982 44.059 27.5282C43.577 26.4802 42.949 25.4932 42.302 24.5572C42.229 24.4492 42.156 24.3452 42.078 24.2412C41.889 23.9672 41.697 23.6982 41.511 23.4322C41.43 23.3242 41.357 23.2162 41.28 23.1112C40.968 22.6682 40.663 22.2362 40.39 21.8092C40.317 21.7012 40.248 21.5932 40.186 21.4852C39.951 21.1102 39.739 20.7372 39.562 20.3712C39.504 20.2482 39.446 20.1242 39.4 20.0052C39.115 19.3302 38.953 18.6602 38.98 17.9932C38.988 17.7812 39.015 17.5732 39.061 17.3612V17.3572C39.119 17.0992 39.207 16.8412 39.331 16.5792C40.009 15.1332 41.312 14.4052 42.595 13.7302C42.603 13.7262 42.607 13.7222 42.607 13.7182C42.977 13.5332 43.339 13.3442 43.689 13.1402H43.693C44.73 12.5502 45.609 11.8652 45.951 10.6892C45.951 10.6862 45.951 10.6862 45.951 10.6862C46.02 10.4582 46.067 10.2162 46.09 9.94924V9.94624C46.101 9.81524 46.109 9.68024 46.109 9.54124C46.108 8.32024 45.873 7.23724 45.433 6.27824ZM34.812 22.3722C34.743 23.2052 34.496 24.0802 34.065 24.9232C34.065 24.9272 34.065 24.9272 34.061 24.9312C33.98 25.0972 33.888 25.2672 33.787 25.4322C33.525 25.8672 33.232 26.2642 32.912 26.6152L32.908 26.6182C32.222 27.3782 31.432 27.9362 30.622 28.2602C30.476 28.3212 30.329 28.3712 30.183 28.4142H30.179C29.697 28.5602 29.215 28.6182 28.753 28.5802C28.622 28.5722 28.491 28.5532 28.364 28.5262C28.017 28.4602 27.685 28.3332 27.377 28.1492C26.637 27.7062 26.14 26.9772 25.901 26.0982C25.847 25.8982 25.805 25.6862 25.778 25.4702C25.605 24.1642 25.928 22.6262 26.78 21.2122C27.782 19.5432 29.285 18.4412 30.742 18.1402H30.746C30.942 18.0932 31.139 18.0672 31.332 18.0632H31.336C31.999 18.0172 32.631 18.1552 33.189 18.4912C33.312 18.5642 33.428 18.6452 33.536 18.7382C34.376 19.4162 34.816 20.5232 34.831 21.7792C34.834 21.9752 34.831 22.1722 34.812 22.3722Z" fill="url(#paint0_linear_784_926)"/>
<g opacity="0.3">
<path opacity="0.3" d="M5.33497 40.4073C3.85197 38.9113 2.74197 37.1393 2.13997 35.0613C2.01297 34.6333 1.91297 34.1893 1.83197 33.7353C1.71197 33.0643 1.64297 32.3633 1.62697 31.6343C1.33897 18.4843 8.04397 7.72826 19.549 3.39926C19.75 3.32226 19.95 3.24926 20.154 3.17926C20.316 3.12126 20.478 3.06326 20.643 3.00926C20.971 2.90126 21.318 2.79326 21.672 2.69726C21.861 2.64326 22.05 2.58926 22.246 2.54326C22.666 2.43126 23.101 2.32726 23.549 2.23126H23.553C23.753 2.19326 23.95 2.15026 24.154 2.11226C25.033 1.93926 25.957 1.79626 26.91 1.68826C26.91 1.68826 26.91 1.68826 26.914 1.68426C27.072 1.66526 27.23 1.64626 27.392 1.63026H27.396C27.554 1.61126 27.708 1.59526 27.87 1.58026C28.032 1.56526 28.19 1.55326 28.351 1.54126C29.881 1.41426 31.462 1.36826 33.031 1.42226C33.193 1.42926 33.351 1.43326 33.512 1.44126C34.345 1.48326 35.169 1.55326 35.983 1.65326C36.133 1.66826 36.284 1.69126 36.434 1.71126C37.594 1.87326 38.719 2.10026 39.779 2.39726C39.91 2.43526 40.041 2.47426 40.168 2.51226C40.812 2.70926 41.429 2.93226 42.01 3.18726C42.137 3.24126 42.265 3.29526 42.387 3.35326C43.024 3.65226 43.617 3.98826 44.162 4.36326C44.095 4.28726 44.028 4.21126 43.953 4.13926C43.094 3.25626 42.011 2.53626 40.769 1.95326C40.646 1.89526 40.519 1.84126 40.392 1.78726C39.81 1.53326 39.193 1.30926 38.55 1.11226C38.423 1.07426 38.292 1.03526 38.161 0.997259C37.101 0.700259 35.975 0.473259 34.816 0.311259C34.666 0.292259 34.515 0.269259 34.365 0.253259C33.552 0.153259 32.727 0.0832592 31.894 0.0412592C31.732 0.0332592 31.574 0.0292592 31.412 0.0222592C29.843 -0.0317409 28.263 0.0142591 26.733 0.141259C26.571 0.153259 26.413 0.164259 26.251 0.179259C26.089 0.194259 25.935 0.210259 25.777 0.229259H25.774C25.612 0.244259 25.454 0.263259 25.296 0.283259C25.293 0.287259 25.293 0.287259 25.293 0.287259C24.341 0.395259 23.416 0.537259 22.537 0.711259C22.332 0.749259 22.136 0.792259 21.936 0.830259H21.932C21.485 0.926259 21.049 1.03026 20.629 1.14226C20.432 1.18826 20.244 1.24226 20.054 1.29626C19.699 1.39226 19.353 1.50026 19.025 1.60826C18.859 1.66226 18.697 1.72026 18.536 1.77826C18.331 1.84726 18.131 1.92026 17.931 1.99826C6.42597 6.32726 -0.280025 17.0843 0.00897453 30.2343C0.0239745 30.9623 0.0939745 31.6643 0.212975 32.3353C0.293975 32.7893 0.393975 33.2333 0.521975 33.6613C1.12297 35.7393 2.23297 37.5113 3.71697 39.0063C3.88997 39.1843 4.06797 39.3583 4.25197 39.5233C4.62097 39.8633 5.01297 40.1803 5.41997 40.4893C5.39297 40.4613 5.36297 40.4353 5.33497 40.4073Z" fill="#F9F7F6"/>
</g>
<g opacity="0.2">
<g opacity="0.2">
<path opacity="0.2" d="M18.5359 1.78027C17.1209 4.12727 15.0629 5.69227 12.8239 7.39127C7.66689 11.3113 1.39689 16.0793 0.521891 33.6613C0.394891 33.2333 0.293891 32.7903 0.212891 32.3353C1.33489 15.6433 7.50189 10.9573 12.5929 7.08627C14.6549 5.51827 16.5629 4.06927 17.9309 1.99927C18.1309 1.92227 18.3309 1.84927 18.5359 1.78027Z" fill="#FDEFEE"/>
</g>
<g opacity="0.2">
<path opacity="0.2" d="M14.3768 8.32417C7.52482 15.3352 -0.184184 23.2202 4.25182 39.5232C4.06682 39.3572 3.88982 39.1832 3.71682 39.0062C-0.422184 22.9122 7.26182 15.0532 14.1038 8.05416C16.2968 5.81116 18.4208 3.63717 20.0538 1.29816C20.2428 1.24416 20.4318 1.19017 20.6288 1.14417C18.9438 3.65317 16.6968 5.95017 14.3768 8.32417Z" fill="#FDEFEE"/>
</g>
<g opacity="0.2">
<path opacity="0.2" d="M19.8997 3.71116C13.3167 11.0252 2.61369 22.9192 6.10569 40.9872C5.95169 40.8832 5.80469 40.7752 5.65469 40.6672H5.65169C2.35269 22.6372 13.0247 10.7712 19.6107 3.45216C20.4667 2.50416 21.2487 1.63316 21.9307 0.831158H21.9347C22.1347 0.793158 22.3307 0.750158 22.5357 0.712158C21.7767 1.61816 20.8827 2.61616 19.8997 3.71116Z" fill="#FDEFEE"/>
</g>
<g opacity="0.2">
<path opacity="0.2" d="M21.4951 6.21222C14.6781 15.1232 4.61506 28.2772 8.11806 42.1942C7.96406 42.1132 7.81306 42.0282 7.66706 41.9472C4.41106 27.9062 14.7901 14.3372 21.1871 5.97722C22.8791 3.76522 24.3631 1.82622 25.2921 0.288225C25.2921 0.288225 25.2921 0.288225 25.2951 0.284225C25.4531 0.265225 25.6111 0.246225 25.7731 0.230225C24.8641 1.80722 23.3301 3.81022 21.4951 6.21222Z" fill="#FDEFEE"/>
</g>
<g opacity="0.2">
<path opacity="0.2" d="M12.6471 44.0362C12.4741 43.9862 12.3001 43.9282 12.1311 43.8742C9.81506 38.4822 11.3571 29.7522 16.7411 17.8122C19.9511 10.6942 23.8401 4.06824 26.2521 0.179235C26.4141 0.164235 26.5721 0.153235 26.7341 0.141235C21.2721 8.94024 7.51306 32.9592 12.6471 44.0362Z" fill="#FDEFEE"/>
</g>
<g opacity="0.2">
<path opacity="0.2" d="M19.3178 44.8572C19.3408 44.8732 19.8338 45.1662 20.6628 45.5972C20.3238 45.5622 19.9878 45.5272 19.6488 45.4892H19.6448C19.3208 45.3112 19.1398 45.2002 19.1278 45.1922C16.5988 43.8972 15.0038 41.8082 14.3988 38.9952C11.9298 27.5372 26.1088 7.14522 31.4118 0.0222168C31.5738 0.0292168 31.7318 0.0332168 31.8938 0.0412168C26.7908 6.92022 12.3498 27.6522 14.7738 38.9132C15.3558 41.6072 16.8858 43.6092 19.3178 44.8572Z" fill="#FDEFEE"/>
</g>
<g opacity="0.2">
<path opacity="0.2" d="M21.896 41.7892C21.973 41.7932 28.598 42.0052 33.157 45.1612C32.976 45.1962 32.795 45.2302 32.614 45.2582C28.178 42.3782 21.957 42.1782 21.88 42.1742C18.944 42.0122 17.009 40.9222 16.118 38.9322C12.426 30.6422 27.78 8.9552 34.363 0.252197C34.513 0.267197 34.664 0.290197 34.814 0.310197C28.385 8.8392 12.884 30.7232 16.472 38.7742C17.295 40.6222 19.122 41.6382 21.896 41.7892Z" fill="#FDEFEE"/>
</g>
<g opacity="0.2">
<path opacity="0.2" d="M39.0589 43.2572C38.9469 43.3112 38.8319 43.3692 38.7159 43.4242C37.6059 40.9762 35.9989 40.1292 24.4519 39.4162C21.3419 39.2232 19.4339 38.2792 18.6169 36.5252C16.0269 30.9752 25.2879 18.4342 36.0109 3.91117C36.7239 2.94817 37.4409 1.97317 38.1619 0.998169C38.2929 1.03617 38.4239 1.07517 38.5509 1.11317C37.8079 2.12717 37.0639 3.13717 36.3229 4.13917C26.1139 17.9632 16.4749 31.0212 18.9639 36.3592C19.7199 37.9742 21.5229 38.8492 24.4749 39.0302C36.2489 39.7582 37.9139 40.7222 39.0589 43.2572Z" fill="#FDEFEE"/>
</g>
<g opacity="0.2">
<path opacity="0.2" d="M40.7968 42.2512C40.6848 42.3282 40.5698 42.4022 40.4498 42.4752C38.7238 41.1692 36.1408 40.3632 33.1008 39.4192C30.0488 38.4702 26.5868 37.3922 22.9678 35.5292C22.0198 35.0442 21.4418 34.2422 21.2408 33.1472C19.9428 25.9952 35.1698 7.78423 40.3918 1.78723C40.5188 1.84123 40.6458 1.89523 40.7688 1.95323C35.6848 7.80723 20.3578 26.1532 21.6178 33.0792C21.7988 34.0622 22.2958 34.7522 23.1398 35.1872C26.7318 37.0372 30.1768 38.1042 33.2138 39.0532C36.3568 40.0272 39.0198 40.8562 40.7968 42.2512Z" fill="#FDEFEE"/>
</g>
<g opacity="0.2">
<path opacity="0.2" d="M43.514 39.7742C43.429 39.8782 43.345 39.9822 43.259 40.0832C40.781 37.0142 38.345 37.0412 35.574 37.0682C32.784 37.0992 29.631 37.1342 25.712 34.2282C24.714 33.4882 24.178 32.4432 24.116 31.1252C24.043 29.5182 24.679 27.5752 25.777 25.4712C25.804 25.6872 25.846 25.8992 25.9 26.0992C24.967 27.9682 24.44 29.6802 24.501 31.1062C24.555 32.3042 25.041 33.2492 25.939 33.9152C29.755 36.7442 32.845 36.7132 35.571 36.6832C38.427 36.6482 40.943 36.6242 43.514 39.7742Z" fill="#FDEFEE"/>
<path opacity="0.2" d="M31.3311 18.0632C31.1381 18.0672 30.9421 18.0932 30.7451 18.1402C35.2661 12.4742 40.9581 6.93618 43.9531 4.13818C44.0491 4.23018 44.1381 4.32718 44.2231 4.42718C41.3131 7.16318 35.7901 12.5512 31.3351 18.0632H31.3311Z" fill="#FDEFEE"/>
</g>
<g opacity="0.2">
<path opacity="0.2" d="M34.946 34.4322C37.879 34.8902 41.4331 35.4492 44.809 37.5382C44.7631 37.6582 44.7091 37.7782 44.6551 37.8972C41.3251 35.8242 37.7941 35.2692 34.8881 34.8132C32.0361 34.3672 29.7851 34.0162 28.9721 32.3812C28.3901 31.2102 28.2171 29.9102 28.3631 28.5272C28.4901 28.5542 28.6211 28.5732 28.7521 28.5812C28.6091 29.8912 28.7711 31.1132 29.3151 32.2082C30.0441 33.6642 32.206 34.0042 34.946 34.4322Z" fill="#FDEFEE"/>
<path opacity="0.2" d="M45.433 6.27423V6.27823C42.631 8.73723 37.405 13.5892 33.535 18.7382C33.427 18.6452 33.311 18.5642 33.188 18.4912C37.12 13.2452 42.438 8.35123 45.252 5.90723C45.318 6.02723 45.379 6.15023 45.433 6.27423Z" fill="#FDEFEE"/>
</g>
<g opacity="0.2">
<path opacity="0.2" d="M43.687 13.1422C43.337 13.3472 42.975 13.5352 42.605 13.7202C43.826 12.4522 45.01 11.1842 46.089 9.95117C46.066 10.2172 46.019 10.4602 45.95 10.6882C45.95 10.6882 45.95 10.6882 45.95 10.6912C45.23 11.5002 44.474 12.3172 43.692 13.1422H43.687Z" fill="#FDEFEE"/>
<path opacity="0.2" d="M38.978 17.9942C37.498 19.5092 36.069 20.9892 34.812 22.3722C34.831 22.1722 34.835 21.9762 34.831 21.7792C36.103 20.3912 37.544 18.9072 39.059 17.3622C39.013 17.5732 38.985 17.7822 38.978 17.9942Z" fill="#FDEFEE"/>
<path opacity="0.2" d="M45.4988 34.3502C45.4918 34.5162 45.4758 34.6822 45.4608 34.8432C43.6958 32.9822 40.7288 31.5022 34.3998 31.5022C34.1338 31.5022 33.8838 31.4992 33.6448 31.4872C31.6938 31.3832 30.5648 30.8742 30.1948 29.9302C30.0248 29.4952 30.0288 28.9902 30.1798 28.4162H30.1838C30.3298 28.3732 30.4768 28.3232 30.6228 28.2622C30.4228 28.8562 30.3918 29.3682 30.5538 29.7882C30.8578 30.5702 31.9068 31.0092 33.6678 31.1022C33.8988 31.1142 34.1418 31.1172 34.3998 31.1172C40.5618 31.1172 43.6488 32.5552 45.4988 34.3502Z" fill="#FDEFEE"/>
</g>
<g opacity="0.2">
<path opacity="0.2" d="M45.4598 32.7242C43.2398 31.6452 40.1368 30.6813 35.1698 30.0303C33.6318 29.8293 32.7488 29.2902 32.5418 28.4303C32.4148 27.9023 32.5648 27.2863 32.9078 26.6182L32.9118 26.6152C33.1858 26.0792 33.5828 25.5092 34.0598 24.9312C34.0638 24.9272 34.0638 24.9273 34.0638 24.9233C35.5048 23.1853 37.6708 21.3502 39.3978 20.0052C39.4438 20.1242 39.5018 20.2483 39.5598 20.3713C36.6108 22.6763 32.4408 26.3492 32.9188 28.3382C33.0848 29.0282 33.8588 29.4673 35.2198 29.6483C40.0758 30.2883 43.1748 31.2242 45.4098 32.2722C45.4298 32.4242 45.4488 32.5742 45.4598 32.7242Z" fill="#FDEFEE"/>
</g>
<g opacity="0.2">
<path opacity="0.2" d="M44.9021 29.8462C43.7611 29.7842 42.4351 29.7262 40.8981 29.6642C37.1131 29.5142 35.1211 28.8052 34.8121 27.4872C34.3611 25.5752 37.8601 22.9742 40.1851 21.4862C40.2471 21.5942 40.3161 21.7022 40.3891 21.8102C37.9421 23.3902 34.8121 25.8142 35.1861 27.3982C35.4441 28.4922 37.4251 29.1442 40.9131 29.2782C42.4081 29.3362 43.6881 29.3942 44.7821 29.4562C44.8251 29.5872 44.8631 29.7182 44.9021 29.8462Z" fill="#FDEFEE"/>
</g>
<g opacity="0.2">
<path opacity="0.2" d="M44.4551 28.5042C40.1571 28.1642 37.9641 27.4402 37.7681 26.3072C37.5491 25.0392 39.9151 23.7442 41.2791 23.1112C41.3561 23.2152 41.4291 23.3242 41.5101 23.4322C40.0801 24.0952 37.9841 25.2892 38.1461 26.2412C38.2421 26.7882 39.2291 27.6822 44.3051 28.1062C44.3171 28.1332 44.3281 28.1642 44.3401 28.1912C44.3811 28.2962 44.4201 28.4002 44.4551 28.5042Z" fill="#FDEFEE"/>
</g>
<g opacity="0.2">
<path opacity="0.2" d="M44.1727 27.5442L44.1497 27.7412V27.7442L44.1307 27.9262C41.7297 27.6672 40.4967 27.1512 40.3617 26.3452C40.2307 25.5632 41.2327 24.7652 42.0767 24.2412C42.1537 24.3452 42.2267 24.4492 42.3007 24.5572C41.4527 25.0852 40.6587 25.7672 40.7437 26.2842C40.8017 26.6192 41.3027 27.2172 44.0577 27.5292C44.0957 27.5372 44.1347 27.5412 44.1727 27.5442Z" fill="#FDEFEE"/>
</g>
</g>
<path d="M9.9949 24.3083C12.1068 24.3083 13.8189 22.5962 13.8189 20.4843C13.8189 18.3723 12.1068 16.6603 9.9949 16.6603C7.88296 16.6603 6.1709 18.3723 6.1709 20.4843C6.1709 22.5962 7.88296 24.3083 9.9949 24.3083Z" fill="url(#paint1_linear_784_926)"/>
<path d="M19.2307 15.3462C21.3427 15.3462 23.0547 13.6342 23.0547 11.5222C23.0547 9.41031 21.3427 7.69824 19.2307 7.69824C17.1188 7.69824 15.4067 9.41031 15.4067 11.5222C15.4067 13.6342 17.1188 15.3462 19.2307 15.3462Z" fill="url(#paint2_linear_784_926)"/>
<path d="M31.3709 11.5223C33.4828 11.5223 35.1949 9.8102 35.1949 7.69827C35.1949 5.58633 33.4828 3.87427 31.3709 3.87427C29.2589 3.87427 27.5469 5.58633 27.5469 7.69827C27.5469 9.8102 29.2589 11.5223 31.3709 11.5223Z" fill="url(#paint3_linear_784_926)"/>
<path opacity="0.2" d="M31.2821 0.020239C30.7651 0.00523897 30.2471 0.00223897 29.7301 0.00723897C29.7001 0.00823897 29.6701 0.00823897 29.6391 0.00823897C28.8821 0.017239 28.1291 0.047239 27.3841 0.097239C27.3791 0.098239 27.3731 0.098239 27.3671 0.098239C27.1561 0.113239 26.9431 0.124239 26.7331 0.142239C26.5711 0.154239 26.4131 0.165239 26.2511 0.180239C26.2141 0.184239 26.1801 0.188239 26.1441 0.191239C26.0361 0.202239 25.9271 0.212239 25.8201 0.225239C25.8061 0.226239 25.7921 0.228239 25.7781 0.229239H25.7751C25.6131 0.244239 25.4551 0.263239 25.2971 0.283239C25.2941 0.287239 25.2941 0.287239 25.2941 0.287239C24.3421 0.395239 23.4171 0.537239 22.5381 0.711239C22.3331 0.749239 22.1371 0.792239 21.9371 0.830239H21.9331C21.4861 0.926239 21.0501 1.03024 20.6301 1.14224C20.4331 1.18824 20.2451 1.24224 20.0551 1.29624C19.7001 1.39224 19.3541 1.50024 19.0261 1.60824C18.8601 1.66224 18.6981 1.72024 18.5371 1.77824C18.3321 1.84724 18.1321 1.92024 17.9321 1.99824C8.55809 5.52624 2.3721 13.3182 0.556095 23.1962C0.509095 23.4522 0.468095 23.7112 0.426095 23.9702C0.387095 24.2172 0.351095 24.4662 0.317095 24.7162C0.316095 24.7242 0.315095 24.7322 0.314095 24.7402C0.219095 25.4482 0.144095 26.1662 0.092095 26.8932C0.092095 26.8942 0.092095 26.8942 0.092095 26.8942C0.014095 27.9882 -0.015905 29.1012 0.00909502 30.2342C0.010095 30.3002 0.018095 30.3632 0.020095 30.4292V30.4282C0.028095 30.6532 0.041095 30.8752 0.059095 31.0952C0.059095 31.0972 0.060095 31.0992 0.060095 31.1012C0.070095 31.2182 0.079095 31.3352 0.092095 31.4512C0.093095 31.4522 0.093095 31.4532 0.093095 31.4542C0.125095 31.7522 0.163095 32.0482 0.214095 32.3352C0.270095 32.6492 0.339095 32.9552 0.417095 33.2582L0.416095 33.2572C0.451095 33.3922 0.483095 33.5282 0.522095 33.6602C0.536095 33.7092 0.553095 33.7562 0.569095 33.8042C11.5531 30.7092 28.7441 22.3262 31.2821 0.020239Z" fill="#FCF9FA"/>
<defs>
<linearGradient id="paint0_linear_784_926" x1="28.2373" y1="25.3294" x2="72.9049" y2="63.3179" gradientUnits="userSpaceOnUse">
<stop stop-color="#FCC16F"/>
<stop offset="1" stop-color="#F89C3A"/>
</linearGradient>
<linearGradient id="paint1_linear_784_926" x1="6.1709" y1="20.4848" x2="13.8189" y2="20.4848" gradientUnits="userSpaceOnUse">
<stop stop-color="#AC6385"/>
<stop offset="0.3689" stop-color="#AC5F7E"/>
<stop offset="0.8923" stop-color="#AE546C"/>
<stop offset="1" stop-color="#AE5167"/>
</linearGradient>
<linearGradient id="paint2_linear_784_926" x1="15.4064" y1="11.5225" x2="23.0544" y2="11.5225" gradientUnits="userSpaceOnUse">
<stop stop-color="#F48A89"/>
<stop offset="0.2439" stop-color="#F37C7B"/>
<stop offset="0.7028" stop-color="#F16666"/>
<stop offset="1" stop-color="#F05E5E"/>
</linearGradient>
<linearGradient id="paint3_linear_784_926" x1="27.5464" y1="7.69857" x2="35.1944" y2="7.69857" gradientUnits="userSpaceOnUse">
<stop stop-color="#67C197"/>
<stop offset="0.1724" stop-color="#62C097"/>
<stop offset="0.383" stop-color="#53BD96"/>
<stop offset="0.6136" stop-color="#3AB995"/>
<stop offset="0.8568" stop-color="#18B294"/>
<stop offset="1" stop-color="#00AE93"/>
</linearGradient>
</defs>
</svg>
