<svg width="24" height="24" viewBox="0 0 24 24" fill="none" xmlns="http://www.w3.org/2000/svg">
<path d="M23.0255 12.9745C23.5637 12.9745 24 12.5382 24 12C24 11.4618 23.5637 11.0255 23.0255 11.0255H12.9745L12.9745 0.974524C12.9745 0.436309 12.5382 -4.10731e-08 12 0C11.4618 -4.10731e-08 11.0255 0.436309 11.0255 0.974524L11.0255 11.0255L0.974525 11.0255C0.436311 11.0255 1.33488e-06 11.4618 0 12C1.2938e-06 12.5382 0.43631 12.9745 0.974524 12.9745H11.0255V23.0255C11.0255 23.5637 11.4618 24 12 24C12.5382 24 12.9745 23.5637 12.9745 23.0255V12.9745L23.0255 12.9745Z" fill="white"/>
<path d="M23.0255 12.9745C23.5637 12.9745 24 12.5382 24 12C24 11.4618 23.5637 11.0255 23.0255 11.0255H12.9745L12.9745 0.974524C12.9745 0.436309 12.5382 -4.10731e-08 12 0C11.4618 -4.10731e-08 11.0255 0.436309 11.0255 0.974524L11.0255 11.0255L0.974525 11.0255C0.436311 11.0255 1.33488e-06 11.4618 0 12C1.2938e-06 12.5382 0.43631 12.9745 0.974524 12.9745H11.0255V23.0255C11.0255 23.5637 11.4618 24 12 24C12.5382 24 12.9745 23.5637 12.9745 23.0255V12.9745L23.0255 12.9745Z" fill="white"/>
<path d="M23.0255 12.9745C23.5637 12.9745 24 12.5382 24 12C24 11.4618 23.5637 11.0255 23.0255 11.0255H12.9745L12.9745 0.974524C12.9745 0.436309 12.5382 -4.10731e-08 12 0C11.4618 -4.10731e-08 11.0255 0.436309 11.0255 0.974524L11.0255 11.0255L0.974525 11.0255C0.436311 11.0255 1.33488e-06 11.4618 0 12C1.2938e-06 12.5382 0.43631 12.9745 0.974524 12.9745H11.0255V23.0255C11.0255 23.5637 11.4618 24 12 24C12.5382 24 12.9745 23.5637 12.9745 23.0255V12.9745L23.0255 12.9745Z" fill="white"/>
</svg>
