<svg width="16" height="16" viewBox="0 0 16 16" fill="none" xmlns="http://www.w3.org/2000/svg">
<path fill-rule="evenodd" clip-rule="evenodd" d="M1.62647 1.62647C1.22535 2.02759 1 2.57162 1 3.13889V12.8611C1 13.4284 1.22535 13.9724 1.62647 14.3735C2.02759 14.7747 2.57162 15 3.13889 15H12.8611C13.4284 15 13.9724 14.7747 14.3735 14.3735C14.7747 13.9724 15 13.4284 15 12.8611V5.11133C15 4.44089 14.734 3.79767 14.2596 3.32322L12.6768 1.74044C12.442 1.50562 12.1632 1.31936 11.8564 1.19232C11.5496 1.06527 11.2207 0.999918 10.8887 1H3.13889C2.57162 1 2.02759 1.22535 1.62647 1.62647ZM2.16667 3.13889C2.16667 2.60222 2.60222 2.16667 3.13889 2.16667H4.11111V4.30556C4.11111 4.76968 4.29549 5.2148 4.62367 5.54299C4.95186 5.87118 5.39698 6.05556 5.86111 6.05556H9.36111C9.59092 6.05556 9.81849 6.01029 10.0308 5.92234C10.2431 5.8344 10.436 5.70549 10.5985 5.54299C10.7611 5.38049 10.89 5.18757 10.9779 4.97525C11.0658 4.76293 11.1111 4.53537 11.1111 4.30556V2.18456C11.3917 2.23111 11.6506 2.36439 11.8516 2.56567L13.4343 4.14844C13.6902 4.40356 13.8333 4.74967 13.8333 5.11133V12.8611C13.8333 13.3978 13.3978 13.8333 12.8611 13.8333H12.6667V9.75C12.6667 9.28587 12.4823 8.84075 12.1541 8.51256C11.8259 8.18437 11.3808 8 10.9167 8H5.08333C4.6192 8 4.17409 8.18437 3.8459 8.51256C3.51771 8.84075 3.33333 9.28587 3.33333 9.75V13.8333H3.13889C2.60222 13.8333 2.16667 13.3978 2.16667 12.8611V3.13889ZM11.5 9.75V13.8333H4.5V9.75C4.5 9.59529 4.56146 9.44692 4.67085 9.33752C4.78025 9.22813 4.92862 9.16667 5.08333 9.16667H10.9167C11.0714 9.16667 11.2197 9.22813 11.3291 9.33752C11.4385 9.44692 11.5 9.59529 11.5 9.75Z" fill="#A8A9BC"/>
</svg>
