<svg width="225" height="21" viewBox="0 0 225 21" fill="none" xmlns="http://www.w3.org/2000/svg">
<path d="M0 3.07344H2.48869V5.63438H0V3.07344ZM0 6.14625H2.48869V8.70718H0V6.14625ZM0 15.3656H2.48869V17.9266H0V15.3656ZM2.98643 0H5.47513V2.56094H2.98643V0ZM2.98643 3.07344H5.47513V5.63438H2.98643V3.07344ZM2.98643 6.14625H5.47513V8.70718H2.98643V6.14625ZM2.98643 9.21969H5.47513V11.7806H2.98643V9.21969ZM2.98643 15.3656H5.47513V17.9266H2.98643V15.3656ZM2.98643 18.4391H5.47513V21H2.98643V18.4391ZM5.97287 0H8.46156V2.56094H5.97287V0ZM5.97287 9.21969H8.46156V11.7806H5.97287V9.21969ZM5.97287 18.4391H8.46156V21H5.97287V18.4391ZM8.9593 0H11.448V2.56094H8.9593V0ZM8.9593 9.21969H11.448V11.7806H8.9593V9.21969ZM8.9593 18.4391H11.448V21H8.9593V18.4391ZM11.9454 0H14.4341V2.56094H11.9454V0ZM11.9454 9.21969H14.4341V11.7806H11.9454V9.21969ZM11.9454 18.4391H14.4341V21H11.9454V18.4391ZM14.9322 0H17.4209V2.56094H14.9322V0ZM14.9322 3.07344H17.4209V5.63438H14.9322V3.07344ZM14.9322 9.21969H17.4209V11.7806H14.9322V9.21969ZM14.9322 12.2925H17.4209V14.8534H14.9322V12.2925ZM14.9322 15.3656H17.4209V17.9266H14.9322V15.3656ZM14.9322 18.4391H17.4209V21H14.9322V18.4391ZM17.9186 3.07344H20.4073V5.63438H17.9186V3.07344ZM17.9186 12.2925H20.4073V14.8534H17.9186V12.2925ZM17.9186 15.3656H20.4073V17.9266H17.9186V15.3656Z" fill="url(#paint0_linear_773_58)"/>
<path d="M23.3931 0H25.8818V2.56094H23.3931V0ZM23.3931 3.07344H25.8818V5.63438H23.3931V3.07344ZM23.3931 6.14625H25.8818V8.70718H23.3931V6.14625ZM23.3931 9.21969H25.8818V11.7806H23.3931V9.21969ZM23.3931 12.2925H25.8818V14.8534H23.3931V12.2925ZM23.3931 15.3656H25.8818V17.9266H23.3931V15.3656ZM23.3931 18.4391H25.8818V21H23.3931V18.4391ZM26.3798 0H28.8685V2.56094H26.3798V0ZM26.3798 3.07344H28.8685V5.63438H26.3798V3.07344ZM26.3798 6.14625H28.8685V8.70718H26.3798V6.14625ZM26.3798 9.21969H28.8685V11.7806H26.3798V9.21969ZM26.3798 12.2925H28.8685V14.8534H26.3798V12.2925ZM26.3798 15.3656H28.8685V17.9266H26.3798V15.3656ZM26.3798 18.4391H28.8685V21H26.3798V18.4391ZM29.3659 3.07344H31.8546V5.63438H29.3659V3.07344ZM29.3659 6.14625H31.8546V8.70718H29.3659V6.14625ZM32.3524 6.14625H34.8411V8.70718H32.3524V6.14625ZM32.3524 9.21969H34.8411V11.7806H32.3524V9.21969ZM32.3524 12.2925H34.8411V14.8534H32.3524V12.2925ZM35.3391 3.07344H37.8278V5.63438H35.3391V3.07344ZM35.3391 6.14625H37.8278V8.70718H35.3391V6.14625ZM38.3252 0H40.8139V2.56094H38.3252V0ZM38.3252 3.07344H40.8139V5.63438H38.3252V3.07344ZM38.3252 6.14625H40.8139V8.70718H38.3252V6.14625ZM38.3252 9.21969H40.8139V11.7806H38.3252V9.21969ZM38.3252 12.2925H40.8139V14.8534H38.3252V12.2925ZM38.3252 15.3656H40.8139V17.9266H38.3252V15.3656ZM38.3252 18.4391H40.8139V21H38.3252V18.4391ZM41.312 0H43.8007V2.56094H41.312V0ZM41.312 3.07344H43.8007V5.63438H41.312V3.07344ZM41.312 6.14625H43.8007V8.70718H41.312V6.14625ZM41.312 9.21969H43.8007V11.7806H41.312V9.21969ZM41.312 12.2925H43.8007V14.8534H41.312V12.2925ZM41.312 15.3656H43.8007V17.9266H41.312V15.3656ZM41.312 18.4391H43.8007V21H41.312V18.4391Z" fill="url(#paint1_linear_773_58)"/>
<path d="M46.7866 3.07344H49.2753V5.63438H46.7866V3.07344ZM46.7866 6.14625H49.2753V8.70718H46.7866V6.14625ZM46.7866 9.21969H49.2753V11.7806H46.7866V9.21969ZM46.7866 12.2925H49.2753V14.8534H46.7866V12.2925ZM46.7866 15.3656H49.2753V17.9266H46.7866V15.3656ZM46.7866 18.4391H49.2753V21H46.7866V18.4391ZM49.7734 0H52.2621V2.56094H49.7734V0ZM49.7734 3.07344H52.2621V5.63438H49.7734V3.07344ZM49.7734 6.14625H52.2621V8.70718H49.7734V6.14625ZM49.7734 9.21969H52.2621V11.7806H49.7734V9.21969ZM49.7734 12.2925H52.2621V14.8534H49.7734V12.2925ZM49.7734 15.3656H52.2621V17.9266H49.7734V15.3656ZM49.7734 18.4391H52.2621V21H49.7734V18.4391ZM52.7598 0H55.2485V2.56094H52.7598V0ZM52.7598 9.21969H55.2485V11.7806H52.7598V9.21969ZM55.7459 0H58.2346V2.56094H55.7459V0ZM55.7459 9.21969H58.2346V11.7806H55.7459V9.21969ZM58.7327 0H61.2214V2.56094H58.7327V0ZM58.7327 9.21969H61.2214V11.7806H58.7327V9.21969ZM61.7188 0H64.2075V2.56094H61.7188V0ZM61.7188 3.07344H64.2075V5.63438H61.7188V3.07344ZM61.7188 6.14625H64.2075V8.70718H61.7188V6.14625ZM61.7188 9.21969H64.2075V11.7806H61.7188V9.21969ZM61.7188 12.2925H64.2075V14.8534H61.7188V12.2925ZM61.7188 15.3656H64.2075V17.9266H61.7188V15.3656ZM61.7188 18.4391H64.2075V21H61.7188V18.4391ZM64.7055 3.07344H67.1942V5.63438H64.7055V3.07344ZM64.7055 6.14625H67.1942V8.70718H64.7055V6.14625ZM64.7055 9.21969H67.1942V11.7806H64.7055V9.21969ZM64.7055 12.2925H67.1942V14.8534H64.7055V12.2925ZM64.7055 15.3656H67.1942V17.9266H64.7055V15.3656ZM64.7055 18.4391H67.1942V21H64.7055V18.4391Z" fill="url(#paint2_linear_773_58)"/>
<path d="M70.1802 0H72.6689V2.56094H70.1802V0ZM70.1802 3.07344H72.6689V5.63438H70.1802V3.07344ZM70.1802 6.14625H72.6689V8.70718H70.1802V6.14625ZM70.1802 9.21969H72.6689V11.7806H70.1802V9.21969ZM70.1802 12.2925H72.6689V14.8534H70.1802V12.2925ZM70.1802 15.3656H72.6689V17.9266H70.1802V15.3656ZM70.1802 18.4391H72.6689V21H70.1802V18.4391ZM73.1666 0H75.6553V2.56094H73.1666V0ZM73.1666 3.07344H75.6553V5.63438H73.1666V3.07344ZM73.1666 6.14625H75.6553V8.70718H73.1666V6.14625ZM73.1666 9.21969H75.6553V11.7806H73.1666V9.21969ZM73.1666 12.2925H75.6553V14.8534H73.1666V12.2925ZM73.1666 15.3656H75.6553V17.9266H73.1666V15.3656ZM73.1666 18.4391H75.6553V21H73.1666V18.4391ZM76.153 0H78.6417V2.56094H76.153V0ZM76.153 9.21969H78.6417V11.7806H76.153V9.21969ZM79.1392 0H81.6279V2.56094H79.1392V0ZM79.1392 9.21969H81.6279V11.7806H79.1392V9.21969ZM79.1392 12.2925H81.6279V14.8534H79.1392V12.2925ZM82.1259 0H84.6146V2.56094H82.1259V0ZM82.1259 9.21969H84.6146V11.7806H82.1259V9.21969ZM82.1259 12.2925H84.6146V14.8534H82.1259V12.2925ZM82.1259 15.3656H84.6146V17.9266H82.1259V15.3656ZM85.1123 0H87.601V2.56094H85.1123V0ZM85.1123 3.07344H87.601V5.63438H85.1123V3.07344ZM85.1123 6.14625H87.601V8.70718H85.1123V6.14625ZM85.1123 9.21969H87.601V11.7806H85.1123V9.21969ZM85.1123 15.3656H87.601V17.9266H85.1123V15.3656ZM85.1123 18.4391H87.601V21H85.1123V18.4391ZM88.0988 3.07344H90.5875V5.63438H88.0988V3.07344ZM88.0988 6.14625H90.5875V8.70718H88.0988V6.14625ZM88.0988 18.4391H90.5875V21H88.0988V18.4391Z" fill="url(#paint3_linear_773_58)"/>
<path d="M93.5737 0H96.0624V2.56094H93.5737V0ZM96.5602 0H99.0489V2.56094H96.5602V0ZM99.5466 0H102.035V2.56094H99.5466V0ZM99.5466 3.07344H102.035V5.63438H99.5466V3.07344ZM99.5466 6.14625H102.035V8.70718H99.5466V6.14625ZM99.5466 9.21969H102.035V11.7806H99.5466V9.21969ZM99.5466 12.2925H102.035V14.8534H99.5466V12.2925ZM99.5466 15.3656H102.035V17.9266H99.5466V15.3656ZM99.5466 18.4391H102.035V21H99.5466V18.4391ZM102.533 0H105.022V2.56094H102.533V0ZM102.533 3.07344H105.022V5.63438H102.533V3.07344ZM102.533 6.14625H105.022V8.70718H102.533V6.14625ZM102.533 9.21969H105.022V11.7806H102.533V9.21969ZM102.533 12.2925H105.022V14.8534H102.533V12.2925ZM102.533 15.3656H105.022V17.9266H102.533V15.3656ZM102.533 18.4391H105.022V21H102.533V18.4391ZM105.519 0H108.008V2.56094H105.519V0ZM108.506 0H110.995V2.56094H108.506V0Z" fill="url(#paint4_linear_773_58)"/>
<path d="M114.006 3.07344H116.495V5.63438H114.006V3.07344ZM114.006 6.14625H116.495V8.70718H114.006V6.14625ZM114.006 9.21969H116.495V11.7806H114.006V9.21969ZM114.006 12.2925H116.495V14.8534H114.006V12.2925ZM114.006 15.3656H116.495V17.9266H114.006V15.3656ZM116.992 0H119.481V2.56094H116.992V0ZM116.992 3.07344H119.481V5.63438H116.992V3.07344ZM116.992 6.14625H119.481V8.70718H116.992V6.14625ZM116.992 9.21969H119.481V11.7806H116.992V9.21969ZM116.992 12.2925H119.481V14.8534H116.992V12.2925ZM116.992 15.3656H119.481V17.9266H116.992V15.3656ZM116.992 18.4391H119.481V21H116.992V18.4391ZM119.979 0H122.467V2.56094H119.979V0ZM119.979 18.4391H122.467V21H119.979V18.4391ZM122.965 0H125.454V2.56094H122.965V0ZM122.965 18.4391H125.454V21H122.965V18.4391ZM125.952 0H128.44V2.56094H125.952V0ZM125.952 18.4391H128.44V21H125.952V18.4391ZM128.938 0H131.427V2.56094H128.938V0ZM128.938 3.07344H131.427V5.63438H128.938V3.07344ZM128.938 15.3656H131.427V17.9266H128.938V15.3656ZM128.938 18.4391H131.427V21H128.938V18.4391ZM131.924 3.07344H134.413V5.63438H131.924V3.07344ZM131.924 15.3656H134.413V17.9266H131.924V15.3656Z" fill="url(#paint5_linear_773_58)"/>
<path d="M137.399 0H139.888V2.56094H137.399V0ZM137.399 3.07344H139.888V5.63438H137.399V3.07344ZM137.399 6.14625H139.888V8.70718H137.399V6.14625ZM137.399 9.21969H139.888V11.7806H137.399V9.21969ZM137.399 12.2925H139.888V14.8534H137.399V12.2925ZM137.399 15.3656H139.888V17.9266H137.399V15.3656ZM137.399 18.4391H139.888V21H137.399V18.4391ZM140.386 0H142.874V2.56094H140.386V0ZM140.386 3.07344H142.874V5.63438H140.386V3.07344ZM140.386 6.14625H142.874V8.70718H140.386V6.14625ZM140.386 9.21969H142.874V11.7806H140.386V9.21969ZM140.386 12.2925H142.874V14.8534H140.386V12.2925ZM140.386 15.3656H142.874V17.9266H140.386V15.3656ZM140.386 18.4391H142.874V21H140.386V18.4391ZM143.372 9.21969H145.861V11.7806H143.372V9.21969ZM146.359 9.21969H148.847V11.7806H146.359V9.21969ZM149.345 9.21969H151.834V11.7806H149.345V9.21969ZM152.332 0H154.82V2.56094H152.332V0ZM152.332 3.07344H154.82V5.63438H152.332V3.07344ZM152.332 6.14625H154.82V8.70718H152.332V6.14625ZM152.332 9.21969H154.82V11.7806H152.332V9.21969ZM152.332 12.2925H154.82V14.8534H152.332V12.2925ZM152.332 15.3656H154.82V17.9266H152.332V15.3656ZM152.332 18.4391H154.82V21H152.332V18.4391ZM155.318 0H157.806V2.56094H155.318V0ZM155.318 3.07344H157.806V5.63438H155.318V3.07344ZM155.318 6.14625H157.806V8.70718H155.318V6.14625ZM155.318 9.21969H157.806V11.7806H155.318V9.21969ZM155.318 12.2925H157.806V14.8534H155.318V12.2925ZM155.318 15.3656H157.806V17.9266H155.318V15.3656ZM155.318 18.4391H157.806V21H155.318V18.4391Z" fill="url(#paint6_linear_773_58)"/>
<path d="M160.792 3.07344H163.281V5.63438H160.792V3.07344ZM160.792 6.14625H163.281V8.70718H160.792V6.14625ZM160.792 9.21969H163.281V11.7806H160.792V9.21969ZM160.792 12.2925H163.281V14.8534H160.792V12.2925ZM160.792 15.3656H163.281V17.9266H160.792V15.3656ZM160.792 18.4391H163.281V21H160.792V18.4391ZM163.779 0H166.268V2.56094H163.779V0ZM163.779 3.07344H166.268V5.63438H163.779V3.07344ZM163.779 6.14625H166.268V8.70718H163.779V6.14625ZM163.779 9.21969H166.268V11.7806H163.779V9.21969ZM163.779 12.2925H166.268V14.8534H163.779V12.2925ZM163.779 15.3656H166.268V17.9266H163.779V15.3656ZM163.779 18.4391H166.268V21H163.779V18.4391ZM166.765 0H169.254V2.56094H166.765V0ZM166.765 9.21969H169.254V11.7806H166.765V9.21969ZM169.752 0H172.24V2.56094H169.752V0ZM169.752 9.21969H172.24V11.7806H169.752V9.21969ZM172.738 0H175.227V2.56094H172.738V0ZM172.738 9.21969H175.227V11.7806H172.738V9.21969ZM175.725 0H178.213V2.56094H175.725V0ZM175.725 3.07344H178.213V5.63438H175.725V3.07344ZM175.725 6.14625H178.213V8.70718H175.725V6.14625ZM175.725 9.21969H178.213V11.7806H175.725V9.21969ZM175.725 12.2925H178.213V14.8534H175.725V12.2925ZM175.725 15.3656H178.213V17.9266H175.725V15.3656ZM175.725 18.4391H178.213V21H175.725V18.4391ZM178.711 3.07344H181.2V5.63438H178.711V3.07344ZM178.711 6.14625H181.2V8.70718H178.711V6.14625ZM178.711 9.21969H181.2V11.7806H178.711V9.21969ZM178.711 12.2925H181.2V14.8534H178.711V12.2925ZM178.711 15.3656H181.2V17.9266H178.711V15.3656ZM178.711 18.4391H181.2V21H178.711V18.4391Z" fill="url(#paint7_linear_773_58)"/>
<path d="M184.186 0H186.674V2.56094H184.186V0ZM184.186 18.4391H186.674V21H184.186V18.4391ZM187.172 0H189.661V2.56094H187.172V0ZM187.172 18.4391H189.661V21H187.172V18.4391ZM190.158 0H192.647V2.56094H190.158V0ZM190.158 3.07344H192.647V5.63438H190.158V3.07344ZM190.158 6.14625H192.647V8.70718H190.158V6.14625ZM190.158 9.21969H192.647V11.7806H190.158V9.21969ZM190.158 12.2925H192.647V14.8534H190.158V12.2925ZM190.158 15.3656H192.647V17.9266H190.158V15.3656ZM190.158 18.4391H192.647V21H190.158V18.4391ZM193.145 0H195.634V2.56094H193.145V0ZM193.145 3.07344H195.634V5.63438H193.145V3.07344ZM193.145 6.14625H195.634V8.70718H193.145V6.14625ZM193.145 9.21969H195.634V11.7806H193.145V9.21969ZM193.145 12.2925H195.634V14.8534H193.145V12.2925ZM193.145 15.3656H195.634V17.9266H193.145V15.3656ZM193.145 18.4391H195.634V21H193.145V18.4391ZM196.132 0H198.62V2.56094H196.132V0ZM196.132 18.4391H198.62V21H196.132V18.4391ZM199.118 0H201.606V2.56094H199.118V0ZM199.118 18.4391H201.606V21H199.118V18.4391Z" fill="url(#paint8_linear_773_58)"/>
<path d="M204.593 0H207.082V2.56094H204.593V0ZM204.593 3.07344H207.082V5.63438H204.593V3.07344ZM204.593 6.14625H207.082V8.70718H204.593V6.14625ZM204.593 9.21969H207.082V11.7806H204.593V9.21969ZM204.593 12.2925H207.082V14.8534H204.593V12.2925ZM204.593 15.3656H207.082V17.9266H204.593V15.3656ZM204.593 18.4391H207.082V21H204.593V18.4391ZM207.579 0H210.068V2.56094H207.579V0ZM207.579 3.07344H210.068V5.63438H207.579V3.07344ZM207.579 6.14625H210.068V8.70718H207.579V6.14625ZM207.579 9.21969H210.068V11.7806H207.579V9.21969ZM207.579 12.2925H210.068V14.8534H207.579V12.2925ZM207.579 15.3656H210.068V17.9266H207.579V15.3656ZM207.579 18.4391H210.068V21H207.579V18.4391ZM210.566 3.07344H213.055V5.63438H210.566V3.07344ZM210.566 6.14625H213.055V8.70718H210.566V6.14625ZM213.553 6.14625H216.041V8.70718H213.553V6.14625ZM213.553 9.21969H216.041V11.7806H213.553V9.21969ZM216.539 9.21969H219.028V11.7806H216.539V9.21969ZM216.539 12.2925H219.028V14.8534H216.539V12.2925ZM219.525 0H222.014V2.56094H219.525V0ZM219.525 3.07344H222.014V5.63438H219.525V3.07344ZM219.525 6.14625H222.014V8.70718H219.525V6.14625ZM219.525 9.21969H222.014V11.7806H219.525V9.21969ZM219.525 12.2925H222.014V14.8534H219.525V12.2925ZM219.525 15.3656H222.014V17.9266H219.525V15.3656ZM219.525 18.4391H222.014V21H219.525V18.4391ZM222.512 0H225V2.56094H222.512V0ZM222.512 3.07344H225V5.63438H222.512V3.07344ZM222.512 6.14625H225V8.70718H222.512V6.14625ZM222.512 9.21969H225V11.7806H222.512V9.21969ZM222.512 12.2925H225V14.8534H222.512V12.2925ZM222.512 15.3656H225V17.9266H222.512V15.3656ZM222.512 18.4391H225V21H222.512V18.4391Z" fill="url(#paint9_linear_773_58)"/>
<defs>
<linearGradient id="paint0_linear_773_58" x1="0" y1="10.4999" x2="225" y2="10.4999" gradientUnits="userSpaceOnUse">
<stop stop-color="#00C9FF"/>
<stop offset="0.433" stop-color="#41E1D4"/>
<stop offset="1" stop-color="#92FE9D"/>
</linearGradient>
<linearGradient id="paint1_linear_773_58" x1="-2.82339e-05" y1="10.4999" x2="225" y2="10.4999" gradientUnits="userSpaceOnUse">
<stop stop-color="#00C9FF"/>
<stop offset="0.433" stop-color="#41E1D4"/>
<stop offset="1" stop-color="#92FE9D"/>
</linearGradient>
<linearGradient id="paint2_linear_773_58" x1="8.50241e-05" y1="10.4999" x2="225" y2="10.4999" gradientUnits="userSpaceOnUse">
<stop stop-color="#00C9FF"/>
<stop offset="0.433" stop-color="#41E1D4"/>
<stop offset="1" stop-color="#92FE9D"/>
</linearGradient>
<linearGradient id="paint3_linear_773_58" x1="-2.53322e-05" y1="10.4999" x2="225" y2="10.4999" gradientUnits="userSpaceOnUse">
<stop stop-color="#00C9FF"/>
<stop offset="0.433" stop-color="#41E1D4"/>
<stop offset="1" stop-color="#92FE9D"/>
</linearGradient>
<linearGradient id="paint4_linear_773_58" x1="6.54377e-05" y1="10.4999" x2="225" y2="10.4999" gradientUnits="userSpaceOnUse">
<stop stop-color="#00C9FF"/>
<stop offset="0.433" stop-color="#41E1D4"/>
<stop offset="1" stop-color="#92FE9D"/>
</linearGradient>
<linearGradient id="paint5_linear_773_58" x1="0.000214322" y1="10.4999" x2="225" y2="10.4999" gradientUnits="userSpaceOnUse">
<stop stop-color="#00C9FF"/>
<stop offset="0.433" stop-color="#41E1D4"/>
<stop offset="1" stop-color="#92FE9D"/>
</linearGradient>
<linearGradient id="paint6_linear_773_58" x1="-5.16645e-05" y1="10.4999" x2="225" y2="10.4999" gradientUnits="userSpaceOnUse">
<stop stop-color="#00C9FF"/>
<stop offset="0.433" stop-color="#41E1D4"/>
<stop offset="1" stop-color="#92FE9D"/>
</linearGradient>
<linearGradient id="paint7_linear_773_58" x1="0.000284316" y1="10.4999" x2="225" y2="10.4999" gradientUnits="userSpaceOnUse">
<stop stop-color="#00C9FF"/>
<stop offset="0.433" stop-color="#41E1D4"/>
<stop offset="1" stop-color="#92FE9D"/>
</linearGradient>
<linearGradient id="paint8_linear_773_58" x1="-0.000313343" y1="10.4999" x2="225" y2="10.4999" gradientUnits="userSpaceOnUse">
<stop stop-color="#00C9FF"/>
<stop offset="0.433" stop-color="#41E1D4"/>
<stop offset="1" stop-color="#92FE9D"/>
</linearGradient>
<linearGradient id="paint9_linear_773_58" x1="0.000344664" y1="10.4999" x2="225" y2="10.4999" gradientUnits="userSpaceOnUse">
<stop stop-color="#00C9FF"/>
<stop offset="0.433" stop-color="#41E1D4"/>
<stop offset="1" stop-color="#92FE9D"/>
</linearGradient>
</defs>
</svg>
