<svg width="46" height="42" viewBox="0 0 46 42" fill="none" xmlns="http://www.w3.org/2000/svg">
<path d="M44.392 12.9373L41.565 7.56726C42.804 9.92026 43.29 12.7133 42.832 15.7863C42.766 16.2293 42.675 16.6703 42.573 17.1093C42.551 17.2023 42.53 17.2963 42.507 17.3893C42.4 17.8163 42.279 18.2413 42.139 18.6633C42.116 18.7333 42.089 18.8033 42.065 18.8733C41.932 19.2603 41.785 19.6433 41.626 20.0243C41.597 20.0933 41.57 20.1633 41.54 20.2323C41.361 20.6463 41.165 21.0563 40.956 21.4623C40.91 21.5513 40.863 21.6393 40.816 21.7273C40.597 22.1393 40.368 22.5483 40.12 22.9513C40.119 22.9533 40.118 22.9553 40.117 22.9573C39.867 23.3623 39.598 23.7593 39.321 24.1533C39.262 24.2373 39.203 24.3213 39.142 24.4053C38.865 24.7873 38.578 25.1643 38.276 25.5343C38.227 25.5943 38.175 25.6533 38.126 25.7133C38.027 25.8323 37.928 25.9523 37.826 26.0703L35.618 21.8753C35.584 21.8113 35.539 21.7533 35.486 21.7003C35.469 21.6833 35.447 21.6703 35.428 21.6553C35.4 21.6323 35.369 21.6113 35.337 21.5913C35.325 21.5843 35.316 21.5743 35.304 21.5683C35.25 21.5403 35.19 21.5193 35.13 21.5003C35.116 21.4963 35.104 21.4903 35.09 21.4863C35.095 21.4833 35.101 21.4803 35.107 21.4763C35.274 21.3703 35.433 21.2553 35.581 21.1313C35.607 21.1093 35.629 21.0843 35.654 21.0623C35.758 20.9713 35.855 20.8743 35.947 20.7753C35.962 20.7593 35.979 20.7453 35.993 20.7293C36.031 20.6873 36.065 20.6413 36.101 20.5983C36.183 20.4983 36.259 20.3963 36.329 20.2913C36.363 20.2393 36.396 20.1863 36.427 20.1333C36.489 20.0263 36.543 19.9163 36.591 19.8043C36.612 19.7543 36.637 19.7053 36.655 19.6543C36.714 19.4923 36.761 19.3283 36.786 19.1613C36.853 18.7113 36.782 18.3023 36.601 17.9573L36.099 17.0033L35.383 15.6433C35.372 15.6223 35.361 15.6003 35.349 15.5793L34.287 13.5613C34.283 13.5543 34.28 13.5483 34.277 13.5413L33.775 12.5873C33.702 12.4473 33.605 12.3223 33.497 12.2053C33.48 12.1863 33.464 12.1663 33.446 12.1483C33.338 12.0403 33.215 11.9453 33.08 11.8613C33.071 11.8553 33.061 11.8503 33.052 11.8453C33.027 11.8303 33.002 11.8153 32.976 11.8013C32.914 11.7673 32.85 11.7363 32.783 11.7073C32.739 11.6883 32.694 11.6693 32.648 11.6523C32.577 11.6263 32.503 11.6043 32.428 11.5843C32.381 11.5713 32.335 11.5583 32.286 11.5473C32.201 11.5293 32.112 11.5173 32.022 11.5063C31.979 11.5013 31.937 11.4933 31.893 11.4893C31.757 11.4783 31.617 11.4743 31.472 11.4813C31.396 11.4843 31.319 11.4903 31.242 11.4993C31.237 11.4993 31.233 11.5003 31.228 11.5003H31.227C31.034 11.5213 30.843 11.5613 30.656 11.6093C30.604 11.6223 30.553 11.6383 30.501 11.6533C30.444 11.6703 30.389 11.6943 30.333 11.7133C30.259 11.7383 30.185 11.7623 30.113 11.7913C30.045 11.8183 29.977 11.8443 29.911 11.8753C29.781 11.9353 29.656 12.0043 29.533 12.0753C29.484 12.1033 29.433 12.1283 29.386 12.1583C29.219 12.2643 29.06 12.3793 28.912 12.5033C28.885 12.5253 28.863 12.5513 28.837 12.5743C28.734 12.6653 28.638 12.7603 28.547 12.8583C28.532 12.8743 28.514 12.8883 28.5 12.9043C28.462 12.9473 28.428 12.9923 28.392 13.0363C28.311 13.1353 28.234 13.2373 28.166 13.3423C28.132 13.3943 28.099 13.4473 28.068 13.5013C28.006 13.6083 27.953 13.7183 27.906 13.8293C27.885 13.8793 27.86 13.9293 27.842 13.9803C27.784 14.1423 27.737 14.3063 27.713 14.4723C28.071 15.1533 28.43 15.8333 28.788 16.5143C28.43 15.8333 28.071 15.1533 27.713 14.4723C27.679 14.6973 27.68 14.9123 27.712 15.1133C27.728 15.2143 27.752 15.3113 27.783 15.4053C27.814 15.4993 27.853 15.5893 27.898 15.6753L30.725 21.0453C30.799 21.1853 30.895 21.3103 31.003 21.4273C31.02 21.4463 31.036 21.4653 31.054 21.4833C31.162 21.5913 31.285 21.6863 31.421 21.7703C31.43 21.7763 31.44 21.7813 31.449 21.7863C31.452 21.7883 31.456 21.7903 31.459 21.7923L17.468 23.3183C17.588 23.2363 17.709 23.1553 17.819 23.0633C17.845 23.0413 17.867 23.0163 17.892 22.9943C17.996 22.9033 18.093 22.8063 18.185 22.7073C18.2 22.6913 18.217 22.6773 18.231 22.6623C18.269 22.6193 18.303 22.5743 18.339 22.5313C18.421 22.4313 18.497 22.3293 18.567 22.2243C18.601 22.1723 18.634 22.1193 18.665 22.0663C18.727 21.9593 18.781 21.8493 18.828 21.7383C18.85 21.6883 18.874 21.6393 18.892 21.5883C18.951 21.4263 18.998 21.2623 19.023 21.0953C19.09 20.6463 19.019 20.2383 18.838 19.8943L16.011 14.5243C15.937 14.3843 15.84 14.2583 15.732 14.1413C15.715 14.1223 15.699 14.1033 15.681 14.0853C15.573 13.9773 15.449 13.8813 15.313 13.7973C15.304 13.7913 15.294 13.7863 15.285 13.7813C15.26 13.7663 15.235 13.7513 15.209 13.7373C15.147 13.7033 15.083 13.6723 15.017 13.6433C14.972 13.6243 14.928 13.6053 14.881 13.5883C14.81 13.5623 14.736 13.5413 14.661 13.5203C14.614 13.5073 14.568 13.4943 14.519 13.4833C14.434 13.4653 14.346 13.4533 14.256 13.4423C14.212 13.4373 14.17 13.4293 14.126 13.4253C13.99 13.4143 13.85 13.4103 13.706 13.4173C13.703 13.4173 13.7 13.4173 13.698 13.4183C13.625 13.4213 13.552 13.4273 13.478 13.4353C13.473 13.4353 13.469 13.4363 13.464 13.4363H13.463C13.27 13.4573 13.079 13.4973 12.891 13.5453C12.84 13.5583 12.789 13.5733 12.738 13.5893C12.681 13.6063 12.627 13.6293 12.571 13.6483C12.496 13.6743 12.422 13.6983 12.349 13.7273C12.281 13.7543 12.213 13.7803 12.147 13.8113C12.017 13.8713 11.891 13.9403 11.768 14.0123C11.719 14.0413 11.668 14.0653 11.62 14.0963C11.453 14.2023 11.293 14.3173 11.145 14.4423C11.119 14.4643 11.098 14.4883 11.073 14.5113C10.969 14.6033 10.871 14.7003 10.779 14.7993C10.764 14.8153 10.747 14.8283 10.733 14.8443C10.695 14.8863 10.662 14.9313 10.626 14.9753C10.544 15.0753 10.467 15.1773 10.398 15.2823C10.364 15.3343 10.331 15.3873 10.301 15.4403C10.239 15.5473 10.185 15.6573 10.137 15.7693C10.116 15.8193 10.092 15.8673 10.073 15.9183C10.014 16.0793 9.96699 16.2433 9.94199 16.4093C10.301 17.0903 10.659 17.7713 11.018 18.4533C10.659 17.7723 10.301 17.0913 9.94199 16.4103C9.91299 16.6063 9.91499 16.7933 9.93699 16.9723C9.95199 17.1013 9.97599 17.2263 10.015 17.3443C10.019 17.3573 10.027 17.3703 10.031 17.3833C10.06 17.4633 10.091 17.5413 10.13 17.6153L12.957 22.9853C13.031 23.1253 13.127 23.2513 13.235 23.3683C13.252 23.3873 13.268 23.4063 13.286 23.4243C13.394 23.5323 13.517 23.6283 13.653 23.7123C13.662 23.7183 13.672 23.7233 13.681 23.7283C13.685 23.7303 13.688 23.7323 13.692 23.7353L6.93599 24.4723H6.93399C6.92699 24.4733 6.92099 24.4753 6.91399 24.4763C6.80599 24.4893 6.69999 24.5123 6.59899 24.5463C6.59499 24.5473 6.59199 24.5503 6.58799 24.5513C6.57099 24.5573 6.55599 24.5663 6.53899 24.5723C6.43799 24.6103 6.34199 24.6573 6.25199 24.7123C6.21799 24.7333 6.18699 24.7553 6.15499 24.7783C6.08099 24.8313 6.01299 24.8883 5.94999 24.9493C5.92499 24.9663 5.90699 24.9833 5.89099 25.0003C5.88199 25.0093 5.87199 25.0173 5.86399 25.0273C5.82499 25.0713 5.79299 25.1193 5.75999 25.1663C5.73599 25.2013 5.70999 25.2353 5.68999 25.2713C5.66199 25.3223 5.64299 25.3743 5.62399 25.4273C5.61099 25.4623 5.59399 25.4963 5.58499 25.5313C5.56999 25.5903 5.56799 25.6483 5.56599 25.7063C5.56499 25.7353 5.55699 25.7653 5.55899 25.7943C5.56499 25.8813 5.58599 25.9673 5.62399 26.0483C5.67799 26.1613 5.73399 26.2733 5.79199 26.3843L8.61899 31.7543C8.73699 31.9783 8.86499 32.1953 8.99999 32.4093C9.04399 32.4783 9.09199 32.5443 9.13699 32.6123C9.23199 32.7553 9.32899 32.8963 9.43199 33.0343C9.48999 33.1113 9.55099 33.1863 9.61099 33.2623C9.70899 33.3863 9.80999 33.5083 9.91499 33.6283C9.98199 33.7043 10.05 33.7793 10.119 33.8533C10.227 33.9693 10.338 34.0823 10.451 34.1933C10.522 34.2633 10.593 34.3323 10.666 34.4003C10.79 34.5143 10.918 34.6253 11.049 34.7343C11.118 34.7923 11.186 34.8523 11.257 34.9093C11.424 35.0423 11.597 35.1693 11.773 35.2933C11.813 35.3213 11.85 35.3513 11.89 35.3783C12.094 35.5183 12.306 35.6513 12.522 35.7793C12.535 35.7873 12.546 35.7953 12.559 35.8033C12.678 35.8733 12.805 35.9353 12.927 36.0013C12.918 36.0003 12.91 35.9983 12.901 35.9973C12.72 35.9713 12.542 35.9413 12.364 35.9113C12.098 35.8653 11.835 35.8153 11.576 35.7603C11.402 35.7233 11.229 35.6853 11.058 35.6433C10.799 35.5803 10.544 35.5113 10.292 35.4383C10.132 35.3923 9.97099 35.3473 9.81399 35.2973C9.54899 35.2133 9.28999 35.1203 9.03399 35.0243C8.90099 34.9753 8.76399 34.9293 8.63299 34.8773C8.30199 34.7453 7.98099 34.6023 7.66599 34.4523C7.61599 34.4283 7.56399 34.4083 7.51499 34.3843C7.15399 34.2073 6.80399 34.0183 6.46499 33.8183C6.44799 33.8083 6.42999 33.8003 6.41399 33.7903C6.13899 33.6273 5.87099 33.4563 5.61099 33.2783C5.57399 33.2533 5.53999 33.2253 5.50299 33.1993C5.26299 33.0323 5.02999 32.8593 4.80399 32.6793C4.71599 32.6093 4.63199 32.5353 4.54599 32.4633C4.37699 32.3223 4.21099 32.1803 4.05099 32.0323C3.95799 31.9463 3.86799 31.8573 3.77699 31.7693C3.63099 31.6273 3.48899 31.4823 3.35099 31.3343C3.26299 31.2403 3.17699 31.1453 3.09199 31.0483C2.95799 30.8953 2.82899 30.7393 2.70399 30.5813C2.62699 30.4843 2.54899 30.3893 2.47599 30.2903C2.34499 30.1153 2.22199 29.9353 2.09999 29.7543C2.04199 29.6673 1.97999 29.5823 1.92399 29.4933C1.75199 29.2213 1.58799 28.9433 1.43799 28.6583L4.26499 34.0283C4.41499 34.3133 4.57899 34.5913 4.75099 34.8633C4.80699 34.9513 4.86799 35.0363 4.92599 35.1233C5.04699 35.3053 5.17099 35.4853 5.30199 35.6603C5.37599 35.7593 5.45299 35.8543 5.52999 35.9513C5.65599 36.1093 5.78499 36.2663 5.91899 36.4183C6.00399 36.5143 6.08999 36.6103 6.17799 36.7043C6.31599 36.8523 6.45899 36.9973 6.60499 37.1403C6.69499 37.2283 6.78399 37.3163 6.87699 37.4023C7.03699 37.5503 7.20399 37.6923 7.37299 37.8333C7.45899 37.9053 7.54299 37.9803 7.63099 38.0503C7.85699 38.2303 8.09199 38.4033 8.33199 38.5713C8.36799 38.5963 8.40199 38.6243 8.43799 38.6493C8.69599 38.8263 8.96399 38.9923 9.23699 39.1543C9.25599 39.1653 9.27299 39.1783 9.29199 39.1893C9.63099 39.3883 9.97999 39.5783 10.342 39.7543C10.391 39.7783 10.444 39.7983 10.494 39.8223C10.809 39.9723 11.13 40.1143 11.46 40.2463C11.592 40.2993 11.729 40.3443 11.863 40.3943C12.119 40.4893 12.377 40.5823 12.642 40.6663C12.799 40.7163 12.961 40.7613 13.121 40.8073C13.373 40.8793 13.626 40.9493 13.885 41.0123C14.057 41.0543 14.23 41.0923 14.405 41.1293C14.664 41.1843 14.926 41.2343 15.191 41.2803C15.37 41.3113 15.548 41.3403 15.73 41.3673C16.006 41.4073 16.287 41.4393 16.569 41.4683C16.746 41.4863 16.921 41.5073 17.1 41.5213C17.412 41.5463 17.731 41.5603 18.05 41.5713C18.205 41.5773 18.358 41.5873 18.515 41.5903C18.994 41.5983 19.479 41.5943 19.973 41.5733C20.488 41.5513 21.012 41.5083 21.542 41.4533C21.58 41.4493 21.616 41.4493 21.654 41.4443C22.119 41.3933 22.582 41.3263 23.043 41.2523C23.171 41.2313 23.298 41.2093 23.426 41.1863C23.802 41.1203 24.177 41.0463 24.55 40.9653C24.641 40.9453 24.733 40.9283 24.825 40.9073C25.276 40.8043 25.724 40.6893 26.169 40.5643C26.276 40.5343 26.382 40.5013 26.489 40.4703C26.845 40.3663 27.199 40.2553 27.551 40.1373C27.622 40.1133 27.693 40.0903 27.764 40.0653C27.803 40.0523 27.843 40.0393 27.882 40.0253C28.393 39.8483 28.898 39.6563 29.397 39.4523C29.492 39.4133 29.587 39.3723 29.682 39.3323C30.194 39.1173 30.701 38.8913 31.199 38.6493C31.224 38.6373 31.248 38.6243 31.272 38.6123C31.758 38.3743 32.235 38.1213 32.706 37.8593C32.785 37.8153 32.864 37.7733 32.943 37.7283C33.408 37.4633 33.865 37.1863 34.314 36.8993C34.403 36.8423 34.492 36.7843 34.58 36.7263C35.031 36.4313 35.475 36.1273 35.907 35.8103C35.954 35.7753 36 35.7393 36.048 35.7043C36.462 35.3973 36.866 35.0803 37.261 34.7543C37.316 34.7083 37.373 34.6643 37.429 34.6173C37.833 34.2793 38.223 33.9303 38.605 33.5733C38.68 33.5023 38.756 33.4313 38.83 33.3603C39.205 33.0013 39.57 32.6363 39.921 32.2613C39.939 32.2423 39.955 32.2233 39.973 32.2043C40.011 32.1643 40.047 32.1223 40.084 32.0823C40.384 31.7553 40.675 31.4233 40.956 31.0853C41.006 31.0253 41.058 30.9663 41.107 30.9053C41.409 30.5353 41.696 30.1583 41.973 29.7763C42.034 29.6923 42.093 29.6083 42.152 29.5243C42.43 29.1313 42.698 28.7333 42.948 28.3293C42.95 28.3263 42.951 28.3243 42.953 28.3213C43.201 27.9193 43.429 27.5113 43.648 27.1003C43.695 27.0113 43.743 26.9233 43.788 26.8343C43.996 26.4283 44.192 26.0193 44.371 25.6053C44.401 25.5353 44.428 25.4653 44.457 25.3953C44.616 25.0143 44.763 24.6313 44.896 24.2443C44.92 24.1743 44.947 24.1043 44.97 24.0343C45.11 23.6123 45.231 23.1873 45.338 22.7603C45.361 22.6673 45.383 22.5733 45.404 22.4803C45.506 22.0413 45.597 21.6003 45.663 21.1573C46.116 18.0843 45.63 15.2913 44.392 12.9373Z" fill="#EB8623"/>
<path d="M13.701 13.4183C15.294 13.3493 16.397 14.3463 16.19 15.7273C15.972 17.1833 14.397 18.5123 12.674 18.7003C12.588 18.7103 12.503 18.7163 12.419 18.7203C10.826 18.7893 9.73296 17.7933 9.93396 16.4103C10.151 14.9593 11.727 13.6253 13.456 13.4373C13.539 13.4283 13.621 13.4223 13.701 13.4183Z" fill="#263B82"/>
<path d="M31.469 11.4832C33.062 11.4142 34.165 12.4062 33.957 13.7922C33.739 15.2482 32.164 16.5772 30.441 16.7642C30.358 16.7732 30.276 16.7792 30.196 16.7832C28.598 16.8522 27.501 15.8552 27.707 14.4742C27.919 13.0182 29.495 11.6892 31.223 11.5022C31.307 11.4932 31.389 11.4862 31.469 11.4832Z" fill="#263B82"/>
<path d="M34.7232 21.4432C35.5482 21.4072 35.9752 22.1062 35.4992 22.7912C32.0652 27.7002 25.9422 31.4852 19.4002 32.1992C18.9542 32.2482 18.5152 32.2812 18.0832 32.3002C12.1682 32.5572 7.54017 30.0642 5.62317 26.0492C5.32417 25.4222 6.04117 24.5652 6.92817 24.4732L34.6262 21.4522C34.6592 21.4462 34.6912 21.4442 34.7232 21.4432Z" fill="white"/>
<path d="M42.8311 15.7862C41.3531 25.7072 30.6051 34.7892 18.8251 36.0732C18.2571 36.1352 17.6961 36.1782 17.1441 36.2022C6.26015 36.6752 -1.23585 29.8782 0.169147 20.4402C1.64715 10.5192 12.3951 1.43724 24.1761 0.153243C24.7471 0.0902426 25.3111 0.0472426 25.8661 0.0232426C36.7401 -0.449757 44.2371 6.34724 42.8311 15.7862ZM35.5001 22.7902C35.9761 22.1062 35.5491 21.4072 34.7241 21.4422C34.6921 21.4432 34.6601 21.4462 34.6271 21.4492L6.92815 24.4712C6.04115 24.5632 5.32415 25.4202 5.62315 26.0482C7.53915 30.0632 12.1671 32.5562 18.0831 32.2992C18.5161 32.2802 18.9541 32.2472 19.4001 32.1982C25.9431 31.4842 32.0651 27.6992 35.5001 22.7902ZM13.4571 13.4372C11.7281 13.6252 10.1521 14.9592 9.93515 16.4102C9.73315 17.7932 10.8261 18.7892 12.4201 18.7202C12.5041 18.7162 12.5891 18.7102 12.6751 18.7002C14.3981 18.5132 15.9731 17.1842 16.1911 15.7282C16.3971 14.3472 15.2951 13.3502 13.7021 13.4192C13.6211 13.4222 13.5391 13.4282 13.4571 13.4372ZM31.2241 11.5022C29.4951 11.6902 27.9201 13.0192 27.7081 14.4742C27.5021 15.8552 28.5991 16.8532 30.1971 16.7832C30.2771 16.7792 30.3591 16.7732 30.4421 16.7642C32.1651 16.5772 33.7401 15.2482 33.9581 13.7922C34.1651 12.4062 33.0621 11.4142 31.4701 11.4832C31.3891 11.4862 31.3071 11.4932 31.2241 11.5022Z" fill="url(#paint0_linear_784_653)"/>
<path d="M25.8652 0.0232252C25.3102 0.0472252 24.7472 0.0902252 24.1752 0.153225C12.3952 1.43723 1.64718 10.5192 0.169183 20.4402C-0.719817 26.4082 1.95418 31.3172 6.79118 34.0032L32.4292 0.701225C30.4392 0.162225 28.2332 -0.0797748 25.8652 0.0232252Z" fill="url(#paint1_linear_784_653)"/>
<path d="M39.623 4.85618C38.37 3.52018 36.805 2.42018 34.985 1.60718L9.20898 35.0922C11.091 35.7662 13.203 36.1552 15.488 36.2132L39.623 4.85618Z" fill="url(#paint2_linear_784_653)"/>
<defs>
<linearGradient id="paint0_linear_784_653" x1="0.000146507" y1="18.113" x2="43.0008" y2="18.113" gradientUnits="userSpaceOnUse">
<stop stop-color="#FCC16F"/>
<stop offset="0.2548" stop-color="#FCBD6A"/>
<stop offset="0.566" stop-color="#FAB35B"/>
<stop offset="0.9055" stop-color="#F9A242"/>
<stop offset="1" stop-color="#F89C3A"/>
</linearGradient>
<linearGradient id="paint1_linear_784_653" x1="34.8955" y1="-16.6032" x2="-27.8886" y2="69.0816" gradientUnits="userSpaceOnUse">
<stop stop-color="white"/>
<stop offset="0.6615" stop-color="white" stop-opacity="0"/>
</linearGradient>
<linearGradient id="paint2_linear_784_653" x1="47.5055" y1="-11.5377" x2="-15.7112" y2="74.7374" gradientUnits="userSpaceOnUse">
<stop stop-color="white"/>
<stop offset="0.6615" stop-color="white" stop-opacity="0"/>
</linearGradient>
</defs>
</svg>
