<svg width="16" height="16" viewBox="0 0 16 16" fill="none" xmlns="http://www.w3.org/2000/svg">
<g clip-path="url(#clip0_2666_8652)">
<path d="M7.99984 2C4.6665 2 1.81984 4.07333 0.666504 7C1.81984 9.92667 4.6665 12 7.99984 12C11.3332 12 14.1798 9.92667 15.3332 7C14.1798 4.07333 11.3332 2 7.99984 2ZM7.99984 10.3333C6.15984 10.3333 4.6665 8.84 4.6665 7C4.6665 5.16 6.15984 3.66667 7.99984 3.66667C9.83984 3.66667 11.3332 5.16 11.3332 7C11.3332 8.84 9.83984 10.3333 7.99984 10.3333ZM7.99984 5C6.89317 5 5.99984 5.89333 5.99984 7C5.99984 8.10667 6.89317 9 7.99984 9C9.1065 9 9.99984 8.10667 9.99984 7C9.99984 5.89333 9.1065 5 7.99984 5Z" fill="#A8A9BC"/>
</g>
<defs>
<clipPath id="clip0_2666_8652">
<rect width="16" height="16" fill="white"/>
</clipPath>
</defs>
</svg>
