<svg width="32" height="32" viewBox="0 0 32 32" fill="none" xmlns="http://www.w3.org/2000/svg">
<rect width="32" height="32" rx="16" fill="#E85A48"/>
<path d="M18.4262 16.8802H17.0217C14.8157 16.8802 12.6763 15.6003 12.6763 12.4001C12.6763 9.06626 14.6818 7.70654 16.7208 7.70654H18.4262V16.8802H18.4262ZM20.6322 6H16.8211C13.0777 6 9.90192 8.26668 9.90192 12.6668C9.90192 15.3069 11.4401 17.2534 14.1803 18.2134L9.06688 25.5736C8.89987 25.8138 9.06688 26 9.3335 26H11.7067C11.9073 26 12.0412 25.9468 12.1079 25.8138L16.7541 18.5866H18.4262V25.8138C18.4262 25.8935 18.5265 26 18.6592 26H20.7325C20.9331 26 21 25.9201 21 25.7872V6.26688C21 6.07976 20.8661 6 20.6322 6" fill="white"/>
</svg>
