<svg width="71" height="71" viewBox="0 0 71 71" fill="none" xmlns="http://www.w3.org/2000/svg">
<g clip-path="url(#clip0_812_3838)">
<path d="M35.4984 2.95813C24.0496 2.95813 14.79 12.2177 14.79 23.6665C14.79 39.1977 35.4984 62.1248 35.4984 62.1248C35.4984 62.1248 56.2067 39.1977 56.2067 23.6665C56.2067 12.2177 46.9471 2.95813 35.4984 2.95813Z" fill="#202041"/>
<path fill-rule="evenodd" clip-rule="evenodd" d="M25.5103 14.821C24.7034 14.821 24.0412 15.4593 24.0113 16.2655L23.7044 24.551L21.7017 31.1313C21.4085 32.0949 22.1295 33.068 23.1367 33.068H23.4809C24.1266 33.068 24.6998 32.6549 24.904 32.0423L26.5177 27.201C26.5858 26.9968 26.7769 26.8591 26.9921 26.8591H44.1773C44.3925 26.8591 44.5836 26.9968 44.6516 27.201L46.2654 32.0423C46.4696 32.6549 47.0428 33.068 47.6884 33.068H48.0326C49.0399 33.068 49.7609 32.0949 49.4676 31.1313L47.4649 24.551L47.1581 16.2655C47.1282 15.4593 46.4659 14.821 45.6591 14.821H25.5103ZM22.6584 31.4224L24.5722 25.1344H46.5972L48.511 31.4224C48.6087 31.7436 48.3684 32.068 48.0326 32.068H47.6884C47.4732 32.068 47.2822 31.9303 47.2141 31.7261L45.6003 26.8848C45.3961 26.2722 44.8229 25.8591 44.1773 25.8591H26.9921C26.3464 25.8591 25.7732 26.2722 25.5691 26.8848L23.9553 31.7261C23.8872 31.9303 23.6961 32.068 23.4809 32.068H23.1367C22.801 32.068 22.5606 31.7436 22.6584 31.4224ZM46.1587 16.3025L46.4488 24.1344H24.7205L25.0106 16.3025C25.0206 16.0338 25.2413 15.821 25.5103 15.821H45.6591C45.928 15.821 46.1488 16.0338 46.1587 16.3025ZM26.9264 16.2008C26.098 16.2008 25.4264 16.8724 25.4264 17.7008V22.2546C25.4264 23.0831 26.098 23.7546 26.9264 23.7546H44.243C45.0714 23.7546 45.743 23.0831 45.743 22.2546V17.7008C45.743 16.8724 45.0714 16.2008 44.243 16.2008H26.9264Z" fill="white"/>
</g>
<defs>
<clipPath id="clip0_812_3838">
<rect width="71" height="71" fill="white"/>
</clipPath>
</defs>
</svg>
