<svg width="16" height="15" viewBox="0 0 16 15" fill="none" xmlns="http://www.w3.org/2000/svg">
<path d="M15.1114 6.45779C15.2765 6.33473 15.3991 6.16307 15.4618 5.96686C15.5245 5.77065 15.5242 5.55974 15.461 5.36371C15.3977 5.16767 15.2747 4.99633 15.1092 4.87372C14.9437 4.75111 14.744 4.68337 14.538 4.68001L10.538 4.5289C10.5184 4.52754 10.4995 4.52053 10.4837 4.5087C10.468 4.49687 10.456 4.48073 10.4491 4.46223L9.06692 0.7289C8.99747 0.538962 8.87134 0.374952 8.70559 0.259076C8.53984 0.1432 8.34249 0.0810547 8.14025 0.0810547C7.93802 0.0810547 7.74067 0.1432 7.57492 0.259076C7.40917 0.374952 7.28303 0.538962 7.21359 0.7289L5.83581 4.47557C5.829 4.49407 5.81699 4.5102 5.80121 4.52203C5.78544 4.53386 5.76659 4.54088 5.74692 4.54223L1.74692 4.69335C1.54097 4.69671 1.34123 4.76444 1.17572 4.88705C1.01021 5.00966 0.887215 5.181 0.823993 5.37704C0.76077 5.57308 0.760487 5.78399 0.823181 5.98019C0.885876 6.1764 1.00841 6.34807 1.17359 6.47112L4.31137 8.93779C4.32707 8.95015 4.33881 8.96684 4.34513 8.9858C4.35145 9.00475 4.35207 9.02515 4.34692 9.04446L3.26692 12.8711C3.21096 13.066 3.21638 13.2734 3.28245 13.465C3.34852 13.6567 3.47203 13.8234 3.63619 13.9424C3.80034 14.0613 3.99716 14.1269 4.19988 14.13C4.40259 14.1332 4.60136 14.0738 4.76914 13.96L8.0847 11.7378C8.10103 11.7265 8.12041 11.7205 8.14025 11.7205C8.1601 11.7205 8.17948 11.7265 8.19581 11.7378L11.5114 13.96C11.6769 14.0777 11.8749 14.141 12.078 14.141C12.2811 14.141 12.4792 14.0777 12.6447 13.96C12.8089 13.8421 12.9325 13.6763 12.9986 13.4853C13.0646 13.2943 13.0699 13.0875 13.0136 12.8933L11.9247 9.05335C11.9189 9.03407 11.9192 9.01348 11.9256 8.99439C11.932 8.9753 11.9441 8.95864 11.9603 8.94668L15.1114 6.45779Z" fill="#F9AA03"/>
</svg>
